<svg width="148" height="132" viewBox="0 0 148 132" fill="none"
    xmlns="http://www.w3.org/2000/svg">
    <circle cx="74.7252" cy="69.9674" r="55.8622" fill="#4B4B4B"/>
    <circle cx="76.9511" cy="69.9674" r="55.3622" fill="white" stroke="#4B4B4B"/>
    <path fillRule="evenodd" clipRule="evenodd" d="M62.3486 95.5836C59.3325 98.5998 54.4423 98.5998 51.4262 95.5836C48.41 92.5675 48.41 87.6773 51.4262 84.6612L66.2392 69.8482L51.4271 55.0361C48.4109 52.02 48.4109 47.1298 51.4271 44.1137C54.4432 41.0975 59.3334 41.0975 62.3495 44.1137L77.1616 58.9258L91.9737 44.1137C94.9899 41.0975 99.88 41.0975 102.896 44.1137C105.912 47.1298 105.912 52.02 102.896 55.0361L88.0841 69.8482L102.897 84.6612C105.913 87.6773 105.913 92.5675 102.897 95.5836C99.8809 98.5998 94.9908 98.5998 91.9746 95.5836L77.1616 80.7706L62.3486 95.5836Z" fill="#9F342B"/>
    <path fillRule="evenodd" clipRule="evenodd" d="M96.6877 95.4873C99.7039 98.5034 104.594 98.5034 107.61 95.4873C110.626 92.4711 110.626 87.581 107.61 84.5648L92.7972 69.7518L107.609 54.9398C110.625 51.9236 110.625 47.0335 107.609 44.0173C104.593 41.0012 99.703 41.0012 96.6868 44.0173L81.8748 58.8294L67.0627 44.0173C64.0465 41.0012 59.1564 41.0011 56.1402 44.0173C53.1241 47.0335 53.1241 51.9236 56.1402 54.9398L70.9523 69.7518L56.1393 84.5648C53.1232 87.581 53.1232 92.4711 56.1393 95.4873C59.1555 98.5034 64.0456 98.5034 67.0618 95.4873L81.8748 80.6743L96.6877 95.4873Z" fill="#D4675E"/>
    <path d="M102.153 128.057H76.3936V130.105H102.153V128.057Z" fill="#DF8D86"/>
    <path d="M43.0565 3.30061L39.5122 6.17775L43.782 7.80193L43.0565 3.30061Z" fill="#DF8D86"/>
    <path d="M1.6099 98.446L3.62514 102.542L6.15972 98.7415L1.6099 98.446Z" fill="#DF8D86"/>
    <path d="M130.621 119.459L132.637 108.853L122.442 112.257L130.621 119.459Z" fill="#DF8D86"/>
    <path d="M42.6772 6.68637C42.6631 6.6865 42.6491 6.68387 42.6361 6.67864L38.9786 5.28648C38.9596 5.27896 38.9428 5.26668 38.9299 5.25084C38.917 5.23499 38.9084 5.2161 38.905 5.19599C38.9018 5.17586 38.904 5.15526 38.9113 5.13625C38.9187 5.11724 38.9309 5.1005 38.9468 5.08771L41.9827 2.62436C41.9985 2.61142 42.0174 2.60289 42.0376 2.59963C42.0577 2.59637 42.0784 2.5985 42.0974 2.6058C42.1164 2.61296 42.1332 2.62505 42.146 2.64082C42.1588 2.65658 42.1672 2.67546 42.1703 2.69551L42.7903 6.5518C42.7936 6.57186 42.7915 6.59242 42.7843 6.61142C42.7771 6.63042 42.765 6.6472 42.7492 6.66008C42.7289 6.67668 42.7035 6.68594 42.6772 6.68637ZM39.2499 5.13953L42.5307 6.38783L41.9726 2.93063L39.2499 5.13953Z" fill="black"/>
    <path d="M4.82616 99.5684C4.82314 99.5822 4.81748 99.5952 4.80947 99.6068L2.63749 102.862C2.62592 102.879 2.61022 102.893 2.5919 102.902C2.57358 102.911 2.55326 102.915 2.53287 102.914C2.51255 102.912 2.49295 102.906 2.47606 102.894C2.45916 102.883 2.44557 102.867 2.43664 102.849L0.711516 99.3405C0.702419 99.3223 0.698318 99.3019 0.699628 99.2815C0.700938 99.2612 0.707613 99.2415 0.718974 99.2246C0.7302 99.2076 0.745718 99.194 0.763938 99.185C0.782159 99.176 0.802429 99.1721 0.822668 99.1735L4.72018 99.4281C4.74045 99.4294 4.76003 99.436 4.77695 99.4473C4.79387 99.4586 4.80754 99.4741 4.81658 99.4923C4.82823 99.5159 4.8316 99.5427 4.82616 99.5684ZM2.55467 102.565L4.50249 99.6447L1.00785 99.4186L2.55467 102.565Z" fill="black"/>
    <path d="M126.024 112.662C126.05 112.64 126.08 112.624 126.111 112.614L134.93 109.575C134.976 109.56 135.025 109.557 135.073 109.566C135.12 109.575 135.164 109.596 135.201 109.627C135.237 109.659 135.264 109.7 135.279 109.746C135.294 109.792 135.297 109.841 135.287 109.888L133.418 118.988C133.409 119.036 133.387 119.08 133.355 119.117C133.323 119.153 133.281 119.181 133.235 119.197C133.19 119.213 133.141 119.216 133.093 119.207C133.046 119.198 133.002 119.176 132.966 119.144L126.019 113.079C125.983 113.047 125.956 113.007 125.94 112.961C125.925 112.916 125.922 112.867 125.931 112.82C125.944 112.758 125.977 112.703 126.024 112.662ZM134.652 110.255L126.743 112.982L132.975 118.416L134.652 110.255Z" fill="black"/>
    <path d="M18.2431 42.9124C18.6011 41.4515 17.7045 39.9775 16.2404 39.6203C14.7764 39.2631 13.2994 40.1579 12.9414 41.6188C12.5834 43.0798 13.48 44.5537 14.9441 44.9109C16.4081 45.2681 17.8852 44.3734 18.2431 42.9124Z" fill="#DF8D86"/>
    <path d="M147.041 37.7159C147.398 36.2549 146.502 34.781 145.038 34.4238C143.574 34.0666 142.097 34.9613 141.739 36.4223C141.381 37.8832 142.277 39.3571 143.741 39.7144C145.205 40.0716 146.683 39.1768 147.041 37.7159Z" fill="#DF8D86"/>
    <path d="M14.651 44.8995C14.27 44.8994 13.8941 44.8113 13.5529 44.6422C13.2116 44.473 12.9142 44.2274 12.6839 43.9244C12.4536 43.6215 12.2966 43.2695 12.2253 42.896C12.154 42.5225 12.1702 42.1376 12.2727 41.7714C12.3753 41.4052 12.5613 41.0676 12.8163 40.785C13.0713 40.5025 13.3884 40.2827 13.7427 40.1427C14.097 40.0028 14.4789 39.9465 14.8586 39.9784C15.2383 40.0102 15.6055 40.1293 15.9314 40.3263C16.3936 40.6049 16.7515 41.027 16.9503 41.5279C17.1492 42.0289 17.178 42.5811 17.0324 43.0999C16.8868 43.6188 16.5747 44.0757 16.1441 44.4007C15.7134 44.7258 15.1879 44.901 14.6479 44.8995H14.651ZM14.6595 40.201C14.1178 40.1995 13.594 40.3939 13.1849 40.7482C12.7759 41.1025 12.5093 41.5928 12.4347 42.1281C12.36 42.6635 12.4823 43.2077 12.7789 43.66C13.0755 44.1123 13.5263 44.4421 14.0478 44.5882C14.5693 44.7343 15.1262 44.6868 15.6154 44.4546C16.1045 44.2224 16.4928 43.8212 16.7083 43.3253C16.9238 42.8294 16.9518 42.2724 16.7873 41.7574C16.6228 41.2423 16.2769 40.8043 15.8136 40.5243C15.4659 40.3129 15.0667 40.2008 14.6595 40.2002V40.201Z" fill="black"/>
    <path d="M143.448 39.703C143.067 39.7029 142.691 39.6148 142.35 39.4456C142.009 39.2765 141.712 39.0308 141.481 38.7279C141.251 38.425 141.094 38.073 141.023 37.6995C140.951 37.326 140.968 36.9411 141.07 36.5748C141.173 36.2086 141.359 35.871 141.614 35.5885C141.869 35.306 142.186 35.0861 142.54 34.9462C142.894 34.8063 143.276 34.75 143.656 34.7819C144.036 34.8137 144.403 34.9328 144.729 35.1297C145.191 35.4084 145.549 35.8305 145.748 36.3314C145.947 36.8324 145.975 37.3846 145.83 37.9034C145.684 38.4223 145.372 38.8792 144.941 39.2042C144.511 39.5292 143.985 39.7044 143.445 39.703H143.448ZM143.457 35.0044C142.915 35.0029 142.391 35.1973 141.982 35.5517C141.573 35.906 141.307 36.3962 141.232 36.9316C141.157 37.467 141.28 38.0112 141.576 38.4635C141.873 38.9158 142.324 39.2455 142.845 39.3916C143.367 39.5377 143.924 39.4903 144.413 39.2581C144.902 39.0259 145.29 38.6247 145.506 38.1288C145.721 37.6329 145.749 37.0758 145.585 36.5608C145.42 36.0458 145.074 35.6077 144.611 35.3277C144.263 35.1163 143.864 35.0043 143.457 35.0037V35.0044Z" fill="black"/>
    <path d="M69.175 9.17434C71.7138 9.17434 73.7718 7.12059 73.7718 4.58717C73.7718 2.05375 71.7138 0 69.175 0C66.6362 0 64.5781 2.05375 64.5781 4.58717C64.5781 7.12059 66.6362 9.17434 69.175 9.17434Z" fill="#DF8D86"/>
    <path d="M25.9976 118.055C26.5632 115.58 25.0196 113.116 22.5498 112.552C20.0801 111.988 17.6194 113.536 17.0539 116.011C16.4883 118.486 18.0319 120.95 20.5017 121.515C22.9714 122.079 25.4321 120.53 25.9976 118.055Z" fill="#DF8D86"/>
    <path d="M67.6262 8.62408C66.6861 8.62302 65.7752 8.29782 65.0477 7.70351C64.3203 7.10921 63.821 6.28233 63.6344 5.36285C63.4477 4.44337 63.5853 3.48778 64.0236 2.65785C64.462 1.82792 65.1743 1.17465 66.0399 0.808615C66.9055 0.442582 67.8713 0.386282 68.7737 0.649245C69.6762 0.912208 70.4598 1.47828 70.9921 2.25163C71.5243 3.02497 71.7724 3.95809 71.6943 4.893C71.6162 5.82791 71.2168 6.70718 70.5637 7.38196C70.1832 7.7759 69.7269 8.08901 69.2221 8.30247C68.7173 8.51592 68.1744 8.62532 67.6262 8.62408ZM67.6262 0.711967H67.5564C66.6666 0.729061 65.8103 1.0534 65.1332 1.62975C64.4561 2.2061 64.0001 2.99883 63.8429 3.87296C63.6857 4.74709 63.8369 5.64857 64.2709 6.42391C64.7049 7.19926 65.3948 7.80052 66.2231 8.12532C67.0515 8.45012 67.967 8.47837 68.8138 8.20528C69.6607 7.93218 70.3865 7.37462 70.8677 6.62753C71.3489 5.88043 71.5557 4.99 71.4529 4.10784C71.3501 3.22569 70.9441 2.40635 70.304 1.78934C69.5873 1.09547 68.6271 0.708811 67.6285 0.711967H67.6262Z" fill="black"/>
    <path d="M25.1159 119.441C24.9055 120.358 24.3855 121.173 23.6441 121.75C22.9027 122.327 21.9853 122.629 21.0474 122.606C20.1094 122.583 19.2085 122.236 18.4971 121.624C17.7857 121.012 17.3075 120.172 17.1435 119.247C16.9795 118.321 17.1398 117.367 17.5972 116.546C18.0546 115.725 18.781 115.087 19.6535 114.74C20.5259 114.394 21.4909 114.36 22.3849 114.644C23.2789 114.929 24.0471 115.514 24.5594 116.301C24.8587 116.76 25.0623 117.274 25.1579 117.814C25.2536 118.354 25.2393 118.907 25.1159 119.441ZM17.4027 117.679L17.3871 117.747C17.2056 118.618 17.331 119.525 17.742 120.314C18.153 121.102 18.8242 121.723 19.6414 122.071C20.4585 122.419 21.3711 122.473 22.2236 122.222C23.0761 121.972 23.816 121.433 24.3172 120.698C24.8183 119.963 25.0498 119.077 24.9722 118.19C24.8947 117.304 24.5128 116.472 23.8917 115.837C23.2706 115.201 22.4486 114.801 21.5657 114.705C20.6828 114.608 19.7936 114.822 19.0495 115.308C18.2134 115.852 17.6226 116.702 17.4032 117.676L17.4027 117.679Z" fill="black"/>
    <path d="M99.457 128.289H50.8997C50.8689 128.289 50.8393 128.276 50.8175 128.255C50.7957 128.233 50.7834 128.203 50.7834 128.173C50.7834 128.142 50.7957 128.112 50.8175 128.091C50.8393 128.069 50.8689 128.057 50.8997 128.057H99.457C99.4878 128.057 99.5174 128.069 99.5392 128.091C99.561 128.112 99.5732 128.142 99.5732 128.173C99.5732 128.203 99.561 128.233 99.5392 128.255C99.5174 128.276 99.4878 128.289 99.457 128.289Z" fill="black"/>
    <path d="M140.287 125.319H91.7295C91.6987 125.319 91.6691 125.307 91.6473 125.285C91.6255 125.263 91.6133 125.234 91.6133 125.203C91.6133 125.172 91.6255 125.143 91.6473 125.121C91.6691 125.099 91.6987 125.087 91.7295 125.087H140.287C140.318 125.087 140.347 125.099 140.369 125.121C140.391 125.143 140.403 125.172 140.403 125.203C140.403 125.234 140.391 125.263 140.369 125.285C140.347 125.307 140.318 125.319 140.287 125.319Z" fill="black"/>
    <path d="M70.1337 132H21.5765C21.5456 132 21.5161 131.988 21.4943 131.966C21.4725 131.944 21.4602 131.915 21.4602 131.884C21.4602 131.853 21.4725 131.824 21.4943 131.802C21.5161 131.78 21.5456 131.768 21.5765 131.768H70.1337C70.1646 131.768 70.1941 131.78 70.2159 131.802C70.2377 131.824 70.25 131.853 70.25 131.884C70.25 131.915 70.2377 131.944 70.2159 131.966C70.1941 131.988 70.1646 132 70.1337 132Z" fill="black"/>
</svg>
