<svg width="288" height="258" viewBox="0 0 288 258" fill="none" xmlns="http://www.w3.org/2000/svg">
<rect width="288" height="258" fill="#EBEBEB"/>
<path d="M173.077 168H120.162C113.026 168 107.239 162.344 107.239 155.365V103.635C107.239 96.6583 113.024 91 120.162 91H173.077C180.213 91 186 96.6557 186 103.635V155.368C186 162.344 180.215 168 173.077 168Z" fill="#C2C2C2"/>
<path d="M166.838 168H113.923C106.787 168 101 162.344 101 155.365V103.635C101 96.6583 106.785 91 113.923 91H166.838C173.974 91 179.761 96.6557 179.761 103.635V155.368C179.761 162.344 173.976 168 166.838 168Z" fill="#DDDDDD"/>
<path d="M114.871 121.184V137.816C114.871 147.001 122.484 154.444 131.878 154.444H146.99C148.034 154.444 148.88 153.617 148.88 152.596V137.814H131.881V121.184H148.88V137.814H164.001C165.044 137.814 165.891 136.987 165.891 135.966V121.181C165.891 111.997 158.277 104.553 148.883 104.553H131.878C122.487 104.556 114.871 111.999 114.871 121.184Z" fill="#EBEBEB"/>
</svg>