<svg width="504" height="38" viewBox="0 0 504 38" fill="none" xmlns="http://www.w3.org/2000/svg">
<path d="M159.482 9.26587H146.592C146.246 9.26587 145.963 9.54075 145.963 9.88127V14.2137C145.963 14.5583 146.246 14.8332 146.592 14.8332H159.482C159.828 14.8332 160.111 14.5583 160.111 14.2137V9.88127C160.111 9.54075 159.828 9.26587 159.482 9.26587Z" fill="#09BC8A"/>
<path d="M233.674 14.8333V19.8221C233.674 20.1339 233.911 20.4006 234.228 20.4334C237.095 20.7042 239.333 23.0837 239.333 25.9761H228.019V15.4528C228.019 15.1122 227.735 14.8333 227.389 14.8333H222.989C222.639 14.8333 222.359 15.1122 222.359 15.4528V25.9761C222.359 29.0531 224.893 31.5475 228.019 31.5475H244.363C244.713 31.5475 244.992 31.2686 244.992 30.928V25.9761C244.992 19.8221 239.925 14.8333 233.674 14.8333Z" fill="#09BC8A"/>
<path d="M247.189 9.26587H239.329C236.204 9.26587 233.67 11.7562 233.67 14.8332H247.189C247.539 14.8332 247.818 14.5583 247.818 14.2137V9.88127C247.818 9.54075 247.539 9.26587 247.189 9.26587Z" fill="#09BC8A"/>
<path d="M311.054 25.9761V15.4528C311.054 15.1122 310.77 14.8333 310.425 14.8333H306.024C305.678 14.8333 305.395 15.1122 305.395 15.4528V25.9761C305.395 29.0531 307.928 31.5475 311.054 31.5475H321.743C322.089 31.5475 322.372 31.2686 322.372 30.928V25.9761H311.054Z" fill="#09BC8A"/>
<path d="M57.6267 0.908691H53.226C52.8759 0.908691 52.5967 1.18767 52.5967 1.52819V5.86062C52.5967 6.20114 52.8759 6.48012 53.226 6.48012H57.6267C57.9726 6.48012 58.256 6.20114 58.256 5.86062V1.52819C58.256 1.18767 57.9726 0.908691 57.6267 0.908691Z" fill="#09BC8A"/>
<path d="M282.128 0.908691H277.727C277.382 0.908691 277.098 1.18767 277.098 1.52819V5.86062C277.098 6.20114 277.382 6.48012 277.727 6.48012H282.128C282.478 6.48012 282.757 6.20114 282.757 5.86062V1.52819C282.757 1.18767 282.478 0.908691 282.128 0.908691Z" fill="#09BC8A"/>
<path d="M293.447 31.5475H289.046C288.7 31.5475 288.417 31.8265 288.417 32.167V36.4994C288.417 36.8399 288.7 37.1189 289.046 37.1189H293.447C293.797 37.1189 294.076 36.8399 294.076 36.4994V32.167C294.076 31.8265 293.797 31.5475 293.447 31.5475Z" fill="#09BC8A"/>
<path d="M404.974 9.01565L404.983 9.00745H399.944C399.594 9.00745 399.315 9.28643 399.315 9.62695V14.5871H404.974V20.1585H399.315V14.5871H394.285C393.935 14.5871 393.656 14.8661 393.656 15.2066V20.1585C393.656 23.2355 396.19 25.7299 399.315 25.7299H404.97C408.096 25.7299 410.63 23.2355 410.63 20.1585V14.5871C410.63 11.5101 408.1 9.01565 404.974 9.01565Z" fill="#09BC8A"/>
<path d="M72.4002 9.00745H66.7409C63.6153 9.00745 61.0815 11.5019 61.0815 14.5789V20.1503C61.0815 23.2273 63.6153 25.7217 66.7409 25.7217L61.5275 30.8542C61.2816 31.0962 61.2816 31.486 61.5275 31.728L64.6405 34.7927C64.8864 35.0307 65.2864 35.0307 65.5323 34.7927L70.7499 29.6603C71.8042 28.6182 72.4002 27.2069 72.4002 25.734V20.1544H66.7409V14.583H72.4002V20.1544H77.4302C77.7761 20.1544 78.0595 19.8754 78.0595 19.5349V14.583C78.0595 11.506 75.5257 9.01155 72.4002 9.01155V9.00745Z" fill="#09BC8A"/>
<path d="M196.897 9.00745H191.237C188.112 9.00745 185.578 11.5019 185.578 14.5789V20.1503C185.578 23.2273 188.112 25.7217 191.237 25.7217L186.024 30.8542C185.778 31.0962 185.778 31.486 186.024 31.728L189.141 34.7927C189.387 35.0307 189.783 35.0307 190.029 34.7927L195.246 29.6603C196.305 28.6182 196.897 27.2069 196.897 25.734V20.1544H191.237V14.583H196.897V20.1544H201.927C202.273 20.1544 202.556 19.8754 202.556 19.5349V14.583C202.556 11.506 200.022 9.01155 196.897 9.01155V9.00745Z" fill="#09BC8A"/>
<path d="M424.774 9.00745H419.114C415.989 9.00745 413.455 11.5019 413.455 14.5789V20.1503C413.455 23.2273 415.989 25.7217 419.114 25.7217L413.901 30.8542C413.655 31.0962 413.655 31.486 413.901 31.728L417.018 34.7927C417.264 35.0307 417.66 35.0307 417.906 34.7927L423.123 29.6603C424.178 28.6182 424.774 27.2069 424.774 25.734V20.1544H419.114V14.583H424.774V20.1544H429.804C430.15 20.1544 430.433 19.8754 430.433 19.5349V14.583C430.433 11.506 427.899 9.01155 424.774 9.01155V9.00745Z" fill="#09BC8A"/>
<path d="M142.504 3.69446H138.103C137.757 3.69446 137.474 3.96934 137.474 4.31396V25.3566C137.474 25.7012 137.757 25.9761 138.103 25.9761H142.504C142.854 25.9761 143.133 25.7012 143.133 25.3566V4.31396C143.133 3.96934 142.854 3.69446 142.504 3.69446Z" fill="#09BC8A"/>
<path d="M492.681 9.26589H489.852V9.24947L495.065 4.11703C495.311 3.87497 495.311 3.48522 495.065 3.24316L491.952 0.178466C491.706 -0.0594887 491.306 -0.0594887 491.06 0.178466L485.847 5.31501C484.788 6.35709 484.192 7.76841 484.192 9.24127V14.2178C484.192 14.5583 484.476 14.8373 484.822 14.8373H492.681C495.807 14.8373 498.341 17.3317 498.341 20.4046H478.537V4.31396C478.537 3.96934 478.254 3.69446 477.908 3.69446H473.507C473.157 3.69446 472.878 3.96934 472.878 4.31396V20.4046C472.878 23.4816 475.412 25.9761 478.537 25.9761H503.371C503.717 25.9761 504 25.7012 504 25.3566V20.4046C504 14.2547 498.932 9.26589 492.681 9.26589Z" fill="#09BC8A"/>
<path d="M469.415 14.8333H465.014C464.668 14.8333 464.385 15.1122 464.385 15.4528V25.9761L459.171 31.1086C458.925 31.3506 458.925 31.7445 459.171 31.9865L462.288 35.0471C462.534 35.2892 462.93 35.2892 463.176 35.0471L468.394 29.9106C469.452 28.8685 470.044 27.4572 470.044 25.9843V15.4528C470.044 15.1122 469.765 14.8333 469.415 14.8333Z" fill="#09BC8A"/>
<path d="M208.207 9.26587H206.007C205.661 9.26587 205.382 9.54075 205.382 9.88127V14.2137C205.382 14.5583 205.661 14.8332 206.007 14.8332H208.207C211.333 14.8332 213.866 17.3276 213.866 20.4046H204.761C204.415 20.4046 204.131 20.6836 204.131 21.0241V25.3566C204.131 25.7012 204.415 25.9761 204.761 25.9761H218.896C219.246 25.9761 219.526 25.7012 219.526 25.3566V20.4046C219.526 14.2506 214.458 9.26587 208.207 9.26587Z" fill="#09BC8A"/>
<path d="M380.137 0.908691H390.197C390.543 0.908691 390.826 1.18767 390.826 1.52819V5.86062C390.826 6.20114 390.543 6.48012 390.197 6.48012H380.137C379.791 6.48012 379.507 6.20114 379.507 5.86062V1.52819C379.507 1.18767 379.791 0.908691 380.137 0.908691Z" fill="#09BC8A"/>
<path d="M95.8165 3.69446H85.7606C85.4131 3.69446 85.1313 3.97182 85.1313 4.31396V8.64638C85.1313 8.98853 85.4131 9.26589 85.7606 9.26589H95.8165C96.1641 9.26589 96.4458 8.98853 96.4458 8.64638V4.31396C96.4458 3.97182 96.1641 3.69446 95.8165 3.69446Z" fill="#09BC8A"/>
<path d="M40.6486 28.7618H30.5927C30.2451 28.7618 29.9634 29.0392 29.9634 29.3813V33.7138C29.9634 34.0559 30.2451 34.3333 30.5927 34.3333H40.6486C40.9961 34.3333 41.2778 34.0559 41.2778 33.7138V29.3813C41.2778 29.0392 40.9961 28.7618 40.6486 28.7618Z" fill="#09BC8A"/>
<path d="M272.393 28.7618H262.333C261.985 28.7618 261.704 29.0392 261.704 29.3813V33.7138C261.704 34.0559 261.985 34.3333 262.333 34.3333H272.393C272.741 34.3333 273.022 34.0559 273.022 33.7138V29.3813C273.022 29.0392 272.741 28.7618 272.393 28.7618Z" fill="#09BC8A"/>
<path d="M301.936 28.7618H289.046C288.699 28.7618 288.417 29.0392 288.417 29.3813V33.7138C288.417 34.0559 288.699 34.3333 289.046 34.3333H301.936C302.284 34.3333 302.565 34.0559 302.565 33.7138V29.3813C302.565 29.0392 302.284 28.7618 301.936 28.7618Z" fill="#09BC8A"/>
<path d="M390.197 9.26178H385.796C385.45 9.26178 385.171 9.54077 385.171 9.88129V20.4046H377.986C378.949 18.7636 379.512 16.864 379.512 14.8332V9.88129C379.512 9.54077 379.233 9.26178 378.882 9.26178H364.822C361.696 9.26178 359.162 11.7562 359.162 14.8332V20.4046H353.503V4.30986C353.503 3.96934 353.224 3.69446 352.874 3.69446H348.473C348.127 3.69446 347.844 3.96934 347.844 4.30986V20.4046C347.844 23.4816 350.378 25.9761 353.503 25.9761H364.192C364.538 25.9761 364.822 25.6971 364.822 25.3566V14.8332H373.852C373.852 17.7256 371.615 20.1051 368.752 20.3759C368.435 20.4087 368.197 20.6754 368.197 20.9872V25.3566C368.197 25.6971 368.477 25.9761 368.822 25.9761H385.171C388.292 25.9761 390.826 23.4816 390.826 20.4046V9.88129C390.826 9.54077 390.547 9.26178 390.197 9.26178Z" fill="#09BC8A"/>
<path d="M272.397 9.26184H267.997C267.651 9.26184 267.367 9.54082 267.367 9.88134V20.4047H258.878V15.4528C258.878 15.1123 258.599 14.8333 258.249 14.8333H253.848C253.502 14.8333 253.219 15.1123 253.219 15.4528V25.9761L248.006 31.1086C247.76 31.3506 247.76 31.7445 248.006 31.9865L251.123 35.0471C251.369 35.2892 251.765 35.2892 252.011 35.0471L257.228 29.9106C258.287 28.8685 258.878 27.4572 258.878 25.9843V23.5022C258.878 24.8684 260.004 25.9761 261.396 25.9761H267.367C270.493 25.9761 273.027 23.4817 273.027 20.4047V9.88134C273.027 9.54082 272.743 9.26184 272.397 9.26184Z" fill="#09BC8A"/>
<path d="M461.555 20.4046V25.3566C461.555 25.7012 461.272 25.9761 460.926 25.9761H441.435C440.047 25.9761 438.922 24.8683 438.922 23.5022V25.9843C438.922 27.4571 438.326 28.8685 437.267 29.9105L432.054 35.0471C431.808 35.2891 431.408 35.2891 431.162 35.0471L428.049 31.9865C427.803 31.7444 427.803 31.3506 428.049 31.1085L433.263 25.9761V15.4527C433.263 15.1122 433.542 14.8332 433.892 14.8332H438.293C438.638 14.8332 438.922 15.1122 438.922 15.4527V20.4046H455.896C455.896 17.3317 453.362 14.8373 450.236 14.8373H442.377C442.031 14.8373 441.747 14.5583 441.747 14.2178V5.95913C441.747 4.48627 442.343 3.07495 443.402 2.03287L444.531 0.916947L446.198 2.55802L448.615 0.178466C448.861 -0.0594887 449.261 -0.0594887 449.507 0.178466L452.62 3.24316C452.866 3.48522 452.866 3.87497 452.62 4.11703L447.407 9.24947V9.26589H450.236C456.487 9.26589 461.555 14.2547 461.555 20.4046Z" fill="#09BC8A"/>
<path d="M343.356 10.8987C342.339 9.88949 340.918 9.26589 339.359 9.26589H333.7C332.141 9.26589 330.72 9.88949 329.699 10.8987C328.674 11.8998 328.04 13.2988 328.04 14.8332V20.4046H322.373V4.31396C322.373 3.97344 322.089 3.69446 321.743 3.69446H317.343C316.997 3.69446 316.713 3.97344 316.713 4.31396V20.4046C316.713 23.4816 319.247 25.9761 322.373 25.9761H331.183C332.574 25.9761 333.7 24.8683 333.7 23.5022V25.9761H339.359C340.918 25.9761 342.339 25.3525 343.356 24.3432C344.381 23.3381 345.014 21.939 345.014 20.4046V14.8332C345.014 13.2988 344.381 11.8998 343.356 10.8987ZM339.359 20.4046H333.7V14.8332H339.359V20.4046Z" fill="#09BC8A"/>
<path d="M302.565 9.88134V20.4047C302.565 23.4817 300.031 25.9761 296.906 25.9761H288.104C286.712 25.9761 285.587 24.8684 285.587 23.5022V25.9761H276.481C276.135 25.9761 275.852 25.7012 275.852 25.3566V21.0242C275.852 20.6837 276.135 20.4047 276.481 20.4047H285.587C285.587 17.3277 283.053 14.8333 279.928 14.8333H277.727C277.381 14.8333 277.098 14.5584 277.098 14.2138V9.88134C277.098 9.54082 277.381 9.26184 277.727 9.26184H279.928C286.179 9.26184 291.246 14.2507 291.246 20.4047H296.906V9.88134C296.906 9.54082 297.185 9.26184 297.535 9.26184H301.936C302.282 9.26184 302.565 9.54082 302.565 9.88134Z" fill="#09BC8A"/>
<path d="M182.748 4.31396V20.4046C182.748 23.4816 180.215 25.9761 177.089 25.9761H168.288C167.933 25.9761 167.596 25.9022 167.292 25.7709C166.396 25.3935 165.77 24.5196 165.77 23.5022V25.9761H146.592C146.246 25.9761 145.963 25.7012 145.963 25.3566V21.0241C145.963 20.6836 146.246 20.4046 146.592 20.4046H165.77V15.4486C165.77 15.1081 166.05 14.8332 166.4 14.8332H170.801C171.146 14.8332 171.43 15.1081 171.43 15.4486V20.4046H177.089V4.31396C177.089 3.97344 177.368 3.69446 177.718 3.69446H182.119C182.465 3.69446 182.748 3.97344 182.748 4.31396Z" fill="#09BC8A"/>
<path d="M134.649 4.31396V20.4046C134.649 23.4816 132.115 25.9761 128.989 25.9761H120.188C119.834 25.9761 119.496 25.9022 119.192 25.7709C118.296 25.3935 117.671 24.5196 117.671 23.5022V25.9761H97.5463C96.1586 25.9761 95.0334 24.8683 95.0334 23.5022V25.9761H89.0615C87.6696 25.9761 86.5444 24.8683 86.5444 23.5022V25.9843C86.5444 27.4571 85.9527 28.8685 84.8941 29.9105L79.6766 35.0471C79.4307 35.2891 79.0348 35.2891 78.7889 35.0471L75.6717 31.9865C75.4258 31.7444 75.4258 31.3506 75.6717 31.1085L80.8851 25.9761V15.4527C80.8851 15.1122 81.1685 14.8332 81.5144 14.8332H85.9152C86.2652 14.8332 86.5444 15.1122 86.5444 15.4527V20.4046H95.0334V15.4527C95.0334 15.1122 95.3126 14.8332 95.6627 14.8332H100.063C100.409 14.8332 100.693 15.1122 100.693 15.4527V20.4046H117.671C117.671 17.3317 115.137 14.8373 112.011 14.8373H104.152C103.806 14.8373 103.522 14.5583 103.522 14.2178V9.24127C103.522 7.76841 104.118 6.35709 105.177 5.31501L110.39 0.178466C110.636 -0.0594887 111.036 -0.0594887 111.282 0.178466L114.395 3.24316C114.641 3.48522 114.641 3.87497 114.395 4.11703L109.182 9.24947V9.26589H112.011C118.262 9.26589 123.33 14.2547 123.33 20.4046H128.989V4.31396C128.989 3.97344 129.269 3.69446 129.619 3.69446H134.019C134.365 3.69446 134.649 3.97344 134.649 4.31396Z" fill="#09BC8A"/>
<path d="M57.6225 9.26178H53.2259C52.8758 9.26178 52.5925 9.54076 52.5925 9.88539V20.4046H46.9415V15.4568C46.9415 15.1122 46.6581 14.8332 46.308 14.8332H41.9114C41.5655 14.8332 41.2822 15.1122 41.2822 15.4527V20.4046H35.6229C35.6229 14.2547 30.5511 9.26589 24.3001 9.26589H21.4704V9.24947L26.6838 4.11703C26.9297 3.87497 26.9297 3.48522 26.6838 3.24316L23.5708 0.178466C23.3291 -0.0594887 22.929 -0.0594887 22.6831 0.178466L17.4614 5.31911C16.4028 6.36119 15.8111 7.76841 15.8111 9.24127V14.2178C15.8111 14.5583 16.0945 14.8373 16.4404 14.8373H24.3001C27.4256 14.8373 29.9594 17.3317 29.9594 20.4046H9.11825C8.77236 20.4046 8.48897 20.6836 8.48897 21.0241V25.3566C8.48897 25.6971 8.77236 25.9761 9.11825 25.9761H15.8111C17.3738 25.9761 18.6407 27.2233 18.6407 28.7618H5.65932V18.2384C5.65932 17.8979 5.37593 17.6189 5.03004 17.6189H0.629276C0.283383 17.6189 0 17.8979 0 18.2384V28.7618C0 31.8388 2.53377 34.3332 5.65932 34.3332H23.6708C24.0167 34.3332 24.3001 34.0542 24.3001 33.7137V28.7618C24.3001 27.7443 24.0208 26.7966 23.5374 25.9761H29.9594V23.5022C29.9594 24.8683 31.0887 25.9761 32.4806 25.9761H41.2822V23.5022C41.2822 24.8683 42.4074 25.9761 43.7951 25.9761H52.5925C55.718 25.9761 58.2518 23.4816 58.2518 20.4046V9.88129C58.2518 9.54076 57.9684 9.26178 57.6225 9.26178Z" fill="#09BC8A"/>
</svg>
