<svg width="661" height="44" viewBox="0 0 661 44" fill="none" xmlns="http://www.w3.org/2000/svg">
<path d="M19.2487 2.8L19.2487 7.6L7.72874 7.6L7.72874 15.76L18.2887 15.76L18.2887 20.56L7.72874 20.56L7.72874 29.2L19.2487 29.2L19.2487 34L0.0487443 34L0.0487439 2.8L19.2487 2.8ZM38.2125 24.4L21.4125 24.4L21.4125 19.6L38.2125 19.6L38.2125 24.4ZM53.0887 20.56L50.6887 20.56L50.6887 15.76L60.7687 15.76L60.7687 34L45.8887 34C44.5447 34 43.4087 33.536 42.4807 32.608C41.5527 31.68 41.0887 30.544 41.0887 29.2L41.0887 7.6C41.0887 6.256 41.5527 5.12 42.4807 4.192C43.4087 3.264 44.5447 2.8 45.8887 2.8L60.2887 2.8L60.2887 7.6L49.2967 7.6C48.9447 7.6 48.7687 7.76 48.7687 8.08L48.7687 28.576C48.7687 28.992 48.9927 29.2 49.4407 29.2L53.0887 29.2L53.0887 20.56ZM76.3556 10C77.6996 10 78.8356 10.464 79.7636 11.392C80.6916 12.32 81.1556 13.456 81.1556 14.8L81.1556 29.2C81.1556 30.544 80.6916 31.68 79.7636 32.608C78.8356 33.536 77.6996 34 76.3556 34L67.7156 34C66.3716 34 65.2356 33.536 64.3076 32.608C63.3796 31.68 62.9156 30.544 62.9156 29.2L62.9156 14.8C62.9156 13.456 63.3796 12.32 64.3076 11.392C65.2356 10.464 66.3716 10 67.7156 10L76.3556 10ZM72.9956 14.8L71.0756 14.8C70.7556 14.8 70.5956 14.96 70.5956 15.28L70.5956 28.72C70.5956 29.04 70.7556 29.2 71.0756 29.2L72.9956 29.2C73.3156 29.2 73.4756 29.04 73.4756 28.72L73.4756 15.28C73.4756 14.96 73.3156 14.8 72.9956 14.8ZM82.3762 10L89.8162 10L93.4162 26.8L97.0162 10L104.456 10L98.4562 34L88.3762 34L82.3762 10ZM105.643 29.2L105.643 14.8C105.643 13.456 106.107 12.32 107.035 11.392C107.963 10.464 109.099 10 110.443 10L119.083 10C120.427 10 121.563 10.464 122.491 11.392C123.419 12.32 123.883 13.456 123.883 14.8L123.883 20.56C123.883 21.904 123.419 23.04 122.491 23.968C121.563 24.896 120.427 25.36 119.083 25.36L113.323 25.36L113.323 28.528C113.323 28.976 113.547 29.2 113.995 29.2L122.443 29.2L122.443 34L110.443 34C109.099 34 107.963 33.536 107.035 32.608C106.107 31.68 105.643 30.544 105.643 29.2ZM115.723 14.8L113.803 14.8C113.483 14.8 113.323 14.96 113.323 15.28L113.323 20.56L115.723 20.56C116.043 20.56 116.203 20.4 116.203 20.08L116.203 15.28C116.203 14.96 116.043 14.8 115.723 14.8ZM133.708 16.72L133.708 34L126.028 34L126.028 10L132.268 10L133.132 12.88C133.484 12.016 134.06 11.328 134.86 10.816C135.66 10.272 136.556 10 137.548 10L141.388 10L141.388 14.8L135.628 14.8C135.084 14.8 134.62 14.992 134.236 15.376C133.884 15.728 133.708 16.176 133.708 16.72ZM150.994 15.28L150.994 34L143.314 34L143.314 10L149.554 10L150.418 12.88C150.77 12.016 151.346 11.328 152.146 10.816C152.946 10.272 153.842 10 154.834 10L156.754 10C158.098 10 159.234 10.464 160.162 11.392C161.09 12.32 161.554 13.456 161.554 14.8L161.554 34L153.874 34L153.874 15.28C153.874 14.96 153.714 14.8 153.394 14.8L151.474 14.8C151.154 14.8 150.994 14.96 150.994 15.28ZM171.889 15.28L171.889 34L164.209 34L164.209 10L170.449 10L171.313 12.88C171.665 12.016 172.241 11.328 173.041 10.816C173.841 10.272 174.737 10 175.729 10L177.553 10C178.481 10 179.313 10.24 180.049 10.72C180.817 11.2 181.425 11.856 181.873 12.688C182.257 11.856 182.833 11.2 183.601 10.72C184.369 10.24 185.233 10 186.193 10L188.209 10C189.553 10 190.689 10.464 191.617 11.392C192.545 12.32 193.009 13.456 193.009 14.8L193.009 34L185.329 34L185.329 15.28C185.329 14.96 185.169 14.8 184.849 14.8L182.929 14.8C182.609 14.8 182.449 14.96 182.449 15.28L182.449 34L174.769 34L174.769 15.28C174.769 14.96 174.609 14.8 174.289 14.8L172.369 14.8C172.049 14.8 171.889 14.96 171.889 15.28ZM195.411 29.2L195.411 14.8C195.411 13.456 195.875 12.32 196.803 11.392C197.731 10.464 198.867 10 200.211 10L208.851 10C210.195 10 211.331 10.464 212.259 11.392C213.187 12.32 213.651 13.456 213.651 14.8L213.651 20.56C213.651 21.904 213.187 23.04 212.259 23.968C211.331 24.896 210.195 25.36 208.851 25.36L203.091 25.36L203.091 28.528C203.091 28.976 203.315 29.2 203.763 29.2L212.211 29.2L212.211 34L200.211 34C198.867 34 197.731 33.536 196.803 32.608C195.875 31.68 195.411 30.544 195.411 29.2ZM205.491 14.8L203.571 14.8C203.251 14.8 203.091 14.96 203.091 15.28L203.091 20.56L205.491 20.56C205.811 20.56 205.971 20.4 205.971 20.08L205.971 15.28C205.971 14.96 205.811 14.8 205.491 14.8ZM223.476 15.28L223.476 34L215.796 34L215.796 10L222.036 10L222.9 12.88C223.252 12.016 223.828 11.328 224.628 10.816C225.428 10.272 226.324 10 227.316 10L229.236 10C230.58 10 231.716 10.464 232.644 11.392C233.572 12.32 234.036 13.456 234.036 14.8L234.036 34L226.356 34L226.356 15.28C226.356 14.96 226.196 14.8 225.876 14.8L223.956 14.8C223.636 14.8 223.476 14.96 223.476 15.28ZM250.131 10L250.131 14.8L245.811 14.8L245.811 28.72C245.811 29.04 245.971 29.2 246.291 29.2L250.131 29.2L250.131 34L242.931 34C241.587 34 240.451 33.536 239.523 32.608C238.595 31.68 238.131 30.544 238.131 29.2L238.131 14.8L235.731 14.8L235.731 10L238.131 10L238.131 3.28L245.811 3.28L245.811 10L250.131 10ZM269.098 10L269.098 34L261.418 34L261.418 10L269.098 10ZM269.098 0.879994L269.098 6.15999L261.418 6.15999L261.418 0.879994L269.098 0.879994ZM279.681 15.28L279.681 34L272.001 34L272.001 10L278.241 10L279.105 12.88C279.457 12.016 280.033 11.328 280.833 10.816C281.633 10.272 282.529 10 283.521 10L285.441 10C286.785 10 287.921 10.464 288.849 11.392C289.777 12.32 290.241 13.456 290.241 14.8L290.241 34L282.561 34L282.561 15.28C282.561 14.96 282.401 14.8 282.081 14.8L280.161 14.8C279.841 14.8 279.681 14.96 279.681 15.28ZM306.336 10L306.336 14.8L302.016 14.8L302.016 28.72C302.016 29.04 302.176 29.2 302.496 29.2L306.336 29.2L306.336 34L299.136 34C297.792 34 296.656 33.536 295.728 32.608C294.8 31.68 294.336 30.544 294.336 29.2L294.336 14.8L291.936 14.8L291.936 10L294.336 10L294.336 3.27999L302.016 3.27999L302.016 10L306.336 10ZM308.254 29.2L308.254 14.8C308.254 13.456 308.718 12.32 309.646 11.392C310.574 10.464 311.71 10 313.054 10L321.694 10C323.038 10 324.174 10.464 325.102 11.392C326.03 12.32 326.494 13.456 326.494 14.8L326.494 20.56C326.494 21.904 326.03 23.04 325.102 23.968C324.174 24.896 323.038 25.36 321.694 25.36L315.934 25.36L315.934 28.528C315.934 28.976 316.158 29.2 316.606 29.2L325.054 29.2L325.054 34L313.054 34C311.71 34 310.574 33.536 309.646 32.608C308.718 31.68 308.254 30.544 308.254 29.2ZM318.334 14.8L316.414 14.8C316.094 14.8 315.934 14.96 315.934 15.28L315.934 20.56L318.334 20.56C318.654 20.56 318.814 20.4 318.814 20.08L318.814 15.28C318.814 14.96 318.654 14.8 318.334 14.8ZM336.319 16.72L336.319 34L328.639 34L328.639 10L334.879 10L335.743 12.88C336.095 12.016 336.671 11.328 337.471 10.816C338.271 10.272 339.167 10 340.159 10L343.999 10L343.999 14.8L338.239 14.8C337.695 14.8 337.231 14.992 336.847 15.376C336.495 15.728 336.319 16.176 336.319 16.72ZM363.444 34L357.204 34L356.34 31.12C355.988 31.984 355.412 32.688 354.612 33.232C353.812 33.744 352.916 34 351.924 34L350.004 34C348.66 34 347.524 33.536 346.596 32.608C345.668 31.68 345.204 30.544 345.204 29.2L345.204 24.4C345.204 23.056 345.668 21.92 346.596 20.992C347.524 20.064 348.66 19.6 350.004 19.6L355.764 19.6L355.764 15.472C355.764 15.024 355.54 14.8 355.092 14.8L346.644 14.8L346.644 10L358.644 10C359.988 10 361.124 10.464 362.052 11.392C362.98 12.32 363.444 13.456 363.444 14.8L363.444 34ZM353.364 29.2L355.284 29.2C355.604 29.2 355.764 29.04 355.764 28.72L355.764 24.4L353.364 24.4C353.044 24.4 352.884 24.56 352.884 24.88L352.884 28.72C352.884 29.04 353.044 29.2 353.364 29.2ZM373.509 15.28L373.509 28.576C373.509 28.992 373.701 29.2 374.085 29.2L382.389 29.2L382.389 34L370.629 34C369.285 34 368.149 33.536 367.221 32.608C366.293 31.68 365.829 30.544 365.829 29.2L365.829 14.8C365.829 13.456 366.293 12.32 367.221 11.392C368.149 10.464 369.285 10 370.629 10L382.389 10L382.389 14.8L373.989 14.8C373.669 14.8 373.509 14.96 373.509 15.28ZM397.732 10L397.732 14.8L393.412 14.8L393.412 28.72C393.412 29.04 393.572 29.2 393.892 29.2L397.732 29.2L397.732 34L390.532 34C389.188 34 388.052 33.536 387.124 32.608C386.196 31.68 385.732 30.544 385.732 29.2L385.732 14.8L383.332 14.8L383.332 10L385.732 10L385.732 3.27999L393.412 3.27999L393.412 10L397.732 10ZM407.571 10L407.571 34L399.891 34L399.891 10L407.571 10ZM407.571 0.879993L407.571 6.15999L399.891 6.15999L399.891 0.879993L407.571 0.879993ZM409.033 10L416.473 10L420.073 26.8L423.673 10L431.113 10L425.113 34L415.033 34L409.033 10ZM440.22 10L440.22 34L432.54 34L432.54 10L440.22 10ZM440.22 0.879992L440.22 6.15999L432.54 6.15999L432.54 0.879992L440.22 0.879992ZM456.563 9.99999L456.563 14.8L452.243 14.8L452.243 28.72C452.243 29.04 452.403 29.2 452.723 29.2L456.563 29.2L456.563 34L449.363 34C448.019 34 446.883 33.536 445.955 32.608C445.027 31.68 444.563 30.544 444.563 29.2L444.563 14.8L442.163 14.8L442.163 9.99999L444.563 9.99999L444.563 3.27999L452.243 3.27999L452.243 9.99999L456.563 9.99999ZM469.041 37.84L469.041 32.56C468.881 33.008 468.593 33.36 468.177 33.616C467.761 33.872 467.313 34 466.833 34L463.281 34C461.937 34 460.801 33.536 459.873 32.608C458.945 31.68 458.481 30.544 458.481 29.2L458.481 9.99999L466.161 9.99999L466.161 28.72C466.161 29.04 466.321 29.2 466.641 29.2L468.561 29.2C468.881 29.2 469.041 29.04 469.041 28.72L469.041 9.99999L476.721 9.99999L476.721 38.32C476.721 39.664 476.257 40.8 475.329 41.728C474.401 42.656 473.265 43.12 471.921 43.12L459.921 43.12L459.921 38.32L468.561 38.32C468.881 38.32 469.041 38.16 469.041 37.84ZM494.265 34L494.265 7.59999L487.545 7.59999L487.545 2.79999L508.665 2.79999L508.665 7.59999L501.945 7.59999L501.945 34L494.265 34ZM527.863 34L521.623 34L520.759 31.12C520.407 31.984 519.831 32.688 519.031 33.232C518.231 33.744 517.335 34 516.343 34L514.423 34C513.079 34 511.943 33.536 511.015 32.608C510.087 31.68 509.623 30.544 509.623 29.2L509.623 24.4C509.623 23.056 510.087 21.92 511.015 20.992C511.943 20.064 513.079 19.6 514.423 19.6L520.183 19.6L520.183 15.472C520.183 15.024 519.959 14.8 519.511 14.8L511.063 14.8L511.063 9.99999L523.063 9.99999C524.407 9.99999 525.543 10.464 526.471 11.392C527.399 12.32 527.863 13.456 527.863 14.8L527.863 34ZM517.783 29.2L519.703 29.2C520.023 29.2 520.183 29.04 520.183 28.72L520.183 24.4L517.783 24.4C517.463 24.4 517.303 24.56 517.303 24.88L517.303 28.72C517.303 29.04 517.463 29.2 517.783 29.2ZM539.848 28.528L539.848 24.88C539.848 24.56 539.688 24.4 539.368 24.4L534.568 24.4C533.224 24.4 532.088 23.936 531.16 23.008C530.232 22.08 529.768 20.944 529.768 19.6L529.768 14.8C529.768 13.456 530.232 12.32 531.16 11.392C532.088 10.464 533.224 9.99999 534.568 9.99999L546.568 9.99999L546.568 14.8L537.496 14.8C537.144 14.8 536.968 14.96 536.968 15.28L536.968 18.976C536.968 19.392 537.192 19.6 537.64 19.6L542.728 19.6C544.072 19.6 545.208 20.064 546.136 20.992C547.064 21.92 547.528 23.056 547.528 24.4L547.528 29.2C547.528 30.544 547.064 31.68 546.136 32.608C545.208 33.536 544.072 34 542.728 34L530.248 34L530.248 29.2L539.176 29.2C539.624 29.2 539.848 28.976 539.848 28.528ZM569.376 34L561.936 34L558.576 24.4L557.376 24.4L557.376 34L549.696 34L549.696 0.879991L557.376 0.879991L557.376 19.6L560.256 19.6C560.576 19.6 560.736 19.44 560.736 19.12L560.736 9.99999L568.416 9.99999L568.416 22C568.416 22.672 568.176 23.248 567.696 23.728C567.248 24.176 566.688 24.4 566.016 24.4L565.536 24.4L569.376 34ZM584.968 14.8L581.128 14.8L581.128 34L573.448 34L573.448 14.8L570.568 14.8L570.568 9.99999L573.448 9.99999L573.448 5.67999C573.448 4.33599 573.912 3.19999 574.84 2.27199C575.768 1.34399 576.904 0.879991 578.248 0.879991L584.968 0.879991L584.968 5.67999L581.608 5.67999C581.288 5.67999 581.128 5.83999 581.128 6.15999L581.128 9.99999L584.968 9.99999L584.968 14.8ZM599.717 9.99999C601.061 9.99999 602.197 10.464 603.125 11.392C604.053 12.32 604.517 13.456 604.517 14.8L604.517 29.2C604.517 30.544 604.053 31.68 603.125 32.608C602.197 33.536 601.061 34 599.717 34L591.077 34C589.733 34 588.597 33.536 587.669 32.608C586.741 31.68 586.277 30.544 586.277 29.2L586.277 14.8C586.277 13.456 586.741 12.32 587.669 11.392C588.597 10.464 589.733 9.99999 591.077 9.99999L599.717 9.99999ZM596.357 14.8L594.437 14.8C594.117 14.8 593.957 14.96 593.957 15.28L593.957 28.72C593.957 29.04 594.117 29.2 594.437 29.2L596.357 29.2C596.677 29.2 596.837 29.04 596.837 28.72L596.837 15.28C596.837 14.96 596.677 14.8 596.357 14.8ZM614.857 16.72L614.857 34L607.177 34L607.177 9.99999L613.417 9.99999L614.281 12.88C614.633 12.016 615.209 11.328 616.009 10.816C616.809 10.272 617.705 9.99999 618.697 9.99999L622.537 9.99999L622.537 14.8L616.777 14.8C616.233 14.8 615.769 14.992 615.385 15.376C615.033 15.728 614.857 16.176 614.857 16.72ZM631.903 15.28L631.903 28.576C631.903 28.992 632.095 29.2 632.479 29.2L640.783 29.2L640.783 34L629.023 34C627.679 34 626.543 33.536 625.615 32.608C624.687 31.68 624.223 30.544 624.223 29.2L624.223 14.8C624.223 13.456 624.687 12.32 625.615 11.392C626.543 10.464 627.679 9.99999 629.023 9.99999L640.783 9.99999L640.783 14.8L632.383 14.8C632.063 14.8 631.903 14.96 631.903 15.28ZM642.446 29.2L642.446 14.8C642.446 13.456 642.91 12.32 643.838 11.392C644.766 10.464 645.902 9.99999 647.246 9.99999L655.886 9.99999C657.23 9.99999 658.366 10.464 659.294 11.392C660.222 12.32 660.686 13.456 660.686 14.8L660.686 20.56C660.686 21.904 660.222 23.04 659.294 23.968C658.366 24.896 657.23 25.36 655.886 25.36L650.126 25.36L650.126 28.528C650.126 28.976 650.35 29.2 650.798 29.2L659.246 29.2L659.246 34L647.246 34C645.902 34 644.766 33.536 643.838 32.608C642.91 31.68 642.446 30.544 642.446 29.2ZM652.526 14.8L650.606 14.8C650.286 14.8 650.126 14.96 650.126 15.28L650.126 20.56L652.526 20.56C652.846 20.56 653.006 20.4 653.006 20.08L653.006 15.28C653.006 14.96 652.846 14.8 652.526 14.8Z" fill="#09BC8A"/>
</svg>
