<svg width="48" height="44" viewBox="0 0 48 44" fill="none" xmlns="http://www.w3.org/2000/svg">
<path d="M40.7022 44H10.8207C6.79117 44 3.52295 40.7682 3.52295 36.7803V7.21974C3.52295 3.2333 6.78967 0 10.8207 0H40.7022C44.7317 0 47.9999 3.23181 47.9999 7.21974V36.7818C47.9999 40.7682 44.7332 44 40.7022 44Z" fill="#2D44AC"/>
<path d="M37.1792 44H7.29774C3.26822 44 0 40.7682 0 36.7803V7.21974C0 3.2333 3.26672 0 7.29774 0H37.1792C41.2087 0 44.4769 3.23181 44.4769 7.21974V36.7818C44.4769 40.7682 41.2102 44 37.1792 44Z" fill="#D6DBF4"/>
<path d="M7.83301 17.2477V26.7523C7.83301 32.0004 12.1324 36.2538 17.4372 36.2538H25.9711C26.5605 36.2538 27.0384 35.781 27.0384 35.1979V26.7508H17.4387V17.2477H27.0384V26.7508H35.5769C36.1663 26.7508 36.6441 26.278 36.6441 25.6949V17.2462C36.6441 11.9981 32.3448 7.7447 27.0399 7.7447H17.4372C12.1339 7.74619 7.83301 11.9996 7.83301 17.2477Z" fill="#2D44AC"/>
</svg>
