<svg width="512" height="512" viewBox="0 0 512 512" fill="none"
    xmlns="http://www.w3.org/2000/svg">
    <path d="M434.157 0H115.419C72.4272 0 37.5752 37.6122 37.5752 84.0091V427.991C37.5752 474.388 72.4272 512 115.419 512H434.157C477.15 512 512.002 474.388 512.002 427.991V84.0091C512.002 37.6122 477.15 0 434.157 0Z" fill="#2D44AC"/>
    <path d="M396.583 0H77.8441C34.852 0 0 37.6122 0 84.0091V427.991C0 474.388 34.852 512 77.8441 512H396.583C439.575 512 474.426 474.388 474.426 427.991V84.0091C474.426 37.6122 439.575 0 396.583 0Z" fill="#09BC8A"/>
    <path d="M83.5542 200.691V311.311C83.5542 372.374 129.41 421.862 185.992 421.862H277.038C283.321 421.862 288.43 416.348 288.43 409.567V311.277H186.024V200.691H288.43V311.277H379.507C385.791 311.277 390.9 305.763 390.9 298.982V200.657C390.9 139.594 345.044 90.1062 288.462 90.1062H186.024C129.442 90.1062 83.586 139.594 83.586 200.657L83.5542 200.691Z" fill="white"/>
</svg>
