<svg width="202" height="16" viewBox="0 0 202 16" fill="none" xmlns="http://www.w3.org/2000/svg">
<path d="M186.568 5.60723C186.568 4.8351 186.254 4.1311 185.746 3.62529C185.241 3.11742 184.537 2.80361 183.762 2.80361H180.956C180.183 2.80361 179.479 3.11742 178.973 3.62529C178.464 4.12903 178.15 4.83303 178.15 5.60723V8.41084C178.15 9.18297 178.464 9.88697 178.973 10.3928C179.477 10.9006 180.181 11.2145 180.956 11.2145L178.371 13.7972C178.25 13.919 178.25 14.1172 178.371 14.2369L179.917 15.777C180.039 15.8988 180.235 15.8988 180.357 15.777L182.944 13.1923C183.469 12.6679 183.762 11.9577 183.762 11.2165V9.96542C183.762 10.6529 184.32 11.2103 185.01 11.2103H199.194C200.744 11.2103 202 9.9551 202 8.40671H186.57V5.60723H186.568ZM180.958 8.41084V5.60723H183.764V8.41084H180.958ZM176.749 5.91897V11.2186C176.749 11.9597 176.454 12.6699 175.931 13.1943L173.344 15.7791C173.223 15.9009 173.026 15.9009 172.904 15.7791L171.361 14.239C171.239 14.1172 171.239 13.919 171.361 13.7992L173.946 11.2165V5.91897C173.946 5.74762 174.086 5.60723 174.258 5.60723H176.44C176.609 5.60723 176.749 5.74555 176.749 5.91897ZM172.229 11.2145H170.047C169.875 11.2145 169.735 11.0741 169.735 10.9027V0.311744C169.735 0.140389 169.873 0 170.047 0H172.229C172.4 0 172.541 0.140389 172.541 0.311744V10.9027C172.541 11.0741 172.402 11.2145 172.229 11.2145ZM202 0.311744V4.20542C202 5.75381 200.744 7.00903 199.194 7.00903H192.492C192.32 7.00903 192.18 6.86865 192.18 6.69729V4.51716C192.18 4.34581 192.32 4.20542 192.492 4.20542H199.194V0.311744C199.194 0.140389 199.333 0 199.506 0H201.688C201.86 0 202 0.140389 202 0.311744ZM154.305 0.311744V10.9027C154.305 11.0741 154.164 11.2145 153.993 11.2145H151.811C151.639 11.2145 151.499 11.0741 151.499 10.9027V0.311744C151.499 0.140389 151.639 0 151.811 0H153.993C154.166 0 154.305 0.140389 154.305 0.311744ZM56.1107 0.311744V10.9027C56.1107 11.0741 55.9702 11.2145 55.7987 11.2145H53.6168C53.4453 11.2145 53.3048 11.0741 53.3048 10.9027V0.311744C53.3048 0.140389 53.4453 0 53.6168 0H55.7987C55.9722 0 56.1107 0.140389 56.1107 0.311744ZM106.612 2.80361H103.806C102.256 2.80361 101 4.05884 101 5.60723V8.41084H98.1942V5.91897C98.1942 5.74762 98.0557 5.60723 97.8822 5.60723H95.7003C95.5288 5.60723 95.3883 5.74762 95.3883 5.91897V8.41084H89.7766V0.311744C89.7766 0.140389 89.6361 0 89.4646 0H87.2828C87.1113 0 86.9708 0.140389 86.9708 0.311744V8.41084C86.9708 9.95923 88.227 11.2145 89.7766 11.2145H95.0763C95.2478 11.2145 95.3883 11.0741 95.3883 10.9027V9.96749C95.3883 10.655 95.9462 11.2124 96.6363 11.2124H101H103.806H106.612C108.161 11.2124 109.418 9.95716 109.418 8.40878V5.60516C109.415 4.05884 108.159 2.80361 106.612 2.80361ZM106.612 8.41084H103.806V5.60723H106.612V8.41084ZM51.9019 5.60723V8.41084C51.9019 9.95923 50.6457 11.2145 49.096 11.2145H46.2902H43.4844H36.3148C35.6268 11.2145 35.0668 10.657 35.0668 9.96955V10.9048C35.0668 11.0761 34.9263 11.2165 34.7548 11.2165H32.261C30.7114 11.2165 29.4551 9.96129 29.4551 8.4129V0.313807C29.4551 0.142452 29.5956 0.00206653 29.7671 0.00206653H31.949C32.1205 0.00206653 32.261 0.142452 32.261 0.313807V8.4129H35.0668V0.313807C35.0668 0.142452 35.2073 0.00206653 35.3788 0.00206653H37.5607C37.7322 0.00206653 37.8727 0.142452 37.8727 0.313807V8.4129H43.4844H46.2902H49.096V5.60929H43.4844C41.9347 5.60929 40.6785 4.35407 40.6785 2.80568V0.313807C40.6785 0.142452 40.819 0.00206653 40.9905 0.00206653H43.1724C43.3439 0.00206653 43.4844 0.142452 43.4844 0.313807V2.80568H49.096C50.6457 2.80362 51.9019 4.05884 51.9019 5.60723ZM22.4447 5.60723V8.41084H27.7444C27.9159 8.41084 28.0564 8.55123 28.0564 8.72258V10.9027C28.0564 11.0741 27.9159 11.2145 27.7444 11.2145H20.8868C20.1988 11.2145 19.6409 10.657 19.6409 9.96955V10.9048C19.6409 11.0761 19.5004 11.2165 19.3289 11.2165H16.833C15.2834 11.2165 14.0271 9.96129 14.0271 8.4129V0.313807C14.0271 0.142452 14.1676 0.00206653 14.3391 0.00206653H16.521C16.6925 0.00206653 16.833 0.142452 16.833 0.313807V8.4129H19.6388V5.60929C19.6388 4.06091 20.8951 2.80568 22.4447 2.80568H25.2505C26.8001 2.80568 28.0564 4.06091 28.0564 5.60929H22.4447V5.60723ZM85.5699 5.60723V8.0991C85.5699 8.27045 85.4294 8.41084 85.2579 8.41084H82.7641V5.60723H79.9583V8.41084H82.7517H82.7641V11.2186C82.7641 11.9597 82.4686 12.6699 81.9459 13.1943L79.1401 15.9979L77.1545 14.016L79.9603 11.2124C78.4107 11.2124 77.1545 9.95716 77.1545 8.40878V5.60516C77.1545 4.05678 78.4107 2.80155 79.9603 2.80155H82.7662C84.3137 2.80361 85.5699 4.05884 85.5699 5.60723ZM132.951 11.2145H130.769C130.598 11.2145 130.457 11.0741 130.457 10.9027V0.311744C130.457 0.140389 130.596 0 130.769 0H132.951C133.123 0 133.263 0.140389 133.263 0.311744V10.9027C133.263 11.0741 133.125 11.2145 132.951 11.2145ZM129.054 11.5241V13.7043C129.054 13.8756 128.914 14.016 128.742 14.016H126.248H123.755C123.583 14.016 123.443 13.8756 123.443 13.7043V11.5241C123.443 11.3528 123.583 11.2124 123.755 11.2124H126.248H128.742C128.916 11.2145 129.054 11.3528 129.054 11.5241ZM0 5.29549V3.11536C0 2.944 0.140499 2.80361 0.31199 2.80361H4.20876H6.70262C6.87411 2.80361 7.01461 2.944 7.01461 3.11536V5.29549C7.01461 5.46684 6.87617 5.60723 6.70262 5.60723H4.20876H0.31199C0.140499 5.60723 0 5.46684 0 5.29549ZM150.096 12.9259V15.1061C150.096 15.2774 149.956 15.4178 149.784 15.4178H147.602C147.431 15.4178 147.29 15.2774 147.29 15.1061V12.9259C147.29 12.7546 147.431 12.6142 147.602 12.6142H149.784C149.958 12.6142 150.096 12.7546 150.096 12.9259ZM98.1942 2.49187V0.311744C98.1942 0.140389 98.3347 0 98.5062 0H100.688C100.86 0 101 0.140389 101 0.311744V2.49187C101 2.66323 100.86 2.80361 100.688 2.80361H98.5062C98.3326 2.80361 98.1942 2.66323 98.1942 2.49187ZM91.1796 2.49187V0.311744C91.1796 0.140389 91.3201 0 91.4915 0H93.6734C93.8449 0 93.9854 0.140389 93.9854 0.311744V2.49187C93.9854 2.66323 93.8449 2.80361 93.6734 2.80361H91.4915C91.3201 2.80361 91.1796 2.66323 91.1796 2.49187ZM129.054 3.11536V5.60723C129.054 7.15561 127.798 8.41084 126.248 8.41084H121.29C121.767 9.23458 122.042 10.1925 122.042 11.2145V13.7063C122.042 13.8777 121.903 14.0181 121.73 14.0181H119.236H113.624C112.075 14.0181 110.818 12.7628 110.818 11.2145V5.91897C110.818 5.74762 110.959 5.60723 111.13 5.60723H113.312C113.484 5.60723 113.624 5.74762 113.624 5.91897V11.2145H119.236C119.236 9.75897 118.124 8.56155 116.705 8.42529C116.548 8.41084 116.43 8.27458 116.43 8.11768V8.10116V5.92929V5.92103C116.43 5.74968 116.571 5.60929 116.742 5.60929H120.639H126.251V3.11742C126.251 2.94607 126.391 2.80568 126.563 2.80568H128.744C128.916 2.80362 129.054 2.94194 129.054 3.11536ZM168.332 3.11536V5.29549C168.332 5.46684 168.194 5.60723 168.02 5.60723H161.317C161.317 4.05884 162.574 2.80361 164.123 2.80361H168.02C168.194 2.80361 168.332 2.94194 168.332 3.11536ZM161.319 8.11562V5.60723C164.419 5.60723 166.931 8.11768 166.931 11.2145V13.7063C166.931 13.8777 166.791 14.0181 166.619 14.0181H164.125H158.514C156.964 14.0181 155.708 12.7628 155.708 11.2145V5.91897C155.708 5.74762 155.848 5.60723 156.02 5.60723H158.202C158.373 5.60723 158.514 5.74762 158.514 5.91897V11.2145H164.125C164.125 9.75897 163.014 8.56155 161.594 8.42529C161.437 8.40878 161.319 8.27252 161.319 8.11562ZM75.7495 5.91897V11.2186C75.7495 11.9597 75.454 12.6699 74.9313 13.1943L72.3445 15.7791C72.2226 15.9009 72.0263 15.9009 71.9044 15.7791L70.3589 14.239C70.237 14.1172 70.237 13.919 70.3589 13.7992L72.9436 11.2165V5.91897C72.9436 5.74762 73.0841 5.60723 73.2556 5.60723H75.4375C75.6111 5.60723 75.7495 5.74555 75.7495 5.91897ZM70.1378 3.11536V5.29549C70.1378 5.46684 69.9973 5.60723 69.8258 5.60723H63.1232C63.1232 4.05884 64.3794 2.80361 65.929 2.80361H69.8258C69.9994 2.80361 70.1378 2.94194 70.1378 3.11536ZM63.1253 8.11562V5.60723C66.2245 5.60723 68.7369 8.11768 68.7369 11.2145V13.7063C68.7369 13.8777 68.5965 14.0181 68.425 14.0181H65.9311H60.3194C58.7698 14.0181 57.5136 12.7628 57.5136 11.2145V5.91897C57.5136 5.74762 57.6541 5.60723 57.8256 5.60723H60.0074C60.1789 5.60723 60.3194 5.74762 60.3194 5.91897V11.2145H65.9311C65.9311 9.75897 64.8195 8.56155 63.4001 8.42529C63.243 8.40878 63.1253 8.27252 63.1253 8.11562ZM12.6242 3.11536V8.41084C12.6242 9.95923 11.368 11.2145 9.81838 11.2145H5.61169H4.20876H0.31199C0.140499 11.2145 0 11.0741 0 10.9027V8.72258C0 8.55123 0.140499 8.41084 0.31199 8.41084H4.20876H5.61169H9.82045V3.11536C9.82045 2.944 9.95888 2.80361 10.1324 2.80361H12.3143C12.4858 2.80361 12.6242 2.94194 12.6242 3.11536ZM150.096 8.41084V10.9027C150.096 11.0741 149.956 11.2145 149.784 11.2145H148.693H147.29H138.718C138.03 11.2145 137.47 10.657 137.47 9.96955V11.2206C137.47 11.9618 137.174 12.672 136.652 13.1964L133.846 16L131.86 14.0181L134.666 11.2145V5.91897C134.666 5.74762 134.804 5.60723 134.978 5.60723H137.16C137.331 5.60723 137.472 5.74762 137.472 5.91897V8.41084H147.29C147.29 6.86245 146.034 5.60723 144.484 5.60723H140.588C140.416 5.60723 140.276 5.46684 140.276 5.29549V3.11536C140.276 2.944 140.416 2.80361 140.588 2.80361H144.484C147.584 2.80361 150.096 5.31407 150.096 8.41084Z" fill="#2D44AC"/>
</svg>
