<svg width="791" height="63" viewBox="0 0 791 63" fill="none" xmlns="http://www.w3.org/2000/svg">
<path d="M52.5737 2L13.9763 2C8.77019 2 4.5498 6.26075 4.5498 11.5167L4.5498 50.4833C4.5498 55.7393 8.77019 60 13.9763 60L52.5737 60C57.7798 60 62.0002 55.7392 62.0002 50.4833L62.0002 11.5167C62.0002 6.26075 57.7798 2 52.5737 2Z" fill="#2D44AC"/>
<path d="M48.0239 2L9.42648 2C4.22039 2 2.40243e-08 6.26075 5.36598e-08 11.5167L2.73374e-07 50.4833C3.03009e-07 55.7393 4.22039 60 9.42648 60L48.0239 60C53.23 60 57.4504 55.7392 57.4504 50.4833L57.4504 11.5167C57.4504 6.26075 53.23 2 48.0239 2Z" fill="#09BC8A"/>
<path d="M10.1182 24.7345L10.1182 37.2656C10.1182 44.1829 15.6711 49.7889 22.5228 49.7889L33.5479 49.7889C34.3088 49.7889 34.9275 49.1643 34.9275 48.3962L34.9275 37.2617L22.5267 37.2617L22.5267 24.7345L34.9275 24.7345L34.9275 37.2617L45.9564 37.2617C46.7173 37.2617 47.336 36.6371 47.336 35.8689L47.336 24.7306C47.336 17.8133 41.7831 12.2073 34.9313 12.2073L22.5267 12.2073C15.6749 12.2073 10.122 17.8133 10.122 24.7306L10.1182 24.7345Z" fill="white"/>
<path d="M86.7944 16.8L86.7944 48L79.1144 48L79.1144 16.8L86.7944 16.8ZM97.3769 29.28L97.3769 48L89.6969 48L89.6969 24L95.9369 24L96.8009 26.88C97.1529 26.016 97.7289 25.328 98.5289 24.816C99.3289 24.272 100.225 24 101.217 24L103.137 24C104.481 24 105.617 24.464 106.545 25.392C107.473 26.32 107.937 27.456 107.937 28.8L107.937 48L100.257 48L100.257 29.28C100.257 28.96 100.097 28.8 99.7769 28.8L97.8569 28.8C97.5369 28.8 97.3769 28.96 97.3769 29.28ZM124.032 28.8L120.192 28.8L120.192 48L112.512 48L112.512 28.8L109.632 28.8L109.632 24L112.512 24L112.512 19.68C112.512 18.336 112.976 17.2 113.904 16.272C114.832 15.344 115.968 14.88 117.312 14.88L124.032 14.88L124.032 19.68L120.672 19.68C120.352 19.68 120.192 19.84 120.192 20.16L120.192 24L124.032 24L124.032 28.8ZM138.781 24C140.125 24 141.261 24.464 142.189 25.392C143.117 26.32 143.581 27.456 143.581 28.8L143.581 43.2C143.581 44.544 143.117 45.68 142.189 46.608C141.261 47.536 140.125 48 138.781 48L130.141 48C128.797 48 127.661 47.536 126.733 46.608C125.805 45.68 125.341 44.544 125.341 43.2L125.341 28.8C125.341 27.456 125.805 26.32 126.733 25.392C127.661 24.464 128.797 24 130.141 24L138.781 24ZM135.421 28.8L133.501 28.8C133.181 28.8 133.021 28.96 133.021 29.28L133.021 42.72C133.021 43.04 133.181 43.2 133.501 43.2L135.421 43.2C135.741 43.2 135.901 43.04 135.901 42.72L135.901 29.28C135.901 28.96 135.741 28.8 135.421 28.8ZM153.921 30.72L153.921 48L146.241 48L146.241 24L152.481 24L153.345 26.88C153.697 26.016 154.273 25.328 155.073 24.816C155.873 24.272 156.769 24 157.761 24L161.601 24L161.601 28.8L155.841 28.8C155.297 28.8 154.833 28.992 154.449 29.376C154.097 29.728 153.921 30.176 153.921 30.72ZM171.207 29.28L171.207 48L163.527 48L163.527 24L169.767 24L170.631 26.88C170.983 26.016 171.559 25.328 172.359 24.816C173.159 24.272 174.055 24 175.047 24L176.871 24C177.799 24 178.631 24.24 179.367 24.72C180.135 25.2 180.743 25.856 181.191 26.688C181.575 25.856 182.151 25.2 182.919 24.72C183.687 24.24 184.551 24 185.511 24L187.527 24C188.871 24 190.007 24.464 190.935 25.392C191.863 26.32 192.327 27.456 192.327 28.8L192.327 48L184.647 48L184.647 29.28C184.647 28.96 184.487 28.8 184.167 28.8L182.247 28.8C181.927 28.8 181.767 28.96 181.767 29.28L181.767 48L174.087 48L174.087 29.28C174.087 28.96 173.927 28.8 173.607 28.8L171.687 28.8C171.367 28.8 171.207 28.96 171.207 29.28ZM212.489 48L206.249 48L205.385 45.12C205.033 45.984 204.457 46.688 203.657 47.232C202.857 47.744 201.961 48 200.969 48L199.049 48C197.705 48 196.569 47.536 195.641 46.608C194.713 45.68 194.249 44.544 194.249 43.2L194.249 38.4C194.249 37.056 194.713 35.92 195.641 34.992C196.569 34.064 197.705 33.6 199.049 33.6L204.809 33.6L204.809 29.472C204.809 29.024 204.585 28.8 204.137 28.8L195.689 28.8L195.689 24L207.689 24C209.033 24 210.169 24.464 211.097 25.392C212.025 26.32 212.489 27.456 212.489 28.8L212.489 48ZM202.409 43.2L204.329 43.2C204.649 43.2 204.809 43.04 204.809 42.72L204.809 38.4L202.409 38.4C202.089 38.4 201.929 38.56 201.929 38.88L201.929 42.72C201.929 43.04 202.089 43.2 202.409 43.2ZM228.554 24L228.554 28.8L224.234 28.8L224.234 42.72C224.234 43.04 224.394 43.2 224.714 43.2L228.554 43.2L228.554 48L221.354 48C220.01 48 218.874 47.536 217.946 46.608C217.018 45.68 216.554 44.544 216.554 43.2L216.554 28.8L214.154 28.8L214.154 24L216.554 24L216.554 17.28L224.234 17.28L224.234 24L228.554 24ZM238.392 24L238.392 48L230.712 48L230.712 24L238.392 24ZM238.392 14.88L238.392 20.16L230.712 20.16L230.712 14.88L238.392 14.88ZM254.494 24C255.838 24 256.974 24.464 257.902 25.392C258.83 26.32 259.294 27.456 259.294 28.8L259.294 43.2C259.294 44.544 258.83 45.68 257.902 46.608C256.974 47.536 255.838 48 254.494 48L245.854 48C244.51 48 243.374 47.536 242.446 46.608C241.518 45.68 241.054 44.544 241.054 43.2L241.054 28.8C241.054 27.456 241.518 26.32 242.446 25.392C243.374 24.464 244.51 24 245.854 24L254.494 24ZM251.134 28.8L249.214 28.8C248.894 28.8 248.734 28.96 248.734 29.28L248.734 42.72C248.734 43.04 248.894 43.2 249.214 43.2L251.134 43.2C251.454 43.2 251.614 43.04 251.614 42.72L251.614 29.28C251.614 28.96 251.454 28.8 251.134 28.8ZM269.635 29.28L269.635 48L261.955 48L261.955 24L268.195 24L269.059 26.88C269.411 26.016 269.987 25.328 270.787 24.816C271.587 24.272 272.483 24 273.475 24L275.395 24C276.739 24 277.875 24.464 278.803 25.392C279.731 26.32 280.195 27.456 280.195 28.8L280.195 48L272.515 48L272.515 29.28C272.515 28.96 272.355 28.8 272.035 28.8L270.115 28.8C269.795 28.8 269.635 28.96 269.635 29.28ZM294.619 48L294.619 21.6L287.899 21.6L287.899 16.8L309.019 16.8L309.019 21.6L302.299 21.6L302.299 48L294.619 48ZM310.458 43.2L310.458 28.8C310.458 27.456 310.922 26.32 311.85 25.392C312.778 24.464 313.914 24 315.258 24L323.898 24C325.242 24 326.378 24.464 327.306 25.392C328.234 26.32 328.698 27.456 328.698 28.8L328.698 34.56C328.698 35.904 328.234 37.04 327.306 37.968C326.378 38.896 325.242 39.36 323.898 39.36L318.138 39.36L318.138 42.528C318.138 42.976 318.362 43.2 318.81 43.2L327.258 43.2L327.258 48L315.258 48C313.914 48 312.778 47.536 311.85 46.608C310.922 45.68 310.458 44.544 310.458 43.2ZM320.538 28.8L318.618 28.8C318.298 28.8 318.138 28.96 318.138 29.28L318.138 34.56L320.538 34.56C320.858 34.56 321.018 34.4 321.018 34.08L321.018 29.28C321.018 28.96 320.858 28.8 320.538 28.8ZM338.283 29.28L338.283 42.576C338.283 42.992 338.475 43.2 338.859 43.2L347.163 43.2L347.163 48L335.403 48C334.059 48 332.923 47.536 331.995 46.608C331.067 45.68 330.603 44.544 330.603 43.2L330.603 28.8C330.603 27.456 331.067 26.32 331.995 25.392C332.923 24.464 334.059 24 335.403 24L347.163 24L347.163 28.8L338.763 28.8C338.443 28.8 338.283 28.96 338.283 29.28ZM356.746 28.8L356.746 48L349.066 48L349.066 14.88L356.746 14.88L356.746 24L362.506 24C363.85 24 364.986 24.464 365.914 25.392C366.842 26.32 367.306 27.456 367.306 28.8L367.306 48L359.626 48L359.626 29.28C359.626 28.96 359.466 28.8 359.146 28.8L356.746 28.8ZM377.641 29.28L377.641 48L369.961 48L369.961 24L376.201 24L377.065 26.88C377.417 26.016 377.993 25.328 378.793 24.816C379.593 24.272 380.489 24 381.481 24L383.401 24C384.745 24 385.881 24.464 386.809 25.392C387.737 26.32 388.201 27.456 388.201 28.8L388.201 48L380.521 48L380.521 29.28C380.521 28.96 380.361 28.8 380.041 28.8L378.121 28.8C377.801 28.8 377.641 28.96 377.641 29.28ZM404.056 24C405.4 24 406.536 24.464 407.464 25.392C408.392 26.32 408.856 27.456 408.856 28.8L408.856 43.2C408.856 44.544 408.392 45.68 407.464 46.608C406.536 47.536 405.4 48 404.056 48L395.416 48C394.072 48 392.936 47.536 392.008 46.608C391.08 45.68 390.616 44.544 390.616 43.2L390.616 28.8C390.616 27.456 391.08 26.32 392.008 25.392C392.936 24.464 394.072 24 395.416 24L404.056 24ZM400.696 28.8L398.776 28.8C398.456 28.8 398.296 28.96 398.296 29.28L398.296 42.72C398.296 43.04 398.456 43.2 398.776 43.2L400.696 43.2C401.016 43.2 401.176 43.04 401.176 42.72L401.176 29.28C401.176 28.96 401.016 28.8 400.696 28.8ZM419.196 14.88L419.196 48L411.516 48L411.516 14.88L419.196 14.88ZM435.299 24C436.643 24 437.779 24.464 438.707 25.392C439.635 26.32 440.099 27.456 440.099 28.8L440.099 43.2C440.099 44.544 439.635 45.68 438.707 46.608C437.779 47.536 436.643 48 435.299 48L426.659 48C425.315 48 424.179 47.536 423.251 46.608C422.323 45.68 421.859 44.544 421.859 43.2L421.859 28.8C421.859 27.456 422.323 26.32 423.251 25.392C424.179 24.464 425.315 24 426.659 24L435.299 24ZM431.939 28.8L430.019 28.8C429.699 28.8 429.539 28.96 429.539 29.28L429.539 42.72C429.539 43.04 429.699 43.2 430.019 43.2L431.939 43.2C432.259 43.2 432.419 43.04 432.419 42.72L432.419 29.28C432.419 28.96 432.259 28.8 431.939 28.8ZM460.759 52.32C460.759 53.664 460.295 54.8 459.367 55.728C458.439 56.656 457.303 57.12 455.959 57.12L443.959 57.12L443.959 52.32L452.599 52.32C452.919 52.32 453.079 52.16 453.079 51.84L453.079 48L447.319 48C445.975 48 444.839 47.536 443.911 46.608C442.983 45.68 442.519 44.544 442.519 43.2L442.519 28.8C442.519 27.456 442.983 26.32 443.911 25.392C444.839 24.464 445.975 24 447.319 24L449.239 24C450.231 24 451.127 24.272 451.927 24.816C452.727 25.328 453.303 26.016 453.655 26.88L454.519 24L460.759 24L460.759 52.32ZM453.079 29.28C453.079 28.96 452.919 28.8 452.599 28.8L450.679 28.8C450.359 28.8 450.199 28.96 450.199 29.28L450.199 42.72C450.199 43.04 450.359 43.2 450.679 43.2L453.079 43.2L453.079 29.28ZM473.974 51.84L473.974 46.56C473.814 47.008 473.526 47.36 473.11 47.616C472.694 47.872 472.246 48 471.766 48L468.214 48C466.87 48 465.734 47.536 464.806 46.608C463.878 45.68 463.414 44.544 463.414 43.2L463.414 24L471.094 24L471.094 42.72C471.094 43.04 471.254 43.2 471.574 43.2L473.494 43.2C473.814 43.2 473.974 43.04 473.974 42.72L473.974 24L481.654 24L481.654 52.32C481.654 53.664 481.19 54.8 480.262 55.728C479.334 56.656 478.198 57.12 476.854 57.12L464.854 57.12L464.854 52.32L473.494 52.32C473.814 52.32 473.974 52.16 473.974 51.84ZM510.479 16.8L510.479 21.6L498.959 21.6L498.959 29.76L509.519 29.76L509.519 34.56L498.959 34.56L498.959 43.2L510.479 43.2L510.479 48L491.279 48L491.279 16.8L510.479 16.8ZM526.563 24L534.243 24L528.483 35.52L534.243 48L526.563 48L522.963 39.6L519.363 48L511.683 48L517.395 35.52L511.683 24L519.363 24L522.963 31.68L526.563 24ZM535.923 43.2L535.923 28.8C535.923 27.456 536.387 26.32 537.315 25.392C538.243 24.464 539.379 24 540.723 24L549.363 24C550.707 24 551.843 24.464 552.771 25.392C553.699 26.32 554.163 27.456 554.163 28.8L554.163 34.56C554.163 35.904 553.699 37.04 552.771 37.968C551.843 38.896 550.707 39.36 549.363 39.36L543.603 39.36L543.603 42.528C543.603 42.976 543.827 43.2 544.275 43.2L552.723 43.2L552.723 48L540.723 48C539.379 48 538.243 47.536 537.315 46.608C536.387 45.68 535.923 44.544 535.923 43.2ZM546.003 28.8L544.083 28.8C543.763 28.8 543.603 28.96 543.603 29.28L543.603 34.56L546.003 34.56C546.323 34.56 546.483 34.4 546.483 34.08L546.483 29.28C546.483 28.96 546.323 28.8 546.003 28.8ZM563.748 29.28L563.748 42.576C563.748 42.992 563.94 43.2 564.324 43.2L572.628 43.2L572.628 48L560.868 48C559.524 48 558.388 47.536 557.46 46.608C556.532 45.68 556.068 44.544 556.068 43.2L556.068 28.8C556.068 27.456 556.532 26.32 557.46 25.392C558.388 24.464 559.524 24 560.868 24L572.628 24L572.628 28.8L564.228 28.8C563.908 28.8 563.748 28.96 563.748 29.28ZM584.851 42.72L584.851 24L592.531 24L592.531 48L586.291 48L585.427 45.12C585.075 45.984 584.499 46.688 583.699 47.232C582.899 47.744 582.003 48 581.011 48L579.091 48C577.747 48 576.611 47.536 575.683 46.608C574.755 45.68 574.291 44.544 574.291 43.2L574.291 24L581.971 24L581.971 42.72C581.971 43.04 582.131 43.2 582.451 43.2L584.371 43.2C584.691 43.2 584.851 43.04 584.851 42.72ZM608.866 24L608.866 28.8L604.546 28.8L604.546 42.72C604.546 43.04 604.706 43.2 605.026 43.2L608.866 43.2L608.866 48L601.666 48C600.322 48 599.186 47.536 598.258 46.608C597.33 45.68 596.866 44.544 596.866 43.2L596.866 28.8L594.466 28.8L594.466 24L596.866 24L596.866 17.28L604.546 17.28L604.546 24L608.866 24ZM618.704 24L618.704 48L611.024 48L611.024 24L618.704 24ZM618.704 14.88L618.704 20.16L611.024 20.16L611.024 14.88L618.704 14.88ZM620.166 24L627.606 24L631.206 40.8L634.806 24L642.246 24L636.246 48L626.166 48L620.166 24ZM643.433 43.2L643.433 28.8C643.433 27.456 643.897 26.32 644.825 25.392C645.753 24.464 646.889 24 648.233 24L656.873 24C658.217 24 659.353 24.464 660.281 25.392C661.209 26.32 661.673 27.456 661.673 28.8L661.673 34.56C661.673 35.904 661.209 37.04 660.281 37.968C659.353 38.896 658.217 39.36 656.873 39.36L651.113 39.36L651.113 42.528C651.113 42.976 651.337 43.2 651.785 43.2L660.233 43.2L660.233 48L648.233 48C646.889 48 645.753 47.536 644.825 46.608C643.897 45.68 643.433 44.544 643.433 43.2ZM653.513 28.8L651.593 28.8C651.273 28.8 651.113 28.96 651.113 29.28L651.113 34.56L653.513 34.56C653.833 34.56 653.993 34.4 653.993 34.08L653.993 29.28C653.993 28.96 653.833 28.8 653.513 28.8ZM677.987 22.08L677.987 42.72C677.987 42.816 678.019 42.928 678.083 43.056C678.147 43.152 678.275 43.2 678.467 43.2L689.027 43.2L689.027 48L675.107 48C673.763 48 672.627 47.536 671.699 46.608C670.771 45.68 670.307 44.544 670.307 43.2L670.307 21.6C670.307 20.256 670.771 19.12 671.699 18.192C672.627 17.264 673.763 16.8 675.107 16.8L689.027 16.8L689.027 21.6L678.467 21.6C678.147 21.6 677.987 21.76 677.987 22.08ZM704.127 24C705.471 24 706.607 24.464 707.535 25.392C708.463 26.32 708.927 27.456 708.927 28.8L708.927 43.2C708.927 44.544 708.463 45.68 707.535 46.608C706.607 47.536 705.471 48 704.127 48L695.487 48C694.143 48 693.007 47.536 692.079 46.608C691.151 45.68 690.687 44.544 690.687 43.2L690.687 28.8C690.687 27.456 691.151 26.32 692.079 25.392C693.007 24.464 694.143 24 695.487 24L704.127 24ZM700.767 28.8L698.847 28.8C698.527 28.8 698.367 28.96 698.367 29.28L698.367 42.72C698.367 43.04 698.527 43.2 698.847 43.2L700.767 43.2C701.087 43.2 701.247 43.04 701.247 42.72L701.247 29.28C701.247 28.96 701.087 28.8 700.767 28.8ZM721.908 42.72L721.908 24L729.588 24L729.588 48L723.348 48L722.484 45.12C722.132 45.984 721.556 46.688 720.756 47.232C719.956 47.744 719.06 48 718.068 48L716.148 48C714.804 48 713.668 47.536 712.74 46.608C711.812 45.68 711.348 44.544 711.348 43.2L711.348 24L719.028 24L719.028 42.72C719.028 43.04 719.188 43.2 719.508 43.2L721.428 43.2C721.748 43.2 721.908 43.04 721.908 42.72ZM740.162 29.28L740.162 48L732.482 48L732.482 24L738.722 24L739.586 26.88C739.938 26.016 740.514 25.328 741.314 24.816C742.114 24.272 743.01 24 744.002 24L745.922 24C747.266 24 748.402 24.464 749.33 25.392C750.258 26.32 750.722 27.456 750.722 28.8L750.722 48L743.042 48L743.042 29.28C743.042 28.96 742.882 28.8 742.562 28.8L740.642 28.8C740.322 28.8 740.162 28.96 740.162 29.28ZM760.818 29.28L760.818 42.576C760.818 42.992 761.01 43.2 761.394 43.2L769.698 43.2L769.698 48L757.938 48C756.594 48 755.458 47.536 754.53 46.608C753.602 45.68 753.138 44.544 753.138 43.2L753.138 28.8C753.138 27.456 753.602 26.32 754.53 25.392C755.458 24.464 756.594 24 757.938 24L769.698 24L769.698 28.8L761.298 28.8C760.978 28.8 760.818 28.96 760.818 29.28ZM779.281 24L779.281 48L771.601 48L771.601 24L779.281 24ZM779.281 14.88L779.281 20.16L771.601 20.16L771.601 14.88L779.281 14.88ZM789.863 14.88L789.863 48L782.183 48L782.183 14.88L789.863 14.88Z" fill="#2D44AC"/>
</svg>
