<svg width="252" height="16" viewBox="0 0 252 16" fill="none" xmlns="http://www.w3.org/2000/svg">
<path d="M252 -3.07072e-08L252 11.7614L249.277 11.7614L249.277 0L252 -3.07072e-08Z" fill="#2D44AC"/>
<path d="M248.248 3.23864L248.248 11.7614L245.525 11.7614L245.525 3.23864L248.248 3.23864ZM248.248 -3.07072e-08L248.248 1.875L245.525 1.875L245.525 0L248.248 -3.07072e-08Z" fill="#2D44AC"/>
<path d="M241.702 5.11359L241.702 9.83518C241.702 9.9829 241.77 10.0568 241.906 10.0568L244.85 10.0568L244.85 11.7613L240.68 11.7613C240.204 11.7613 239.801 11.5965 239.472 11.267C239.143 10.9374 238.979 10.534 238.979 10.0568L238.979 4.94313C238.979 4.46586 239.143 4.06245 239.472 3.7329C239.801 3.40336 240.204 3.23859 240.68 3.23859L244.85 3.23859L244.85 4.94313L241.872 4.94313C241.758 4.94313 241.702 4.99995 241.702 5.11359Z" fill="#2D44AC"/>
<path d="M234.378 5.11359L234.378 11.7613L231.655 11.7613L231.655 3.23859L233.868 3.23859L234.174 4.26131C234.299 3.9545 234.503 3.71018 234.787 3.52836C235.07 3.33518 235.388 3.23859 235.74 3.23859L236.421 3.23859C236.897 3.23859 237.3 3.40336 237.629 3.7329C237.958 4.06245 238.122 4.46586 238.122 4.94313L238.122 11.7613L235.399 11.7613L235.399 5.11359C235.399 4.99995 235.343 4.94313 235.229 4.94313L234.548 4.94313C234.435 4.94313 234.378 4.99995 234.378 5.11359Z" fill="#2D44AC"/>
<path d="M227.906 9.88631L227.906 3.23859L230.629 3.23859L230.629 11.7613L228.417 11.7613L228.11 10.7386C227.986 11.0454 227.781 11.2954 227.498 11.4886C227.214 11.6704 226.896 11.7613 226.545 11.7613L225.864 11.7613C225.387 11.7613 224.985 11.5965 224.656 11.267C224.327 10.9374 224.162 10.534 224.162 10.0568L224.162 3.23859L226.885 3.23859L226.885 9.88631C226.885 9.99995 226.942 10.0568 227.055 10.0568L227.736 10.0568C227.849 10.0568 227.906 9.99995 227.906 9.88631Z" fill="#2D44AC"/>
<path d="M221.602 3.23859C222.079 3.23859 222.481 3.40336 222.81 3.7329C223.14 4.06245 223.304 4.46586 223.304 4.94313L223.304 10.0568C223.304 10.534 223.14 10.9374 222.81 11.267C222.481 11.5965 222.079 11.7613 221.602 11.7613L218.539 11.7613C218.062 11.7613 217.659 11.5965 217.33 11.267C217.001 10.9374 216.837 10.534 216.837 10.0568L216.837 4.94313C216.837 4.46586 217.001 4.06245 217.33 3.7329C217.659 3.40336 218.062 3.23859 218.539 3.23859L221.602 3.23859ZM220.411 4.94313L219.73 4.94313C219.617 4.94313 219.56 4.99995 219.56 5.11359L219.56 9.88631C219.56 9.99995 219.617 10.0568 219.73 10.0568L220.411 10.0568C220.524 10.0568 220.581 9.99995 220.581 9.88631L220.581 5.11359C220.581 4.99995 220.524 4.94313 220.411 4.94313Z" fill="#2D44AC"/>
<path d="M212.334 2.55682L212.334 9.88637C212.334 9.92046 212.346 9.96023 212.368 10.0057C212.391 10.0398 212.436 10.0568 212.504 10.0568L216.249 10.0568L216.249 11.7614L211.313 11.7614C210.837 11.7614 210.434 11.5966 210.105 11.267C209.776 10.9375 209.611 10.5341 209.611 10.0568L209.611 2.38637C209.611 1.9091 209.776 1.50569 210.105 1.17614C210.434 0.846596 210.837 0.681824 211.313 0.681824L216.249 0.681824L216.249 2.38637L212.504 2.38637C212.391 2.38637 212.334 2.44319 212.334 2.55682Z" fill="#2D44AC"/>
<path d="M200.083 10.0568L200.083 4.94313C200.083 4.46586 200.248 4.06245 200.577 3.7329C200.906 3.40336 201.308 3.23859 201.785 3.23859L204.848 3.23859C205.325 3.23859 205.728 3.40336 206.057 3.7329C206.386 4.06245 206.55 4.46586 206.55 4.94313L206.55 6.98859C206.55 7.46586 206.386 7.86927 206.057 8.19881C205.728 8.52836 205.325 8.69313 204.848 8.69313L202.806 8.69313L202.806 9.81813C202.806 9.97722 202.885 10.0568 203.044 10.0568L206.04 10.0568L206.04 11.7613L201.785 11.7613C201.308 11.7613 200.906 11.5965 200.577 11.267C200.248 10.9374 200.083 10.534 200.083 10.0568ZM203.657 4.94313L202.976 4.94313C202.863 4.94313 202.806 4.99995 202.806 5.11359L202.806 6.98859L203.657 6.98859C203.77 6.98859 203.827 6.93177 203.827 6.81813L203.827 5.11359C203.827 4.99995 203.77 4.94313 203.657 4.94313Z" fill="#2D44AC"/>
<path d="M191.834 3.23859L194.472 3.23859L195.748 9.20449L197.025 3.23859L199.663 3.23859L197.535 11.7613L193.961 11.7613L191.834 3.23859Z" fill="#2D44AC"/>
<path d="M191.315 3.23864L191.315 11.7614L188.592 11.7614L188.592 3.23864L191.315 3.23864ZM191.315 -3.07072e-08L191.315 1.875L188.592 1.875L188.592 0L191.315 -3.07072e-08Z" fill="#2D44AC"/>
<path d="M187.826 3.2386L187.826 4.94314L186.295 4.94314L186.295 9.88632C186.295 9.99996 186.351 10.0568 186.465 10.0568L187.826 10.0568L187.826 11.7613L185.274 11.7613C184.797 11.7613 184.394 11.5965 184.065 11.267C183.736 10.9375 183.572 10.534 183.572 10.0568L183.572 4.94314L182.721 4.94314L182.721 3.2386L183.572 3.2386L183.572 0.852234L186.295 0.852234L186.295 3.2386L187.826 3.2386Z" fill="#2D44AC"/>
<path d="M179.312 9.88631L179.312 3.23859L182.035 3.23859L182.035 11.7613L179.823 11.7613L179.517 10.7386C179.392 11.0454 179.188 11.2954 178.904 11.4886C178.62 11.6704 178.303 11.7613 177.951 11.7613L177.27 11.7613C176.794 11.7613 176.391 11.5965 176.062 11.267C175.733 10.9374 175.568 10.534 175.568 10.0568L175.568 3.23859L178.291 3.23859L178.291 9.88631C178.291 9.99995 178.348 10.0568 178.462 10.0568L179.142 10.0568C179.256 10.0568 179.312 9.99995 179.312 9.88631Z" fill="#2D44AC"/>
<path d="M171.829 5.11359L171.829 9.83518C171.829 9.9829 171.898 10.0568 172.034 10.0568L174.978 10.0568L174.978 11.7613L170.808 11.7613C170.332 11.7613 169.929 11.5965 169.6 11.267C169.271 10.9374 169.106 10.534 169.106 10.0568L169.106 4.94313C169.106 4.46586 169.271 4.06245 169.6 3.7329C169.929 3.40336 170.332 3.23859 170.808 3.23859L174.978 3.23859L174.978 4.94313L172 4.94313C171.886 4.94313 171.829 4.99995 171.829 5.11359Z" fill="#2D44AC"/>
<path d="M161.965 10.0568L161.965 4.94313C161.965 4.46586 162.129 4.06245 162.458 3.7329C162.787 3.40336 163.19 3.23859 163.667 3.23859L166.73 3.23859C167.207 3.23859 167.609 3.40336 167.938 3.7329C168.267 4.06245 168.432 4.46586 168.432 4.94313L168.432 6.98859C168.432 7.46586 168.267 7.86927 167.938 8.19881C167.609 8.52836 167.207 8.69313 166.73 8.69313L164.688 8.69313L164.688 9.81813C164.688 9.97722 164.767 10.0568 164.926 10.0568L167.921 10.0568L167.921 11.7613L163.667 11.7613C163.19 11.7613 162.787 11.5965 162.458 11.267C162.129 10.9374 161.965 10.534 161.965 10.0568ZM165.539 4.94313L164.858 4.94313C164.745 4.94313 164.688 4.99995 164.688 5.11359L164.688 6.98859L165.539 6.98859C165.652 6.98859 165.709 6.93177 165.709 6.81813L165.709 5.11359C165.709 4.99995 165.652 4.94313 165.539 4.94313Z" fill="#2D44AC"/>
<path d="M158.646 3.23859L161.369 3.23859L159.327 7.32949L161.369 11.7613L158.646 11.7613L157.37 8.77836L156.093 11.7613L153.37 11.7613L155.395 7.32949L153.37 3.23859L156.093 3.23859L157.37 5.96586L158.646 3.23859Z" fill="#2D44AC"/>
<path d="M152.943 0.681824L152.943 2.38637L148.859 2.38637L148.859 5.2841L152.603 5.2841L152.603 6.98864L148.859 6.98864L148.859 10.0568L152.943 10.0568L152.943 11.7614L146.136 11.7614L146.136 0.681824L152.943 0.681824Z" fill="#2D44AC"/>
<path d="M140 13.1249L140 11.2499C139.943 11.409 139.841 11.534 139.694 11.6249C139.546 11.7159 139.387 11.7613 139.217 11.7613L137.958 11.7613C137.481 11.7613 137.078 11.5965 136.749 11.267C136.42 10.9374 136.256 10.534 136.256 10.0568L136.256 3.23859L138.979 3.23859L138.979 9.88631C138.979 9.99995 139.036 10.0568 139.149 10.0568L139.83 10.0568C139.943 10.0568 140 9.99995 140 9.88631L140 3.23859L142.723 3.23859L142.723 13.2954C142.723 13.7727 142.558 14.1761 142.229 14.5056C141.9 14.8352 141.498 14.9999 141.021 14.9999L136.766 14.9999L136.766 13.2954L139.83 13.2954C139.943 13.2954 140 13.2386 140 13.1249Z" fill="#2D44AC"/>
<path d="M135.315 13.2954C135.315 13.7727 135.15 14.1761 134.821 14.5056C134.492 14.8352 134.089 14.9999 133.613 14.9999L129.358 14.9999L129.358 13.2954L132.422 13.2954C132.535 13.2954 132.592 13.2386 132.592 13.1249L132.592 11.7613L130.55 11.7613C130.073 11.7613 129.67 11.5965 129.341 11.267C129.012 10.9374 128.848 10.534 128.848 10.0568L128.848 4.94313C128.848 4.46586 129.012 4.06245 129.341 3.7329C129.67 3.40336 130.073 3.23859 130.55 3.23859L131.23 3.23859C131.582 3.23859 131.9 3.33518 132.183 3.52836C132.467 3.71018 132.671 3.9545 132.796 4.26131L133.102 3.23859L135.315 3.23859L135.315 13.2954ZM132.592 5.11359C132.592 4.99995 132.535 4.94313 132.422 4.94313L131.741 4.94313C131.627 4.94313 131.571 4.99995 131.571 5.11359L131.571 9.88631C131.571 9.99995 131.627 10.0568 131.741 10.0568L132.592 10.0568L132.592 5.11359Z" fill="#2D44AC"/>
<path d="M126.288 3.23859C126.764 3.23859 127.167 3.40336 127.496 3.7329C127.825 4.06245 127.99 4.46586 127.99 4.94313L127.99 10.0568C127.99 10.534 127.825 10.9374 127.496 11.267C127.167 11.5965 126.764 11.7613 126.288 11.7613L123.224 11.7613C122.748 11.7613 122.345 11.5965 122.016 11.267C121.687 10.9374 121.522 10.534 121.522 10.0568L121.522 4.94313C121.522 4.46586 121.687 4.06245 122.016 3.7329C122.345 3.40336 122.748 3.23859 123.224 3.23859L126.288 3.23859ZM125.096 4.94313L124.416 4.94313C124.302 4.94313 124.245 4.99995 124.245 5.11359L124.245 9.88631C124.245 9.99995 124.302 10.0568 124.416 10.0568L125.096 10.0568C125.21 10.0568 125.267 9.99995 125.267 9.88631L125.267 5.11359C125.267 4.99995 125.21 4.94313 125.096 4.94313Z" fill="#2D44AC"/>
<path d="M120.578 -3.07072e-08L120.578 11.7614L117.855 11.7614L117.855 0L120.578 -3.07072e-08Z" fill="#2D44AC"/>
<path d="M115.21 3.23859C115.686 3.23859 116.089 3.40336 116.418 3.7329C116.747 4.06245 116.911 4.46586 116.911 4.94313L116.911 10.0568C116.911 10.534 116.747 10.9374 116.418 11.267C116.089 11.5965 115.686 11.7613 115.21 11.7613L112.146 11.7613C111.67 11.7613 111.267 11.5965 110.938 11.267C110.609 10.9374 110.444 10.534 110.444 10.0568L110.444 4.94313C110.444 4.46586 110.609 4.06245 110.938 3.7329C111.267 3.40336 111.67 3.23859 112.146 3.23859L115.21 3.23859ZM114.018 4.94313L113.338 4.94313C113.224 4.94313 113.167 4.99995 113.167 5.11359L113.167 9.88631C113.167 9.99995 113.224 10.0568 113.338 10.0568L114.018 10.0568C114.132 10.0568 114.188 9.99995 114.188 9.88631L114.188 5.11359C114.188 4.99995 114.132 4.94313 114.018 4.94313Z" fill="#2D44AC"/>
<path d="M105.844 5.11359L105.844 11.7613L103.121 11.7613L103.121 3.23859L105.334 3.23859L105.64 4.26131C105.765 3.9545 105.969 3.71018 106.253 3.52836C106.536 3.33518 106.854 3.23859 107.206 3.23859L107.886 3.23859C108.363 3.23859 108.766 3.40336 109.095 3.7329C109.424 4.06245 109.588 4.46586 109.588 4.94313L109.588 11.7613L106.865 11.7613L106.865 5.11359C106.865 4.99995 106.808 4.94313 106.695 4.94313L106.014 4.94313C105.901 4.94313 105.844 4.99995 105.844 5.11359Z" fill="#2D44AC"/>
<path d="M98.4359 4.94318L98.4359 11.7614L95.7129 11.7614L95.7129 0L98.4359 -3.07072e-08L98.4359 3.23864L100.478 3.23864C100.955 3.23864 101.357 3.40341 101.686 3.73295C102.015 4.0625 102.18 4.46591 102.18 4.94318L102.18 11.7614L99.457 11.7614L99.457 5.11364C99.457 5 99.4003 4.94318 99.2868 4.94318L98.4359 4.94318Z" fill="#2D44AC"/>
<path d="M91.89 5.11359L91.89 9.83518C91.89 9.9829 91.9581 10.0568 92.0942 10.0568L95.0384 10.0568L95.0384 11.7613L90.8689 11.7613C90.3923 11.7613 89.9896 11.5965 89.6605 11.267C89.3315 10.9374 89.167 10.534 89.167 10.0568L89.167 4.94313C89.167 4.46586 89.3315 4.06245 89.6605 3.7329C89.9896 3.40336 90.3923 3.23859 90.8689 3.23859L95.0384 3.23859L95.0384 4.94313L92.0602 4.94313C91.9467 4.94313 91.89 4.99995 91.89 5.11359Z" fill="#2D44AC"/>
<path d="M82.0244 10.0568L82.0244 4.94313C82.0244 4.46586 82.1889 4.06245 82.518 3.7329C82.847 3.40336 83.2498 3.23859 83.7263 3.23859L86.7896 3.23859C87.2662 3.23859 87.6689 3.40336 87.998 3.7329C88.327 4.06245 88.4915 4.46586 88.4915 4.94313L88.4915 6.98859C88.4915 7.46586 88.327 7.86927 87.998 8.19881C87.6689 8.52836 87.2662 8.69313 86.7896 8.69313L84.7474 8.69313L84.7474 9.81813C84.7474 9.97722 84.8268 10.0568 84.9857 10.0568L87.981 10.0568L87.981 11.7613L83.7263 11.7613C83.2498 11.7613 82.847 11.5965 82.518 11.267C82.1889 10.9374 82.0244 10.534 82.0244 10.0568ZM85.5983 4.94313L84.9176 4.94313C84.8041 4.94313 84.7474 4.99995 84.7474 5.11359L84.7474 6.98859L85.5983 6.98859C85.7118 6.98859 85.7685 6.93177 85.7685 6.81813L85.7685 5.11359C85.7685 4.99995 85.7118 4.94313 85.5983 4.94313Z" fill="#2D44AC"/>
<path d="M76.409 11.7614L76.409 2.38637L74.0264 2.38637L74.0264 0.681824L81.5146 0.681824L81.5146 2.38637L79.132 2.38637L79.132 11.7614L76.409 11.7614Z" fill="#2D44AC"/>
<path d="M67.5501 5.11359L67.5501 11.7613L64.8271 11.7613L64.8271 3.23859L67.0396 3.23859L67.3459 4.26131C67.4707 3.9545 67.6749 3.71018 67.9586 3.52836C68.2422 3.33518 68.5599 3.23859 68.9116 3.23859L69.5924 3.23859C70.0689 3.23859 70.4717 3.40336 70.8007 3.7329C71.1297 4.06245 71.2942 4.46586 71.2942 4.94313L71.2942 11.7613L68.5713 11.7613L68.5713 5.11359C68.5713 4.99995 68.5145 4.94313 68.4011 4.94313L67.7203 4.94313C67.6069 4.94313 67.5501 4.99995 67.5501 5.11359Z" fill="#2D44AC"/>
<path d="M62.1822 3.23859C62.6587 3.23859 63.0615 3.40336 63.3905 3.7329C63.7196 4.06245 63.8841 4.46586 63.8841 4.94313L63.8841 10.0568C63.8841 10.534 63.7196 10.9374 63.3905 11.267C63.0615 11.5965 62.6587 11.7613 62.1822 11.7613L59.1189 11.7613C58.6423 11.7613 58.2396 11.5965 57.9105 11.267C57.5815 10.9374 57.417 10.534 57.417 10.0568L57.417 4.94313C57.417 4.46586 57.5815 4.06245 57.9105 3.7329C58.2396 3.40336 58.6423 3.23859 59.1189 3.23859L62.1822 3.23859ZM60.9909 4.94313L60.3102 4.94313C60.1967 4.94313 60.14 4.99995 60.14 5.11359L60.14 9.88631C60.14 9.99995 60.1967 10.0568 60.3102 10.0568L60.9909 10.0568C61.1044 10.0568 61.1611 9.99995 61.1611 9.88631L61.1611 5.11359C61.1611 4.99995 61.1044 4.94313 60.9909 4.94313Z" fill="#2D44AC"/>
<path d="M56.473 3.23864L56.473 11.7614L53.75 11.7614L53.75 3.23864L56.473 3.23864ZM56.473 -3.07072e-08L56.473 1.875L53.75 1.875L53.75 0L56.473 -3.07072e-08Z" fill="#2D44AC"/>
<path d="M52.9845 3.2386L52.9845 4.94314L51.4528 4.94314L51.4528 9.88632C51.4528 9.99996 51.5096 10.0568 51.623 10.0568L52.9845 10.0568L52.9845 11.7613L50.4317 11.7613C49.9552 11.7613 49.5524 11.5965 49.2234 11.267C48.8944 10.9375 48.7298 10.534 48.7298 10.0568L48.7298 4.94314L47.8789 4.94314L47.8789 3.2386L48.7298 3.2386L48.7298 0.852234L51.4528 0.852234L51.4528 3.2386L52.9845 3.2386Z" fill="#2D44AC"/>
<path d="M47.2894 11.7613L45.0769 11.7613L44.7706 10.7386C44.6458 11.0454 44.4416 11.2954 44.1579 11.4886C43.8743 11.6704 43.5566 11.7613 43.2049 11.7613L42.5241 11.7613C42.0476 11.7613 41.6448 11.5965 41.3158 11.267C40.9868 10.9374 40.8223 10.534 40.8223 10.0568L40.8223 8.35222C40.8223 7.87495 40.9868 7.47154 41.3158 7.14199C41.6448 6.81245 42.0476 6.64768 42.5241 6.64768L44.5664 6.64768L44.5664 5.18177C44.5664 5.02268 44.487 4.94313 44.3281 4.94313L41.3328 4.94313L41.3328 3.23859L45.5875 3.23859C46.064 3.23859 46.4668 3.40336 46.7958 3.7329C47.1249 4.06245 47.2894 4.46586 47.2894 4.94313L47.2894 11.7613ZM43.7154 10.0568L44.3962 10.0568C44.5096 10.0568 44.5664 9.99995 44.5664 9.88631L44.5664 8.35222L43.7154 8.35222C43.602 8.35222 43.5453 8.40904 43.5453 8.52268L43.5453 9.88631C43.5453 9.99995 43.602 10.0568 43.7154 10.0568Z" fill="#2D44AC"/>
<path d="M32.6517 5.11359L32.6517 11.7613L29.9287 11.7613L29.9287 3.23859L32.1411 3.23859L32.4475 4.26131C32.5723 3.9545 32.7765 3.71018 33.0601 3.52836C33.3438 3.33518 33.6615 3.23859 34.0132 3.23859L34.6599 3.23859C34.9889 3.23859 35.2839 3.32381 35.5449 3.49427C35.8172 3.66472 36.0327 3.89768 36.1916 4.19313C36.3277 3.89768 36.532 3.66472 36.8043 3.49427C37.0766 3.32381 37.3829 3.23859 37.7233 3.23859L38.438 3.23859C38.9146 3.23859 39.3173 3.40336 39.6464 3.7329C39.9754 4.06245 40.1399 4.46586 40.1399 4.94313L40.1399 11.7613L37.4169 11.7613L37.4169 5.11359C37.4169 4.99995 37.3602 4.94313 37.2467 4.94313L36.566 4.94313C36.4525 4.94313 36.3958 4.99995 36.3958 5.11359L36.3958 11.7613L33.6728 11.7613L33.6728 5.11359C33.6728 4.99995 33.6161 4.94313 33.5026 4.94313L32.8219 4.94313C32.7084 4.94313 32.6517 4.99995 32.6517 5.11359Z" fill="#2D44AC"/>
<path d="M26.5238 5.62495L26.5238 11.7613L23.8008 11.7613L23.8008 3.23859L26.0132 3.23859L26.3195 4.26131C26.4443 3.9545 26.6486 3.71018 26.9322 3.52836C27.2159 3.33518 27.5335 3.23859 27.8853 3.23859L29.2468 3.23859L29.2468 4.94313L27.2045 4.94313C27.0116 4.94313 26.8471 5.01131 26.711 5.14768C26.5862 5.27268 26.5238 5.43177 26.5238 5.62495Z" fill="#2D44AC"/>
<path d="M21.1559 3.23859C21.6324 3.23859 22.0352 3.40336 22.3642 3.7329C22.6932 4.06245 22.8577 4.46586 22.8577 4.94313L22.8577 10.0568C22.8577 10.534 22.6932 10.9374 22.3642 11.267C22.0352 11.5965 21.6324 11.7613 21.1559 11.7613L18.0925 11.7613C17.616 11.7613 17.2132 11.5965 16.8842 11.267C16.5551 10.9374 16.3906 10.534 16.3906 10.0568L16.3906 4.94313C16.3906 4.46586 16.5551 4.06245 16.8842 3.7329C17.2132 3.40336 17.616 3.23859 18.0925 3.23859L21.1559 3.23859ZM19.9645 4.94313L19.2838 4.94313C19.1703 4.94313 19.1136 4.99995 19.1136 5.11359L19.1136 9.88631C19.1136 9.99995 19.1703 10.0568 19.2838 10.0568L19.9645 10.0568C20.078 10.0568 20.1347 9.99995 20.1347 9.88631L20.1347 5.11359C20.1347 4.99995 20.078 4.94313 19.9645 4.94313Z" fill="#2D44AC"/>
<path d="M15.9259 4.94318L14.5644 4.94318L14.5644 11.7614L11.8414 11.7614L11.8414 4.94318L10.8203 4.94318L10.8203 3.23864L11.8414 3.23864L11.8414 1.70455C11.8414 1.22727 12.0059 0.823864 12.335 0.494319C12.664 0.164773 13.0668 -2.53334e-08 13.5433 -3.07072e-08L15.9259 -5.7576e-08L15.9259 1.70455L14.7346 1.70455C14.6212 1.70455 14.5644 1.76136 14.5644 1.875L14.5644 3.23864L15.9259 3.23864L15.9259 4.94318Z" fill="#2D44AC"/>
<path d="M6.47592 5.11359L6.47592 11.7613L3.75293 11.7613L3.75293 3.23859L5.96536 3.23859L6.27169 4.26131C6.3965 3.9545 6.60072 3.71018 6.88437 3.52836C7.16801 3.33518 7.48569 3.23859 7.83741 3.23859L8.51816 3.23859C8.99468 3.23859 9.39746 3.40336 9.72648 3.7329C10.0555 4.06245 10.22 4.46586 10.22 4.94313L10.22 11.7613L7.49704 11.7613L7.49704 5.11359C7.49704 4.99995 7.44031 4.94313 7.32685 4.94313L6.6461 4.94313C6.53265 4.94313 6.47592 4.99995 6.47592 5.11359Z" fill="#2D44AC"/>
<path d="M2.72299 0.681824L2.72299 11.7614L1.24846e-07 11.7614L0 0.681824L2.72299 0.681824Z" fill="#2D44AC"/>
</svg>
