<svg width="543" height="63" viewBox="0 0 543 63" fill="none"
    xmlns="http://www.w3.org/2000/svg">
    <g clipPath="url(#clip0_4105_10564)">
        <path d="M533.621 2.23907H495.221C490.042 2.23907 485.843 6.53816 485.843 11.8413V51.1586C485.843 56.4618 490.042 60.7609 495.221 60.7609H533.621C538.801 60.7609 542.999 56.4618 542.999 51.1586V11.8413C542.999 6.53816 538.801 2.23907 533.621 2.23907Z" fill="#2D44AC"/>
        <path d="M529.095 2.23907H490.695C485.515 2.23907 481.316 6.53816 481.316 11.8413V51.1586C481.316 56.4618 485.515 60.7609 490.695 60.7609H529.095C534.274 60.7609 538.473 56.4618 538.473 51.1586V11.8413C538.473 6.53816 534.274 2.23907 529.095 2.23907Z" fill="#09BC8A"/>
        <path d="M491.383 25.1781V37.8219C491.383 44.8015 496.907 50.4579 503.724 50.4579H514.693C515.45 50.4579 516.065 49.8277 516.065 49.0526V37.818H503.728V25.1781H516.065V37.818H527.038C527.795 37.818 528.41 37.1878 528.41 36.4127V25.1742C528.41 18.1946 522.886 12.5381 516.069 12.5381H503.728C496.911 12.5381 491.387 18.1946 491.387 25.1742L491.383 25.1781Z" fill="white"/>
        <path d="M431.531 28.1766C431.531 26.3446 430.805 24.677 429.627 23.4831C428.457 22.2813 426.829 21.5337 425.043 21.5337H418.555C416.766 21.5337 415.137 22.2774 413.971 23.4831C412.797 24.6809 412.067 26.3485 412.067 28.1766V34.8195C412.067 36.6515 412.794 38.3191 413.971 39.513C415.137 40.7147 416.77 41.4624 418.555 41.4624L412.576 47.5847C412.293 47.8744 412.293 48.3402 412.576 48.6299L416.147 52.2821C416.429 52.5718 416.884 52.5718 417.167 52.2821L423.151 46.1559C424.363 44.915 425.043 43.2318 425.043 41.4741V38.5109C425.043 40.1432 426.335 41.4624 427.926 41.4624H460.733C464.315 41.4624 467.221 38.4874 467.221 34.8195H431.531V28.1766ZM418.551 34.8234V28.1805H425.039V34.8234H418.551ZM408.818 28.9164V41.4781C408.818 43.2357 408.137 44.9189 406.925 46.1598L400.942 52.286C400.659 52.5757 400.204 52.5757 399.921 52.286L396.35 48.6338C396.067 48.3441 396.067 47.8783 396.35 47.5886L402.33 41.4663V28.9164C402.33 28.5093 402.651 28.1766 403.052 28.1766H408.099C408.496 28.1766 408.821 28.5054 408.821 28.9164H408.818ZM398.365 41.4663H393.318C392.921 41.4663 392.596 41.1375 392.596 40.7265V15.6267C392.596 15.2196 392.917 14.8868 393.318 14.8868H398.365C398.763 14.8868 399.087 15.2157 399.087 15.6267V40.7265C399.087 41.1336 398.766 41.4663 398.365 41.4663ZM467.221 15.6267V24.8532C467.221 28.5211 464.315 31.4961 460.733 31.4961H445.23C444.832 31.4961 444.507 31.1673 444.507 30.7562V25.5891C444.507 25.182 444.828 24.8493 445.23 24.8493H460.733V15.6228C460.733 15.2157 461.054 14.8829 461.455 14.8829H466.502C466.899 14.8829 467.224 15.2118 467.224 15.6228L467.221 15.6267ZM356.906 15.6267V40.7265C356.906 41.1336 356.585 41.4663 356.184 41.4663H351.137C350.739 41.4663 350.414 41.1375 350.414 40.7265V15.6267C350.414 15.2196 350.736 14.8868 351.137 14.8868H356.184C356.581 14.8868 356.906 15.2157 356.906 15.6267ZM129.782 15.6267V40.7265C129.782 41.1336 129.461 41.4663 129.059 41.4663H124.013C123.615 41.4663 123.29 41.1375 123.29 40.7265V15.6267C123.29 15.2196 123.611 14.8868 124.013 14.8868H129.059C129.457 14.8868 129.782 15.2157 129.782 15.6267ZM246.588 21.5337H240.1C236.518 21.5337 233.612 24.5087 233.612 28.1766V34.8195H227.124V28.9125C227.124 28.5054 226.803 28.1727 226.402 28.1727H221.355C220.957 28.1727 220.632 28.5015 220.632 28.9125V34.8195H207.653V15.6267C207.653 15.2196 207.332 14.8868 206.93 14.8868H201.884C201.486 14.8868 201.161 15.2157 201.161 15.6267V34.8195C201.161 38.4874 204.067 41.4624 207.649 41.4624H219.906C220.304 41.4624 220.629 41.1336 220.629 40.7226V38.507C220.629 40.1393 221.921 41.4585 223.511 41.4585H246.584C250.167 41.4585 253.072 38.4835 253.072 34.8156V28.1727C253.072 24.5048 250.167 21.5298 246.584 21.5298L246.588 21.5337ZM246.588 34.8234H240.1V28.1805H246.588V34.8234ZM120.048 28.1766V34.8195C120.048 38.4874 117.143 41.4624 113.56 41.4624H83.9993C82.405 41.4624 81.1166 40.1393 81.1166 38.5109V40.7265C81.1166 41.1336 80.7955 41.4663 80.394 41.4663H74.6248C71.0425 41.4663 68.1369 38.4913 68.1369 34.8234V15.6306C68.1369 15.2235 68.458 14.8908 68.8595 14.8908H73.9061C74.3037 14.8908 74.6287 15.2196 74.6287 15.6306V34.8234H81.1166V15.6306C81.1166 15.2235 81.4378 14.8908 81.8392 14.8908H86.8858C87.2834 14.8908 87.6084 15.2196 87.6084 15.6306V34.8234H113.564V28.1805H100.584C97.002 28.1805 94.0963 25.2055 94.0963 21.5376V15.6306C94.0963 15.2235 94.4175 14.8908 94.8189 14.8908H99.8655C100.263 14.8908 100.588 15.2196 100.588 15.6306V21.5376H113.568C117.15 21.5376 120.056 24.5126 120.056 28.1805L120.048 28.1766ZM51.9151 28.1766V34.8195H64.1722C64.5699 34.8195 64.8948 35.1483 64.8948 35.5593V40.7265C64.8948 41.1336 64.5737 41.4663 64.1722 41.4663H48.3098C46.7156 41.4663 45.4271 40.1432 45.4271 38.5148V40.7304C45.4271 41.1375 45.106 41.4702 44.7046 41.4702H38.9354C35.353 41.4702 32.4474 38.4952 32.4474 34.8273V15.6345C32.4474 15.2274 32.7686 14.8947 33.17 14.8947H38.2166C38.6142 14.8947 38.9392 15.2235 38.9392 15.6345V34.8273H45.4271V28.1844C45.4271 24.5165 48.3328 21.5415 51.9151 21.5415H58.403C61.9854 21.5415 64.891 24.5165 64.891 28.1844H51.9113L51.9151 28.1766ZM197.919 28.1766V34.0836C197.919 34.4907 197.598 34.8234 197.196 34.8234H191.427V28.1805H184.939V34.8234H191.427V41.4781C191.427 43.2357 190.747 44.9189 189.535 46.1598L183.043 52.8066L178.451 48.1092L184.939 41.4663C181.357 41.4663 178.451 38.4913 178.451 34.8234V28.1805C178.451 24.5126 181.357 21.5376 184.939 21.5376H191.427C195.009 21.5376 197.915 24.5126 197.915 28.1805L197.919 28.1766ZM307.514 41.4663H302.468C302.07 41.4663 301.745 41.1375 301.745 40.7265V15.6267C301.745 15.2196 302.066 14.8868 302.468 14.8868H307.514C307.912 14.8868 308.237 15.2157 308.237 15.6267V40.7265C308.237 41.1336 307.916 41.4663 307.514 41.4663ZM298.503 42.2062V47.3733C298.503 47.7804 298.182 48.1131 297.781 48.1131H286.246C285.848 48.1131 285.523 47.7843 285.523 47.3733V42.2062C285.523 41.7991 285.845 41.4663 286.246 41.4663H297.781C298.178 41.4663 298.503 41.7951 298.503 42.2062ZM0 27.4407V22.2735C0 21.8664 0.321148 21.5337 0.722583 21.5337H15.503C15.9006 21.5337 16.2256 21.8625 16.2256 22.2735V27.4407C16.2256 27.8478 15.9045 28.1805 15.503 28.1805H0.722583C0.324971 28.1805 0 27.8517 0 27.4407ZM347.172 45.5257V50.6928C347.172 51.0999 346.851 51.4326 346.45 51.4326H341.403C341.006 51.4326 340.681 51.1038 340.681 50.6928V45.5257C340.681 45.1185 341.002 44.7858 341.403 44.7858H346.45C346.847 44.7858 347.172 45.1146 347.172 45.5257ZM227.12 20.7938V15.6267C227.12 15.2196 227.442 14.8868 227.843 14.8868H232.89C233.287 14.8868 233.612 15.2157 233.612 15.6267V20.7938C233.612 21.2009 233.291 21.5337 232.89 21.5337H227.843C227.445 21.5337 227.12 21.2049 227.12 20.7938ZM210.899 20.7938V15.6267C210.899 15.2196 211.22 14.8868 211.621 14.8868H216.668C217.065 14.8868 217.39 15.2157 217.39 15.6267V20.7938C217.39 21.2009 217.069 21.5337 216.668 21.5337H211.621C211.224 21.5337 210.899 21.2049 210.899 20.7938ZM298.503 22.2735V28.1805C298.503 31.8484 295.598 34.8234 292.015 34.8234H280.546C281.651 36.7767 282.281 39.0472 282.281 41.4663V47.3733C282.281 47.7804 281.96 48.1131 281.559 48.1131H262.814C259.231 48.1131 256.326 45.1381 256.326 41.4702V28.9203C256.326 28.5132 256.647 28.1805 257.048 28.1805H262.095C262.493 28.1805 262.818 28.5093 262.818 28.9203V41.4702H275.797C275.797 38.0216 273.228 35.1835 269.944 34.8586C269.581 34.8234 269.309 34.5024 269.309 34.1305V28.9243C269.309 28.5171 269.63 28.1844 270.032 28.1844H292.023V22.2774C292.023 21.8703 292.344 21.5376 292.745 21.5376H297.792C298.19 21.5376 298.515 21.8664 298.515 22.2774L298.503 22.2735ZM389.35 22.2735V27.4407C389.35 27.8478 389.029 28.1805 388.627 28.1805H373.124C373.124 24.5126 376.03 21.5376 379.612 21.5376H388.623C389.021 21.5376 389.346 21.8664 389.346 22.2774L389.35 22.2735ZM373.128 34.1227V28.1766C380.297 28.1766 386.108 34.1266 386.108 41.4663V47.3733C386.108 47.7804 385.787 48.1131 385.385 48.1131H366.64C363.058 48.1131 360.152 45.1381 360.152 41.4702V28.9203C360.152 28.5132 360.473 28.1805 360.875 28.1805H365.921C366.319 28.1805 366.644 28.5093 366.644 28.9203V41.4702H379.624C379.624 38.0216 377.054 35.1835 373.77 34.8586C373.407 34.8234 373.136 34.5024 373.136 34.1305L373.128 34.1227ZM175.209 28.9164V41.4781C175.209 43.2357 174.529 44.9189 173.317 46.1598L167.333 52.286C167.05 52.5757 166.595 52.5757 166.313 52.286L162.742 48.6338C162.459 48.3441 162.459 47.8783 162.742 47.5886L168.721 41.4663V28.9164C168.721 28.5093 169.042 28.1766 169.444 28.1766H174.49C174.888 28.1766 175.213 28.5054 175.213 28.9164H175.209ZM162.229 22.2735V27.4407C162.229 27.8478 161.908 28.1805 161.507 28.1805H146.004C146.004 24.5126 148.909 21.5376 152.492 21.5376H161.503C161.901 21.5376 162.226 21.8664 162.226 22.2774L162.229 22.2735ZM146.008 34.1227V28.1766C153.176 28.1766 158.987 34.1266 158.987 41.4663V47.3733C158.987 47.7804 158.666 48.1131 158.265 48.1131H139.52C135.937 48.1131 133.032 45.1381 133.032 41.4702V28.9203C133.032 28.5132 133.353 28.1805 133.754 28.1805H138.801C139.199 28.1805 139.523 28.5093 139.523 28.9203V41.4702H152.503C152.503 38.0216 149.934 35.1835 146.65 34.8586C146.287 34.8234 146.015 34.5024 146.015 34.1305L146.008 34.1227ZM29.2015 22.2735V34.8234C29.2015 38.4913 26.2959 41.4663 22.7136 41.4663H0.722583C0.324971 41.4663 0 41.1375 0 40.7265V35.5593C0 35.1522 0.321148 34.8195 0.722583 34.8195H22.7136V22.2696C22.7136 21.8625 23.0347 21.5298 23.4362 21.5298H28.4828C28.8804 21.5298 29.2053 21.8586 29.2053 22.2696L29.2015 22.2735ZM347.172 34.8234V40.7304C347.172 41.1375 346.851 41.4702 346.45 41.4702H320.854C319.259 41.4702 317.971 40.1471 317.971 38.5187V41.482C317.971 43.2396 317.29 44.9228 316.078 46.1637L309.587 52.8105L304.995 48.1131L311.483 41.4702V28.9203C311.483 28.5132 311.804 28.1805 312.206 28.1805H317.252C317.65 28.1805 317.975 28.5093 317.975 28.9203V34.8273H340.688C340.688 31.1594 337.783 28.1844 334.2 28.1844H325.189C324.791 28.1844 324.466 27.8556 324.466 27.4446V22.2774C324.466 21.8703 324.788 21.5376 325.189 21.5376H334.2C341.369 21.5376 347.18 27.4876 347.18 34.8273L347.172 34.8234Z" fill="#2D44AC"/>
    </g>
    <defs>
        <clipPath id="clip0_4105_10564">
            <rect width="543" height="63" fill="white"/>
        </clipPath>
    </defs>
</svg>
