<svg width="258" height="258" viewBox="0 0 258 258" fill="none" xmlns="http://www.w3.org/2000/svg">
<rect width="258" height="258" fill="#EBEBEB"/>
<path d="M159.077 167H106.162C99.0262 167 93.2388 161.344 93.2388 154.365V102.635C93.2388 95.6583 99.0236 90 106.162 90H159.077C166.213 90 172 95.6557 172 102.635V154.368C172 161.344 166.215 167 159.077 167Z" fill="#C2C2C2"/>
<path d="M152.838 167H99.9231C92.7875 167 87 161.344 87 154.365V102.635C87 95.6583 92.7848 90 99.9231 90H152.838C159.974 90 165.761 95.6557 165.761 102.635V154.368C165.761 161.344 159.976 167 152.838 167Z" fill="#DDDDDD"/>
<path d="M100.871 120.184V136.816C100.871 146.001 108.484 153.444 117.878 153.444H132.99C134.034 153.444 134.88 152.617 134.88 151.596V136.814H117.881V120.184H134.88V136.814H150C151.044 136.814 151.89 135.987 151.89 134.966V120.181C151.89 110.997 144.277 103.553 134.883 103.553H117.878C108.487 103.556 100.871 110.999 100.871 120.184Z" fill="#EBEBEB"/>
</svg>
