<svg width="409" height="338" viewBox="0 0 409 338" fill="none"
    xmlns="http://www.w3.org/2000/svg">
    <path d="M373.008 193.255C392.391 134.852 360.759 71.7941 302.356 52.4112C243.953 33.0283 180.895 64.6606 161.512 123.064C142.129 181.467 173.761 244.525 232.164 263.908C290.567 283.291 353.626 251.658 373.008 193.255Z" fill="#87C0D7"/>
    <path d="M259 105.31C259 105.31 277.37 4.50009 281.61 2.42009C285.85 0.340088 282.52 2.29009 282.52 2.29009C282.52 2.29009 348.4 74.0901 350.79 82.1501L258.79 106.15" fill="#F6BA4E"/>
    <path d="M272.17 94.0001C276.44 73.8401 281.62 53.8601 284.88 33.5001C285.78 27.9001 286.51 22.2801 287.07 16.6401C287.19 15.3601 285.19 15.3701 285.07 16.6401C283.12 36.9101 278.46 56.7901 273.96 76.6401C272.69 82.2501 271.43 87.8601 270.24 93.4901C269.98 94.7401 271.9 95.2801 272.17 94.0201V94.0001Z" fill="#434040"/>
    <path d="M336.21 75.8101C323.15 60.9001 309.68 46.3201 297.48 30.6701C293.993 26.2235 290.633 21.6668 287.4 17.0001C286.67 15.9401 284.93 16.9401 285.67 18.0001C297.07 34.4401 310.25 49.5102 323.5 64.4602C327.27 68.7102 331.05 72.9602 334.79 77.2402C335.64 78.2402 337.05 76.7902 336.21 75.8202V75.8101Z" fill="#434040"/>
    <path d="M271.55 95.0501L322 81.8901L336 78.2301C336.234 78.1422 336.426 77.9702 336.539 77.7478C336.653 77.5254 336.679 77.2687 336.612 77.0281C336.546 76.7875 336.392 76.5805 336.181 76.4476C335.969 76.3148 335.716 76.2658 335.47 76.3101L285 89.4701L271 93.1201C270.744 93.1904 270.527 93.3595 270.396 93.5902C270.264 93.8208 270.23 94.0942 270.3 94.3501C270.371 94.6061 270.54 94.8236 270.77 94.9549C271.001 95.0862 271.274 95.1204 271.53 95.0501H271.55Z" fill="#434040"/>
    <path d="M260.55 106.45L330.73 88.1299L350.56 82.9999C350.825 82.9256 351.05 82.749 351.185 82.509C351.32 82.2689 351.354 81.9851 351.28 81.7199C351.205 81.4547 351.029 81.2298 350.789 81.0948C350.549 80.9598 350.265 80.9256 350 80.9999L279.81 99.3199L260 104.52C259.744 104.592 259.527 104.762 259.396 104.993C259.266 105.225 259.233 105.499 259.305 105.755C259.376 106.011 259.547 106.228 259.778 106.358C260.01 106.489 260.284 106.521 260.54 106.45H260.55Z" fill="#434040"/>
    <path d="M286.28 3.30997C285.1 1.19997 282.91 -0.390027 280.87 1.73997C278.83 3.86997 278.38 7.27998 277.66 9.98998C275.535 17.7053 273.866 25.5388 272.66 33.45C271.54 41.21 270.54 48.97 268.45 56.55C267.45 60.36 266.45 64.19 265.65 68.06C264.85 71.93 264.5 75.87 263.74 79.74C262.08 88.23 259.26 96.46 258.26 105.08C258.11 106.35 260.11 106.34 260.26 105.08C261.1 97.89 263.26 90.97 264.88 83.94C265.7 80.4 266.2 76.85 266.75 73.26C267.3 69.67 268.06 66.12 268.93 62.59C269.8 59.06 270.93 55.59 271.67 51.98C272.41 48.37 273.04 44.76 273.57 41.12C274.57 33.99 275.64 26.9 277.25 19.86C278.17 15.81 279.25 11.78 280.31 7.76998C280.594 6.29984 281.136 4.89148 281.91 3.60998C282.14 3.27998 282.55 2.67997 283 2.66997C283.72 2.66997 284.25 3.81997 284.53 4.31997C284.668 4.53764 284.885 4.69343 285.136 4.75479C285.387 4.81615 285.651 4.77834 285.874 4.64927C286.098 4.52019 286.262 4.30983 286.334 4.06212C286.406 3.81441 286.38 3.54852 286.26 3.31997L286.28 3.30997Z" fill="#434040"/>
    <path d="M284.24 3.90987C289.755 9.29889 294.853 15.0989 299.49 21.2599C301.63 24.1799 303.64 27.1499 306 29.9199C308.36 32.6899 311.05 35.6099 313.34 38.6499C317.71 44.4299 321.34 50.5799 326.55 55.7199C329.075 58.0797 331.475 60.5697 333.74 63.1799C335.99 65.9299 338 68.8599 340.47 71.4299C342.23 73.2599 344.24 74.7699 346.11 76.4299C346.94 77.1799 350.32 79.9899 348.99 81.2699C348.06 82.1699 349.48 83.5799 350.4 82.6899C353.65 79.5699 347.57 74.9999 345.46 73.2499C343.138 71.3229 341.014 69.1689 339.12 66.8199C336.75 63.9099 334.6 60.8899 331.96 58.2099C329.32 55.5299 326.61 53.1399 324.25 50.2999C321.72 47.2999 319.56 43.9299 317.3 40.6899C312.87 34.3499 307.21 28.9899 302.89 22.5899C297.95 15.2599 291.89 8.69987 285.66 2.45987C285.473 2.27156 285.219 2.16525 284.953 2.16431C284.688 2.16338 284.433 2.26789 284.245 2.45487C284.056 2.64185 283.95 2.89597 283.949 3.16133C283.948 3.42669 284.053 3.68157 284.24 3.86987V3.90987Z" fill="#434040"/>
    <path d="M298.77 69.8099C299.03 67.1499 297.45 64.2999 296.4 61.9499C294.95 58.7099 293.7 55.3799 292.55 52.0199C291.88 50.0199 291.25 48.0199 290.7 46.0199C290.31 44.5899 289.77 43.1799 289.46 41.7399C289.34 41.1799 289.11 40.1399 289.58 39.6599C289.9 39.3299 290.63 39.2999 291.06 39.2399C292.387 39.0626 293.733 39.0626 295.06 39.2399L294.36 38.5398C295.02 40.7498 294.9 43.0999 295.22 45.3699C295.652 47.9644 296.22 50.5345 296.92 53.0699C298.22 58.2899 299.43 63.5299 300.79 68.7399L301.49 67.4999C300.91 67.7199 300.34 67.9599 299.76 68.1699C299.36 68.3099 298.4 68.7699 297.99 68.6399V70.5699C298.325 70.4774 298.614 70.2635 298.8 69.9699C298.92 69.7413 298.946 69.4754 298.874 69.2277C298.802 68.98 298.638 68.7696 298.414 68.6406C298.191 68.5115 297.927 68.4737 297.676 68.535C297.425 68.5964 297.208 68.7522 297.07 68.9699V69.0499L297.67 68.5899C297.611 68.6009 297.553 68.6211 297.5 68.6499C297.288 68.7074 297.101 68.8331 296.968 69.0075C296.834 69.1819 296.762 69.3953 296.762 69.6149C296.762 69.8344 296.834 70.0478 296.968 70.2222C297.101 70.3966 297.288 70.5223 297.5 70.5799C298.88 71.0099 300.81 69.9199 302.06 69.4399C302.187 69.4051 302.305 69.3458 302.409 69.2651C302.513 69.1845 302.6 69.0842 302.665 68.97C302.73 68.8557 302.772 68.7298 302.788 68.5994C302.804 68.4689 302.795 68.3366 302.76 68.2099C301.4 63.0099 300.19 57.7699 298.88 52.5499C298.27 50.0699 297.59 47.5499 297.22 45.0599C296.88 42.7099 297.01 40.3099 296.33 38.0599C296.284 37.8925 296.195 37.7399 296.073 37.6172C295.95 37.4944 295.797 37.4058 295.63 37.3599C294.223 37.15 292.796 37.1097 291.38 37.2399C290.12 37.3599 288.6 37.5198 287.85 38.6798C287.1 39.8398 287.33 41.5899 287.7 42.9499C288.2 44.7899 288.77 46.6098 289.31 48.4298C290.542 52.6819 292.028 56.8561 293.76 60.9298C294.44 62.5198 295.2 64.0699 295.82 65.6699C296.471 66.9709 296.814 68.4048 296.82 69.8599C296.69 71.1399 298.69 71.1299 298.82 69.8599L298.77 69.8099Z" fill="#434040"/>
    <path d="M301.61 73.4801C300.427 73.5664 299.326 74.1119 298.54 75.0001C297.864 75.8203 297.509 76.8578 297.54 77.9201C297.551 78.9931 297.877 80.0393 298.478 80.9284C299.079 81.8174 299.928 82.5101 300.92 82.9201C302.038 83.2979 303.253 83.2682 304.351 82.8363C305.449 82.4044 306.359 81.5981 306.92 80.5601C307.81 78.5601 306.92 76.3401 305.55 74.8401C304.843 74.0437 303.901 73.4936 302.86 73.2701C302.284 73.1633 301.69 73.2127 301.139 73.4131C300.589 73.6136 300.102 73.9578 299.73 74.4101C299.544 74.5974 299.439 74.8509 299.439 75.1151C299.439 75.3792 299.544 75.6327 299.73 75.8201C299.823 75.9138 299.934 75.9882 300.055 76.039C300.177 76.0897 300.308 76.1159 300.44 76.1159C300.572 76.1159 300.703 76.0897 300.825 76.039C300.946 75.9882 301.057 75.9138 301.15 75.8201C301.27 75.6801 301.4 75.56 301.53 75.43C301.66 75.3 301.38 75.49 301.53 75.43L301.64 75.3601C301.715 75.3073 301.795 75.2637 301.88 75.2301C301.88 75.2301 301.62 75.3101 301.81 75.2301H301.93H302.13C302.31 75.2301 301.92 75.2301 302.05 75.2301H302.43C302.69 75.2301 302.23 75.2301 302.43 75.2301H302.66L302.92 75.3101C303.16 75.3901 302.75 75.2201 302.99 75.3101C303.23 75.4001 303.29 75.4701 303.44 75.5701C303.59 75.6701 303.58 75.6801 303.66 75.7201C303.74 75.7601 303.46 75.5501 303.66 75.7201L303.8 75.8301C303.941 75.9523 304.074 76.0825 304.2 76.2201C304.268 76.2855 304.332 76.3556 304.39 76.43L304.49 76.5501C304.61 76.6901 304.37 76.3701 304.49 76.5501C304.715 76.8698 304.919 77.2038 305.1 77.5501C305.17 77.6901 305.03 77.3601 305.1 77.6001C305.1 77.6901 305.17 77.7901 305.2 77.8901C305.23 77.9901 305.29 78.2601 305.33 78.4501C305.37 78.6401 305.33 78.2401 305.33 78.5101C305.335 78.6067 305.335 78.7035 305.33 78.8001C305.325 78.88 305.325 78.9601 305.33 79.04C305.33 79.26 305.33 79.04 305.33 79.04C305.33 78.82 305.33 79.0401 305.33 79.1101C305.33 79.1801 305.23 79.4401 305.19 79.6101C305.31 79.3901 305.15 79.7801 305.19 79.6101C305.188 79.6467 305.188 79.6834 305.19 79.7201L305.02 80.0001C304.9 80.1901 305.15 79.8701 304.96 80.0701L304.75 80.2801C304.7 80.3301 304.45 80.5101 304.67 80.3601L304.37 80.5701L304.03 80.7601L303.88 80.8301C304.01 80.7801 303.65 80.9401 303.88 80.8301C303.633 80.9296 303.379 81.0098 303.12 81.0701C303.06 81.0653 303 81.0653 302.94 81.0701C303.19 81.0701 302.8 81.0701 302.94 81.0701H302.66H302.19C302.39 81.0701 301.98 81.0701 302.19 81.0701C301.99 81.0701 301.82 80.9801 301.64 80.9201C301.46 80.8601 301.78 81.0101 301.54 80.9201L301.26 80.7701L301.03 80.6201C300.85 80.5001 301.16 80.7401 300.97 80.5601C300.81 80.4271 300.66 80.2835 300.52 80.1301L300.44 80.0301C300.54 80.1801 300.3 79.8801 300.44 80.0301L300.28 79.8001C300.163 79.628 300.06 79.4475 299.97 79.2601L299.92 79.1401C299.97 79.3101 299.82 78.9501 299.92 79.1401C299.896 79.0514 299.866 78.9646 299.83 78.8801C299.761 78.681 299.708 78.4771 299.67 78.2701C299.67 78.2701 299.67 78.1901 299.67 78.1501C299.67 78.3901 299.62 77.9401 299.67 78.1501C299.67 77.9101 299.67 77.9201 299.67 77.8101V77.4801C299.67 77.3901 299.74 77.0701 299.67 77.3901C299.67 77.1901 299.75 76.99 299.81 76.79C299.814 76.7435 299.814 76.6966 299.81 76.6501C299.7 76.8501 299.86 76.4701 299.81 76.6501C299.92 76.4501 299.89 76.4801 299.94 76.4001C299.99 76.3201 300.16 76.0701 300.06 76.2101C300.097 76.1643 300.137 76.1209 300.18 76.0801C300.25 76.0001 300.33 75.9401 300.4 75.8701C300.47 75.8001 300.4 75.8701 300.34 75.8701L300.5 75.7701C300.6 75.7001 300.71 75.6501 300.81 75.5901C301.02 75.5001 300.91 75.5301 300.81 75.5901L301.01 75.5201L301.36 75.4201L301.55 75.3701C301.6 75.3701 301.89 75.3201 301.64 75.3701C301.905 75.3701 302.16 75.2647 302.347 75.0772C302.535 74.8896 302.64 74.6353 302.64 74.3701C302.64 73.8901 302.17 73.3001 301.64 73.3701L301.61 73.4801Z" fill="#434040"/>
    <path d="M299.16 75.7C298.29 77.07 299.01 78.93 300.02 79.99C300.58 80.5833 301.345 80.9408 302.16 80.99C302.565 80.9963 302.966 80.9094 303.332 80.736C303.697 80.5626 304.019 80.3074 304.27 79.99C304.715 79.3504 304.93 78.5786 304.879 77.8011C304.828 77.0235 304.514 76.2863 303.99 75.71C303.764 75.4236 303.481 75.1869 303.159 75.0148C302.838 74.8428 302.484 74.739 302.12 74.71C301.731 74.7069 301.347 74.7958 301 74.9697C300.652 75.1435 300.351 75.3972 300.12 75.71C299.846 76.0228 299.643 76.3914 299.526 76.7903C299.409 77.1891 299.379 77.6087 299.44 78.02C299.58 78.6411 299.956 79.1829 300.49 79.53C300.972 79.8685 301.539 80.0664 302.127 80.1018C302.715 80.1371 303.301 80.0084 303.82 79.73C304.105 79.5609 304.351 79.3337 304.542 79.0632C304.733 78.7927 304.866 78.485 304.93 78.16C305.088 77.3965 304.956 76.6017 304.56 75.93C304.345 75.6144 304.036 75.3748 303.677 75.2455C303.318 75.1162 302.927 75.1038 302.56 75.21C302.227 75.3224 301.919 75.5 301.655 75.7325C301.391 75.965 301.176 76.2477 301.022 76.5642C300.869 76.8807 300.78 77.2246 300.76 77.5758C300.741 77.9271 300.792 78.2786 300.91 78.61C301.261 79.468 301.932 80.1563 302.78 80.53C303.144 80.7195 303.551 80.8117 303.961 80.7977C304.37 80.7837 304.77 80.6639 305.12 80.45C305.419 80.2503 305.666 79.9817 305.84 79.6667C306.014 79.3518 306.11 78.9997 306.12 78.64C306.122 78.2698 306.023 77.9061 305.835 77.5874C305.646 77.2687 305.375 77.007 305.05 76.83C304.702 76.6543 304.321 76.5537 303.932 76.5347C303.542 76.5158 303.153 76.5789 302.79 76.72C302.449 76.8403 302.143 77.0429 301.898 77.3097C301.654 77.5766 301.48 77.8996 301.39 78.25C301.257 78.8232 301.303 79.4233 301.52 79.97C301.697 80.6077 302.098 81.1605 302.648 81.5276C303.199 81.8947 303.863 82.0517 304.52 81.97C305.236 81.7552 305.846 81.2809 306.23 80.64C306.437 80.3553 306.577 80.028 306.642 79.6819C306.706 79.3359 306.691 78.9799 306.6 78.64C306.39 78.0841 306.001 77.614 305.494 77.3042C304.986 76.9945 304.39 76.8628 303.8 76.93C303.454 76.9558 303.117 77.0591 302.816 77.2322C302.515 77.4052 302.257 77.6437 302.06 77.93C301.883 78.2286 301.772 78.5609 301.732 78.9055C301.692 79.2501 301.726 79.5992 301.83 79.93C301.922 80.2994 302.104 80.6401 302.361 80.9212C302.618 81.2023 302.94 81.415 303.3 81.54C303.604 81.6092 303.919 81.6148 304.226 81.5563C304.532 81.4978 304.823 81.3765 305.08 81.2C306.08 80.56 306.91 79.2 306.23 78.03C306.108 77.821 305.946 77.6381 305.753 77.4918C305.561 77.3455 305.341 77.2386 305.107 77.1773C304.873 77.116 304.629 77.1015 304.389 77.1345C304.15 77.1676 303.919 77.2476 303.71 77.37C303.41 77.6002 303.178 77.9084 303.04 78.261C302.903 78.6136 302.865 78.9972 302.93 79.37C303.03 79.675 303.204 79.95 303.438 80.1701C303.671 80.3901 303.956 80.5481 304.267 80.6297C304.577 80.7112 304.903 80.7137 305.214 80.6369C305.526 80.5601 305.813 80.4065 306.05 80.19C306.288 79.9033 306.442 79.5557 306.493 79.1864C306.544 78.8171 306.491 78.4408 306.34 78.1C306.273 77.8871 306.14 77.7008 305.96 77.5679C305.78 77.435 305.563 77.3623 305.34 77.36C304.726 77.3222 304.118 77.4865 303.606 77.8279C303.095 78.1693 302.71 78.6688 302.51 79.25C302.408 79.4756 302.393 79.731 302.469 79.9668C302.544 80.2026 302.705 80.402 302.919 80.5264C303.133 80.6508 303.385 80.6914 303.627 80.6404C303.87 80.5893 304.084 80.4502 304.23 80.25C304.427 79.9801 304.524 79.6506 304.506 79.3172C304.488 78.9838 304.355 78.6669 304.13 78.42C303.715 78.0614 303.189 77.8566 302.64 77.84C302.194 77.7927 301.744 77.8266 301.31 77.94C301.057 77.9834 300.827 78.1123 300.657 78.3053C300.488 78.4983 300.39 78.7435 300.38 79C300.387 79.1771 300.437 79.3498 300.526 79.5032C300.615 79.6565 300.74 79.7859 300.89 79.88L300.98 79.93C301.18 80.03 300.91 79.99 300.76 79.68C300.826 79.7938 300.914 79.8934 301.019 79.9731C301.124 80.0527 301.243 80.111 301.37 80.1444C301.498 80.1779 301.63 80.1859 301.761 80.1679C301.891 80.15 302.016 80.1066 302.13 80.04C302.244 79.9739 302.343 79.8859 302.423 79.7812C302.503 79.6765 302.561 79.557 302.594 79.4298C302.628 79.3025 302.636 79.1699 302.618 79.0395C302.6 78.9091 302.557 78.7836 302.49 78.67C302.384 78.4937 302.236 78.3461 302.06 78.24H301.99C301.87 78.17 301.99 78.24 302.09 78.33L302.38 79.04L302.09 79.75C301.86 80.04 301.59 79.98 301.86 79.92H302.01C302.2 79.92 301.76 79.92 301.96 79.92H302.61C302.72 79.92 302.35 79.86 302.56 79.92C302.56 79.92 302.82 80.01 302.83 79.99C302.84 79.97 302.6 79.87 302.76 79.99C302.92 80.11 302.88 80.11 302.69 79.92C302.8 80.03 302.54 79.71 302.62 79.83L302.54 79.66C302.54 79.45 302.54 79.4 302.54 79.5V79.31C302.54 79.38 302.54 79.37 302.54 79.31C302.54 79.25 302.54 79.31 302.49 79.38L304.21 80.38C304.29 80.2017 304.38 80.0281 304.48 79.86L304.57 79.72C304.57 79.72 304.75 79.52 304.76 79.51H304.81L304.95 79.43C304.95 79.43 304.74 79.5 304.89 79.43H305.02C305.02 79.43 304.79 79.43 304.97 79.43C305.096 79.42 305.224 79.42 305.35 79.43L304.35 78.7C304.396 78.8137 304.432 78.9307 304.46 79.05C304.46 79.22 304.46 78.77 304.46 78.98V79.11C304.46 79.26 304.46 78.84 304.46 78.98C304.46 79.12 304.35 79.06 304.51 78.89C304.51 78.89 304.51 78.89 304.51 78.97C304.51 79.05 304.69 78.76 304.6 78.85C304.51 78.94 304.82 78.73 304.7 78.78H304.63C304.52 78.87 304.91 78.68 304.75 78.73H304.66C304.92 78.61 304.93 78.73 304.81 78.73H304.7C304.59 78.73 304.57 78.64 304.85 78.73H304.75C304.717 78.7242 304.683 78.7242 304.65 78.73C304.55 78.73 304.87 78.85 304.79 78.78L304.7 78.73C304.55 78.67 304.89 78.92 304.8 78.81L304.74 78.76C304.6 78.64 304.88 78.96 304.81 78.85C304.88 79.11 304.74 78.74 304.81 78.85C304.74 78.59 304.81 79.14 304.81 78.99C304.81 78.84 304.81 78.92 304.81 78.9C304.86 79.07 304.75 79.17 304.81 79.01C304.87 78.85 304.9 79.01 304.76 79.11C304.784 79.0756 304.804 79.0387 304.82 79L304.87 78.93C304.93 78.85 304.87 78.88 304.8 79.02C304.892 78.9348 304.978 78.8447 305.06 78.75L304.36 79.04C304.53 79.04 304.13 79.04 304.29 79.04H304.45C304.49 79.0458 304.53 79.0458 304.57 79.04C304.64 79.04 304.42 78.98 304.42 78.98H304.49L304.59 79.04C304.59 79.04 304.37 78.87 304.48 78.97C304.6 79.11 304.59 79.07 304.48 78.97C304.48 78.97 304.36 78.7 304.42 78.84C304.48 78.98 304.42 78.9 304.42 78.92C304.42 78.94 304.42 78.63 304.42 78.79C304.415 78.8232 304.415 78.8569 304.42 78.89C304.42 79.03 304.42 78.71 304.42 78.75C304.416 78.7832 304.416 78.8169 304.42 78.85V78.95C304.37 79.11 304.48 78.82 304.42 78.85C304.36 78.88 304.36 78.98 304.32 79.04L304.26 79.13C304.15 79.31 304.39 78.99 304.31 79.07C304.23 79.15 304.08 79.29 303.97 79.41C303.97 79.41 304.19 79.25 304.06 79.34L303.96 79.41L303.76 79.51C303.76 79.51 304.02 79.42 303.9 79.45H303.8H303.71C303.71 79.45 304 79.45 303.82 79.45H303.72C303.72 79.45 304 79.52 303.87 79.45H303.76C303.84 79.45 304.01 79.58 303.87 79.45C304.06 79.64 303.73 79.32 303.87 79.45C303.846 79.4179 303.819 79.3878 303.79 79.36C303.88 79.42 303.93 79.57 303.85 79.42C303.77 79.27 303.8 79.32 303.77 79.28C303.74 79.24 303.85 79.5 303.77 79.34C303.744 79.2181 303.711 79.0979 303.67 78.98C303.67 79.04 303.67 79.23 303.67 79.06C303.67 78.89 303.67 78.97 303.67 78.93C303.675 78.8835 303.675 78.8366 303.67 78.79C303.67 78.79 303.61 79.06 303.67 78.88V78.78C303.67 78.61 303.62 78.88 303.67 78.87C303.72 78.86 303.67 78.81 303.72 78.79C303.77 78.77 303.72 78.79 303.64 78.87C303.56 78.95 303.88 78.66 303.7 78.8C303.52 78.94 303.75 78.8 303.8 78.75C303.85 78.7 303.64 78.8 303.68 78.8H303.78C303.84 78.8 304.11 78.74 303.89 78.8C303.67 78.86 303.89 78.8 303.99 78.8C304.067 78.805 304.143 78.805 304.22 78.8C304.22 78.8 303.93 78.75 304.11 78.8H304.21L304.44 78.87C304.58 78.87 304.21 78.76 304.33 78.87H304.43L304.63 79C304.74 79.06 304.44 78.83 304.53 78.92C304.62 79.01 304.59 78.97 304.61 79C304.63 79.03 304.61 79.06 304.68 79.07C304.75 79.08 304.53 78.84 304.61 78.99C304.626 79.0223 304.647 79.0524 304.67 79.08C304.75 79.2 304.61 78.92 304.67 78.96C304.73 79 304.74 79.29 304.67 79.06C304.6 78.83 304.67 79.06 304.67 79.15C304.67 79.24 304.67 78.99 304.67 78.98C304.67 78.97 304.67 79.03 304.67 79.05C304.674 79.0933 304.674 79.1368 304.67 79.18C304.6 79.37 304.67 79.18 304.67 79.18C304.67 79.18 304.55 79.36 304.49 79.45C304.43 79.54 304.57 79.36 304.57 79.36C304.57 79.36 304.51 79.42 304.49 79.45C304.462 79.4913 304.428 79.5283 304.39 79.56C304.32 79.64 304.23 79.71 304.16 79.79C304.083 79.8719 304.04 79.9804 304.04 80.0931C304.04 80.2058 304.083 80.3141 304.161 80.3957C304.239 80.4773 304.345 80.526 304.458 80.5317C304.57 80.5374 304.681 80.4997 304.766 80.4263C304.852 80.353 304.906 80.2496 304.917 80.1375C304.929 80.0254 304.897 79.9131 304.828 79.8238C304.76 79.7345 304.659 79.675 304.548 79.6576C304.437 79.6401 304.323 79.6661 304.23 79.73L304.13 79.78C303.97 79.88 304.25 79.78 304.22 79.78H304.1C303.95 79.83 304.18 79.78 304.23 79.78H304C303.967 79.7751 303.933 79.7751 303.9 79.78C303.9 79.78 304.19 79.84 304.02 79.78C303.85 79.72 303.72 79.67 303.92 79.78C304.12 79.89 303.87 79.78 303.81 79.7C303.99 79.87 303.75 79.62 303.81 79.7L303.63 79.52L303.56 79.43C303.56 79.43 303.71 79.65 303.61 79.5L303.47 79.29L303.36 79.06C303.29 78.93 303.45 79.3 303.36 79.16C303.349 79.1114 303.333 79.0644 303.31 79.02L303.25 78.8C303.25 78.8 303.25 78.71 303.25 78.67C303.25 78.63 303.25 78.95 303.25 78.77C303.245 78.6934 303.245 78.6166 303.25 78.54C303.25 78.34 303.25 78.49 303.25 78.54V78.43C303.25 78.28 303.17 78.57 303.25 78.54C303.33 78.51 303.43 78.26 303.25 78.42C303.07 78.58 303.3 78.42 303.32 78.36C303.34 78.3 303.09 78.51 303.25 78.42L303.37 78.35C303.51 78.26 303.22 78.35 303.28 78.35H303.42H303.55H303.62C303.72 78.35 303.39 78.35 303.5 78.35C303.61 78.35 303.74 78.35 303.86 78.35C303.98 78.35 303.64 78.35 303.8 78.35L303.98 78.4C304.15 78.4 303.98 78.4 303.9 78.4L304.01 78.46C304.18 78.54 303.94 78.39 303.95 78.4L304.05 78.49C304.15 78.57 303.92 78.29 303.98 78.41C303.996 78.4455 304.016 78.479 304.04 78.51C304.04 78.51 303.96 78.26 303.99 78.4C303.984 78.4398 303.984 78.4802 303.99 78.52C303.99 78.63 303.99 78.24 303.99 78.41C303.985 78.4432 303.985 78.4769 303.99 78.51V78.61C303.99 78.75 304.07 78.47 304.04 78.5C304.014 78.5332 303.994 78.5704 303.98 78.61C303.9 78.76 304.06 78.52 304.04 78.54C304.012 78.5618 303.988 78.589 303.97 78.62C303.89 78.7 303.81 78.68 304.05 78.57C303.99 78.57 303.75 78.72 303.94 78.64C304.13 78.56 303.85 78.64 303.8 78.64C303.75 78.64 304.06 78.64 303.9 78.64C303.84 78.6303 303.78 78.6303 303.72 78.64C303.81 78.64 303.96 78.64 303.79 78.64H303.65H303.57C303.45 78.64 303.76 78.74 303.65 78.64L303.46 78.54L303.29 78.44L303.2 78.38C303.33 78.5 303.09 78.3 303.2 78.38C303.07 78.26 302.99 78.2 302.89 78.09L302.83 78.02C302.74 77.93 302.94 78.19 302.88 78.09L302.78 77.95C302.78 77.95 302.73 77.86 302.71 77.81C302.77 78.02 302.69 77.76 302.71 77.81C302.65 77.6 302.71 77.72 302.71 77.67C302.71 77.62 302.71 77.45 302.71 77.67C302.71 77.89 302.71 77.67 302.71 77.62V77.47C302.71 77.3 302.71 77.61 302.71 77.57C302.715 77.5202 302.715 77.4699 302.71 77.42V77.3C302.71 77.17 302.58 77.53 302.71 77.37L302.84 77.15C302.91 77.02 302.68 77.33 302.78 77.22C302.818 77.1883 302.852 77.1513 302.88 77.11L302.97 77.03C303.06 76.93 302.76 77.17 302.88 77.1L303.1 76.97C303.21 76.9 302.86 77.04 302.99 76.97C303.026 76.9758 303.064 76.9758 303.1 76.97C303.29 76.97 303.15 76.97 303.1 76.97C303.04 76.97 302.91 76.97 303.1 76.97C303.16 76.97 302.92 76.97 302.97 76.97H303.06C303.11 76.97 302.8 76.85 302.93 76.97C303.06 77.09 302.88 76.92 302.86 76.9L302.94 76.98C302.94 76.98 302.81 76.76 302.87 76.89C302.884 76.9359 302.904 76.9797 302.93 77.02C302.93 77.02 302.86 76.8 302.87 76.88V76.97C302.874 77.0166 302.874 77.0635 302.87 77.11C302.87 77.11 302.87 77.16 302.87 77.19C302.87 77.22 302.87 77.19 302.87 77.09C302.86 77.2065 302.86 77.3236 302.87 77.44C302.875 77.4933 302.875 77.5468 302.87 77.6C302.881 77.6909 302.927 77.774 302.998 77.8324C303.068 77.8907 303.158 77.9201 303.25 77.9143C303.341 77.9086 303.427 77.8682 303.49 77.8015C303.552 77.7347 303.587 77.6466 303.587 77.555C303.587 77.4635 303.552 77.3753 303.49 77.3086C303.427 77.2418 303.341 77.2015 303.25 77.1957C303.158 77.19 303.068 77.2193 302.998 77.2777C302.927 77.3361 302.881 77.4192 302.87 77.51C302.841 77.5984 302.817 77.6886 302.8 77.78C302.8 77.92 302.92 77.56 302.8 77.68V77.78L302.74 77.87C302.69 77.96 302.93 77.67 302.74 77.8L302.67 77.87C302.56 77.99 302.67 77.82 302.76 77.81C302.688 77.8462 302.618 77.8863 302.55 77.93C302.42 78.01 302.61 77.93 302.66 77.93H302.55C302.468 77.9559 302.385 77.9759 302.3 77.99C302.14 77.99 302.48 77.99 302.42 77.99H301.94C301.94 77.99 302.23 77.99 302.04 77.99H301.8L301.57 77.91C301.63 77.91 301.82 78.02 301.67 77.91L301.54 77.84L301.36 77.73C301.24 77.65 301.55 77.89 301.45 77.8L301.34 77.7L301.27 77.63C301.16 77.51 301.32 77.63 301.34 77.72C301.304 77.6479 301.264 77.5778 301.22 77.51C301.14 77.41 301.29 77.75 301.22 77.63C301.225 77.5902 301.225 77.5499 301.22 77.51C301.22 77.51 301.22 77.44 301.22 77.41C301.22 77.38 301.22 77.69 301.22 77.51V77.38C301.22 77.22 301.22 77.54 301.22 77.49C301.249 77.3949 301.273 77.298 301.29 77.2C301.34 77.03 301.23 77.32 301.29 77.27C301.35 77.22 301.29 77.17 301.37 77.12C301.393 77.0713 301.42 77.0245 301.45 76.98L301.51 76.9C301.57 76.79 301.38 77.04 301.51 76.95L301.77 76.68C301.89 76.56 301.59 76.79 301.77 76.68L301.93 76.58C302.06 76.5 301.71 76.65 301.86 76.58H301.98C302.15 76.53 301.98 76.58 301.87 76.58H302.04C302.17 76.58 301.8 76.52 301.93 76.58H302.05L302.16 76.64C302.33 76.75 302.09 76.58 302.11 76.64L302.33 76.84L302.43 76.96L302.61 77.24C302.627 77.2864 302.651 77.3301 302.68 77.37C302.77 77.58 302.68 77.37 302.68 77.37C302.59 77.16 302.68 77.37 302.68 77.43L302.73 77.6C302.759 77.702 302.782 77.8055 302.8 77.91C302.8 78.07 302.8 77.67 302.8 77.83C302.805 77.8933 302.805 77.9568 302.8 78.02C302.8 78.11 302.8 78.22 302.8 78.3C302.8 78.22 302.85 78.05 302.8 78.22C302.805 78.2799 302.805 78.3401 302.8 78.4C302.796 78.4399 302.796 78.4802 302.8 78.52C302.8 78.44 302.9 78.31 302.8 78.45L302.72 78.58C302.85 78.45 302.62 78.75 302.72 78.58L302.48 78.82C302.41 78.89 302.56 78.75 302.57 78.75C302.58 78.75 302.51 78.75 302.5 78.8L302.33 78.89C302.56 78.83 302.2 78.97 302.33 78.89H302.19C302.02 78.89 302.32 78.89 302.27 78.89H302.01C302.01 78.89 302.24 78.94 302.16 78.89H302.02L302 79C302.21 79.11 301.86 79 302 79L301.71 78.83C301.67 78.7824 301.623 78.7419 301.57 78.71C301.482 78.6317 301.398 78.5482 301.32 78.46L301.22 78.34C301.16 78.27 301.22 78.23 301.27 78.41C301.254 78.3778 301.233 78.3476 301.21 78.32C301.07 78.12 300.99 77.9 300.86 77.7C300.86 77.7 300.94 77.91 300.91 77.81V77.74L300.85 77.56C300.85 77.45 300.79 77.34 300.77 77.23C300.775 77.1969 300.775 77.1632 300.77 77.13C300.77 77.13 300.77 77.37 300.77 77.27C300.77 77.17 300.77 77.17 300.77 77.12C300.765 77.0735 300.765 77.0266 300.77 76.98C300.77 76.92 300.77 76.78 300.77 76.98C300.798 76.8913 300.821 76.8012 300.84 76.71C300.72 76.93 300.84 76.56 300.84 76.71L300.92 76.57C301.002 76.4569 301.06 76.3277 301.089 76.1909C301.118 76.054 301.119 75.9126 301.09 75.7757C301.061 75.6388 301.004 75.5094 300.922 75.396C300.84 75.2826 300.735 75.1877 300.614 75.1174C300.493 75.047 300.359 75.0029 300.219 74.9877C300.08 74.9726 299.94 74.9868 299.806 75.0295C299.673 75.0722 299.55 75.1423 299.446 75.2354C299.341 75.3285 299.258 75.4425 299.2 75.57L299.16 75.7Z" fill="#434040"/>
    <path d="M297.09 65.4601C297.605 66.3914 298.248 67.2463 299 68.0001C299.14 68.1411 299.318 68.2373 299.513 68.2763C299.708 68.3154 299.91 68.2956 300.093 68.2194C300.277 68.1433 300.433 68.0142 300.543 67.8487C300.653 67.6832 300.711 67.4887 300.71 67.2901C300.76 66.8368 300.678 66.3787 300.472 65.9718C300.266 65.565 299.945 65.2272 299.55 65.0001C299.436 64.9335 299.311 64.8901 299.18 64.8722C299.05 64.8542 298.917 64.8622 298.79 64.8957C298.663 64.9291 298.543 64.9874 298.438 65.0671C298.334 65.1467 298.246 65.2463 298.18 65.3601C297.874 65.8315 297.754 66.4001 297.845 66.9548C297.936 67.5094 298.23 68.0105 298.67 68.3601C298.857 68.5463 299.11 68.6509 299.375 68.6509C299.639 68.6509 299.892 68.5463 300.08 68.3601C300.357 68.1039 300.568 67.7851 300.697 67.4302C300.825 67.0754 300.867 66.6949 300.818 66.3207C300.769 65.9466 300.631 65.5896 300.415 65.2798C300.2 64.9699 299.913 64.7163 299.58 64.5401C299.448 64.4624 299.3 64.416 299.147 64.4045C298.995 64.393 298.842 64.4166 298.7 64.4736C298.558 64.5306 298.431 64.6194 298.328 64.7332C298.226 64.847 298.151 64.9828 298.11 65.1301C297.918 65.7011 297.852 66.3066 297.916 66.9054C297.98 67.5042 298.172 68.0822 298.48 68.6001C298.94 69.4201 300.48 69.1101 300.34 68.0901C299.744 63.6501 298.658 59.29 297.1 55.0901C295.83 51.4001 294.8 47.5201 292.96 44.0901C292.54 43.3001 291.37 41.4801 292.6 40.7401C293.08 40.4601 293.31 42.0801 293.4 42.5501C293.751 44.6832 293.952 46.8386 294 49.0001L296 48.7401C295.79 47.3401 295.89 45.8201 295.79 44.3901C295.69 42.9601 295.63 41.1301 294.79 39.8901C294.638 39.6104 294.413 39.3769 294.139 39.2142C293.865 39.0514 293.553 38.9656 293.235 38.9656C292.916 38.9656 292.604 39.0514 292.33 39.2142C292.056 39.3769 291.832 39.6104 291.68 39.8901C291.13 41.1101 291.68 42.7601 291.96 43.9901L293.89 43.4601C293.62 42.7801 292.57 41.3501 292.81 40.6201C293.05 39.8901 293.81 40.1701 294.04 40.6201C294.565 41.98 294.872 43.4143 294.95 44.8701C296.009 51.2788 297.432 57.6223 299.21 63.8701L300.88 62.8701C297.65 59.0701 297.06 53.5401 296.16 48.8201C295.45 45.0801 294.76 39.3101 290.62 37.8201C290.493 37.7852 290.361 37.7756 290.23 37.7919C290.1 37.8082 289.974 37.8501 289.86 37.9151C289.745 37.9801 289.645 38.067 289.564 38.1708C289.484 38.2746 289.424 38.3933 289.39 38.5201C287.93 42.5201 290.02 46.7601 291.3 50.5201C293 55.5201 294.53 60.5201 296.56 65.4401C297.04 66.5901 298.87 66.1801 298.49 64.9101C296.26 57.4301 294.56 49.8201 292.99 42.1801L291.06 42.7201C292.21 46.5901 292.99 50.5801 294.53 54.3301C295.01 55.5001 296.95 54.9901 296.46 53.8001C294.92 50.0501 294.14 46.0601 292.99 42.1801C292.918 41.9241 292.748 41.7071 292.516 41.5768C292.284 41.4465 292.011 41.4135 291.755 41.4851C291.499 41.5567 291.282 41.727 291.151 41.9586C291.021 42.1902 290.988 42.4641 291.06 42.7201C292.63 50.3501 294.33 57.9701 296.56 65.4401L298.49 64.9101C296.49 60.2401 295 55.4301 293.43 50.6201C292.28 47.0701 289.93 42.8601 291.32 39.0801L290.09 39.7801C292.09 40.5101 292.77 43.1801 293.27 45.0401C293.84 47.1801 294.22 49.3501 294.63 51.5201C295.48 55.9901 296.44 60.7501 299.46 64.3201C300.13 65.1001 301.39 64.2601 301.14 63.3201C300 59.2801 299 55.2101 298.14 51.1101C297.51 48.0501 297.09 44.9501 296.49 41.8901C296.16 40.2301 295.36 37.7801 293.22 38.0601C292.658 38.1225 292.129 38.3567 291.704 38.7307C291.28 39.1047 290.982 39.6003 290.85 40.1501C290.58 41.5101 291.46 42.7101 291.94 43.9101C292.42 45.1101 294.21 44.6601 293.87 43.3801C293.76 42.9401 293.65 42.5001 293.57 42.0501C293.573 41.601 293.537 41.1525 293.46 40.7101C292.9 40.1701 293.22 41.1301 293.28 41.2801C293.447 41.7662 293.561 42.2692 293.62 42.7801C293.92 44.9001 293.74 47.0601 294.05 49.1801C294.21 50.2901 296.05 50.0301 296.05 48.9101C295.94 46.9101 295.89 44.9101 295.61 42.9101C295.39 41.3701 295 38.4601 292.9 38.5001C292.343 38.5527 291.816 38.7717 291.386 39.1284C290.956 39.4852 290.644 39.9632 290.49 40.5001C290.282 41.0108 290.192 41.5614 290.225 42.1116C290.258 42.6617 290.413 43.1976 290.68 43.6801C291.34 45.1401 292.12 46.4801 292.68 47.9901C293.41 49.9901 294.05 51.9901 294.73 53.9901C296.32 58.5701 297.94 63.2101 298.45 68.0601L300.32 67.5601C300.145 67.273 300.039 66.9496 300.01 66.6149C299.98 66.2802 300.028 65.9433 300.15 65.6301L298.68 66.2301C299.02 66.4001 299.04 66.6201 298.78 66.9101H300.19L300.02 66.3201L298.65 66.6801C298.91 66.8401 298.83 66.9001 298.82 67.2401L300.53 66.5401C299.896 65.9161 299.354 65.2057 298.92 64.4301C298.781 64.2124 298.564 64.0566 298.314 63.9953C298.063 63.9339 297.799 63.9717 297.575 64.1008C297.352 64.2299 297.187 64.4402 297.115 64.6879C297.043 64.9356 297.07 65.2015 297.19 65.4301L297.09 65.4601Z" fill="#434040"/>
    <path d="M20.2606 94.1701C18.2759 94.9798 16.1428 95.3614 14.0005 95.2901C7.33055 95.2901 2.31055 91.0801 2.31055 83.2901C2.31055 75.8901 7.31055 70.8701 14.6705 70.8701C16.5921 70.7749 18.5102 71.1168 20.2805 71.8701L19.5406 74.3601C18.0444 73.6772 16.415 73.3356 14.7705 73.3601C9.23055 73.3601 5.54055 76.9101 5.54055 83.1201C5.54055 88.9101 8.87055 92.6301 14.6305 92.6301C16.3488 92.65 18.0521 92.3093 19.6305 91.6301L20.2606 94.1701Z" fill="#333333"/>
    <path d="M43.5607 82.8701C43.5607 91.0101 38.5607 95.3302 32.5607 95.3302C26.3207 95.3302 21.9307 90.4802 21.9307 83.3302C21.9307 75.8202 26.6007 70.9102 32.9307 70.9102C39.2607 70.9102 43.5607 75.8501 43.5607 82.8701ZM25.2007 83.2502C25.2007 88.3102 27.9407 92.8302 32.7507 92.8302C37.5607 92.8302 40.3307 88.3801 40.3307 83.0101C40.3307 78.3001 37.8707 73.3902 32.7807 73.3902C27.6907 73.3902 25.2007 78.0602 25.2007 83.2502Z" fill="#333333"/>
    <path d="M47.5205 94.94V71.29H50.8505L58.4405 83.29C60.0183 85.7592 61.4346 88.3279 62.6805 90.98H62.7505C62.4705 87.83 62.4005 84.98 62.4005 81.26V71.37H65.2805V95.0201H62.1905L54.6805 83.0201C53.0482 80.4789 51.5721 77.8406 50.2605 75.12H50.1505C50.3305 78.12 50.4005 80.94 50.4005 84.87V94.98L47.5205 94.94Z" fill="#333333"/>
    <path d="M70.1902 91.2202C71.8472 92.2121 73.739 92.7437 75.6702 92.7602C78.7902 92.7602 80.6102 91.1102 80.6102 88.7602C80.6102 86.5502 79.3502 85.2802 76.1602 84.0602C72.3002 82.6902 69.9102 80.6902 69.9102 77.3502C69.9102 73.6702 72.9602 70.9302 77.5602 70.9302C79.3736 70.8676 81.1732 71.2667 82.7901 72.0902L81.9501 74.5802C80.5661 73.8397 79.0198 73.4549 77.4501 73.4602C74.2301 73.4602 73.0002 75.3902 73.0002 77.0002C73.0002 79.2102 74.4401 80.3002 77.7001 81.5602C81.7001 83.1102 83.7001 85.0402 83.7001 88.5102C83.7001 92.1602 80.9902 95.3202 75.4102 95.3202C73.3137 95.3399 71.2475 94.8199 69.4102 93.8102L70.1902 91.2202Z" fill="#333333"/>
    <path d="M92.4009 73.8801H85.2109V71.29H102.721V73.8801H95.4909V94.94H92.4009V73.8801Z" fill="#333333"/>
    <path d="M105.351 71.6C107.285 71.2595 109.246 71.0954 111.211 71.11C114.481 71.11 116.581 71.71 118.061 73.04C118.672 73.6134 119.154 74.3104 119.474 75.0846C119.795 75.8588 119.947 76.6924 119.921 77.53C119.93 78.8788 119.499 80.1939 118.695 81.2764C117.89 82.3589 116.755 83.15 115.461 83.53V83.63C117.281 84.27 118.371 85.95 118.931 88.41C119.348 90.623 119.961 92.7948 120.761 94.9H117.601C116.894 93.0717 116.365 91.1796 116.021 89.25C115.321 85.99 114.021 84.76 111.281 84.65H108.411V94.9H105.351V71.6ZM108.411 82.38H111.531C114.791 82.38 116.861 80.59 116.861 77.88C116.861 74.88 114.651 73.5 111.421 73.46C110.413 73.4324 109.406 73.5264 108.421 73.74L108.411 82.38Z" fill="#333333"/>
    <path d="M127.29 71.29V85.29C127.29 90.59 129.64 92.83 132.79 92.83C136.3 92.83 138.55 90.52 138.55 85.29V71.29H141.64V85.08C141.64 92.34 137.81 95.33 132.69 95.33C127.85 95.33 124.2 92.55 124.2 85.22V71.29H127.29Z" fill="#333333"/>
    <path d="M163.47 94.1701C161.489 94.9784 159.359 95.36 157.22 95.2901C150.55 95.2901 145.53 91.0801 145.53 83.2901C145.53 75.8901 150.53 70.8701 157.89 70.8701C159.812 70.7749 161.73 71.1168 163.5 71.8701L162.76 74.3601C161.264 73.6772 159.635 73.3356 157.99 73.3601C152.45 73.3601 148.76 76.9101 148.76 83.1201C148.76 88.9101 152.1 92.6301 157.85 92.6301C159.569 92.65 161.272 92.3093 162.85 91.6301L163.47 94.1701Z" fill="#333333"/>
    <path d="M172.76 73.8801H165.57V71.29H183.08V73.8801H175.85V94.94H172.76V73.8801Z" fill="#333333"/>
    <path d="M188.771 71.29V94.94H185.711V71.29H188.771Z" fill="#333333"/>
    <path d="M214.311 82.8701C214.311 91.0101 209.371 95.3302 203.311 95.3302C197.061 95.3302 192.681 90.4802 192.681 83.3302C192.681 75.8202 197.341 70.9102 203.681 70.9102C210.021 70.9102 214.311 75.8501 214.311 82.8701ZM195.961 83.2502C195.961 88.3102 198.701 92.8302 203.511 92.8302C208.321 92.8302 211.091 88.3801 211.091 83.0101C211.091 78.3001 208.631 73.3902 203.541 73.3902C198.451 73.3902 196.001 78.0602 196.001 83.2502H195.961Z" fill="#333333"/>
    <path d="M218.28 94.94V71.29H221.61L229.19 83.29C230.775 85.757 232.195 88.3259 233.44 90.98H233.51C233.23 87.83 233.16 84.98 233.16 81.26V71.37H236V95.0201H233L225.49 83.0201C223.83 80.4418 222.33 77.7634 221 75H220.89C221.07 78 221.14 80.82 221.14 84.75V94.86L218.28 94.94Z" fill="#333333"/>
    <path d="M218.371 291.48C218.371 291.48 218.621 273.71 223.041 274.61C227.461 275.51 231.531 280.3 233.601 276.92C235.671 273.54 234.661 265.68 239.111 264.99C243.561 264.3 247.111 272.61 253.841 268.14C260.571 263.67 268.501 234.38 276.281 236.36C284.061 238.34 288.001 260.5 288.001 260.5C288.001 260.5 292.931 252.88 297.461 253.38C298.679 253.434 299.85 253.865 300.812 254.614C301.774 255.363 302.48 256.393 302.831 257.56C302.831 257.56 310.831 213.89 320.171 216.71C329.511 219.53 337.541 260 337.541 260C337.541 260 342.541 250.33 346.831 250.72C351.121 251.11 356.111 267.43 356.111 267.43C356.111 267.43 360.001 249.94 364.161 252C368.321 254.06 372.391 262 373.521 269C374.651 276 382.191 299.15 368.421 297.5C354.651 295.85 329.181 293.98 320.051 295.24C310.921 296.5 290.051 302.36 266.051 295.02C242.051 287.68 229.811 304.29 218.371 291.48Z" fill="#A67142"/>
    <path d="M219.651 289.4C220.331 284.73 221.041 270.4 228.271 277.99C230.961 280.82 234.961 277.6 236.201 274.99C237.201 272.89 237.331 270.42 238.031 268.21C240.031 261.95 244.381 266.89 246.961 268.71C250.161 270.98 254.201 269.56 256.841 267.25C265.051 260.05 265.011 246.9 273.041 239.3C278.741 233.91 281.311 241.85 282.561 246.4C283.951 251.4 284.561 256.67 286.441 261.56C286.671 262.18 287.591 262.64 288.111 262C289.691 260.05 291.111 258 292.731 256.05C295.991 252.05 299.401 255.62 302.171 258.28C302.358 258.466 302.612 258.571 302.876 258.571C303.14 258.571 303.394 258.466 303.581 258.28C307.821 253.18 308.311 244.75 309.581 238.51C310.651 233.18 312.211 218.13 319.581 217.69C326.741 217.26 329.481 234.02 330.671 238.79C332.411 245.84 333.151 254.1 336.671 260.56C336.748 260.693 336.855 260.807 336.984 260.893C337.112 260.978 337.259 261.033 337.411 261.052C337.564 261.071 337.72 261.055 337.866 261.004C338.011 260.954 338.143 260.87 338.251 260.76C339.634 259.011 340.89 257.167 342.011 255.24C342.791 254.04 345.391 250.3 347.541 252.39C348.541 253.39 349.221 255.39 349.741 256.67C351.231 260.37 352.161 265.54 355.401 268.19C355.508 268.304 355.641 268.392 355.788 268.446C355.936 268.5 356.093 268.518 356.249 268.5C356.405 268.481 356.554 268.426 356.685 268.34C356.815 268.253 356.924 268.136 357.001 268C359.671 264.14 360.281 259.11 362.461 255C366.291 247.73 371.051 262.35 371.641 264.72C372.551 268.36 373.031 272.1 373.641 275.8C374.581 281.56 376.051 288.06 375.211 293.92C375.031 295.18 376.961 295.72 377.141 294.45C378.031 288.19 376.561 281.45 375.571 275.27C374.651 269.49 373.831 263.69 371.721 258.2C370.721 255.68 367.011 248.83 363.121 251.38C358.171 254.62 358.441 262.47 355.291 267.02L356.861 266.82C352.071 262.92 352.961 254.89 348.541 250.58C343.941 246.09 338.801 257.19 336.871 259.39L338.441 259.6C335.341 253.89 328.831 204.1 314.751 218.03C311.751 221.03 310.521 225.97 309.471 229.92C307.901 235.86 306.991 241.92 305.621 247.92C305.105 250.437 304.321 252.891 303.281 255.24C302.521 256.83 302.361 255.68 301.141 254.61C300.158 253.682 299.012 252.943 297.761 252.43C292.481 250.67 289.441 257.29 286.761 260.62L288.431 261.07C286.481 255.89 285.771 250.3 284.311 244.98C283.311 241.49 281.881 236.57 277.941 235.45C274.001 234.33 270.181 239.16 268.261 241.75C264.261 247.09 262.541 254 259.601 259.9C258.211 262.69 256.491 265.48 253.781 267.14C249.781 269.56 247.051 265.77 244.281 263.6C240.281 260.46 236.461 266.35 235.651 269.6C234.731 273.23 232.651 280.28 228.091 274.71C227.564 273.946 226.776 273.401 225.875 273.178C224.975 272.955 224.023 273.07 223.201 273.5C218.101 276.39 218.521 283.91 217.791 288.95C217.611 290.21 219.541 290.75 219.721 289.48L219.651 289.4Z" fill="#434040"/>
    <path d="M217.401 289.29C220.471 301.29 231.401 297.52 240.301 294.67C248.821 291.93 256.861 293.21 265.301 295.8C274.101 298.51 281.601 300.53 290.901 300.08C300.691 299.61 310.321 297.36 320.041 296.23C330.671 294.99 340.171 296.84 350.531 298.85C357.971 300.29 377.531 301.22 378.001 289.57C378.051 288.28 376.051 288.29 376.001 289.57C375.751 295.97 366.521 297.29 361.531 297.73C353.281 298.45 344.981 295.39 336.931 294.06C321.211 291.46 304.811 297.41 289.151 298.16C280.821 298.56 273.641 296.37 265.831 293.88C259.831 291.96 253.081 290.21 246.731 291.06C237.941 292.24 222.731 302.18 219.341 288.76C219.27 288.504 219.101 288.286 218.871 288.155C218.64 288.024 218.367 287.99 218.111 288.06C217.855 288.13 217.637 288.299 217.506 288.53C217.375 288.761 217.34 289.034 217.411 289.29H217.401Z" fill="#434040"/>
    <path d="M242.491 283.57C243.551 280.08 248.491 282.42 250.091 284.28C250.921 285.28 252.331 283.85 251.501 282.87C248.861 279.71 242.101 277.96 240.571 283.04C240.526 283.286 240.575 283.539 240.708 283.75C240.841 283.961 241.048 284.115 241.289 284.182C241.529 284.248 241.786 284.222 242.008 284.109C242.231 283.996 242.403 283.804 242.491 283.57Z" fill="#434040"/>
    <path d="M269.381 271C270.711 268.6 273.521 270.74 275.381 271.46C276.581 271.93 277.091 270 275.911 269.53C273.041 268.39 269.701 266.39 267.691 269.99C267.572 270.218 267.545 270.484 267.617 270.732C267.689 270.98 267.853 271.19 268.077 271.319C268.3 271.448 268.565 271.486 268.815 271.425C269.066 271.363 269.283 271.208 269.421 270.99L269.381 271Z" fill="#434040"/>
    <path d="M285.291 289C285.497 287.663 285.991 286.387 286.741 285.26C287.821 283.9 289.901 287.08 290.271 287.6C290.337 287.714 290.425 287.813 290.53 287.893C290.634 287.973 290.754 288.031 290.881 288.064C291.008 288.098 291.141 288.106 291.271 288.088C291.402 288.07 291.527 288.027 291.641 287.96C294.731 285.76 296.941 287.5 298.881 289.96C299.671 290.96 301.081 289.55 300.291 288.54C297.711 285.23 294.351 283.54 290.631 286.21L292.001 286.56C290.821 284.92 289.361 282.86 287.121 282.9C284.621 282.95 283.791 286.64 283.361 288.44C283.061 289.69 284.991 290.23 285.291 288.97V289Z" fill="#434040"/>
    <path d="M317.571 271.46C318.063 271.313 318.488 270.998 318.771 270.57C320.451 267.96 321.821 271.37 322.431 272.63C322.507 272.762 322.613 272.876 322.741 272.961C322.868 273.046 323.013 273.101 323.164 273.121C323.316 273.141 323.47 273.127 323.615 273.078C323.76 273.029 323.892 272.948 324.001 272.84C326.471 270.92 329.091 271.27 331.511 272.99C332.571 273.74 333.571 271.99 332.511 271.27C331.091 270.148 329.328 269.551 327.519 269.578C325.71 269.605 323.966 270.256 322.581 271.42L324.151 271.62C323.481 270.25 322.491 267.71 320.681 267.45C320.024 267.232 319.308 267.275 318.681 267.57C318.171 267.95 317.451 269.36 316.991 269.57C315.791 270.02 316.311 271.95 317.521 271.5L317.571 271.46Z" fill="#434040"/>
    <path d="M350.331 289C351.261 287.47 351.801 288.88 352.581 289.57C353.123 290.013 353.771 290.306 354.461 290.42C357.031 291.02 359.311 289.85 361.291 292.2C362.131 293.2 363.531 291.76 362.711 290.78C361.852 289.648 360.586 288.895 359.181 288.68C357.461 288.46 355.011 289.07 353.631 287.84C351.631 286.03 350.301 285.2 348.631 287.99C347.961 289.09 349.691 290.1 350.361 288.99L350.331 289Z" fill="#434040"/>
    <path d="M86.8098 319.9L140.4 288.95L140.29 300.81L86.3398 333.92L86.7798 321.64" fill="#F6BA4E"/>
    <path d="M16.47 284.89L16 295.93L87.13 333.98L86.76 320.69L16.47 284.89Z" fill="#F6BA4E"/>
    <path d="M56.9102 236.91C56.9102 236.91 84.3202 245.83 105.45 230.71C128.04 214.54 128.05 214.54 106.3 229.98L92.8902 192.98C92.8902 192.98 84.0002 186.6 77.0002 191.74L56.9102 236.91Z" fill="#F6BA4E"/>
    <path d="M35.8804 284.58C35.6804 283.92 47.4504 259.8 47.4504 259.8C47.4504 259.8 68.3704 265.89 81.0404 266.8C93.7104 267.71 112.97 256.8 112.97 256.8L121.25 288.49C121.25 288.49 92.0605 301.49 70.9205 299.9C49.7805 298.31 35.8804 284.58 35.8804 284.58Z" fill="#F6BA4E"/>
    <path d="M35.5698 285.78C36.3298 285.45 36.8098 283.91 37.1398 283.26C38.4898 280.58 39.7498 277.86 41.0098 275.15C44.7098 267.25 48.3098 259.32 51.8898 251.37C54.4398 245.72 56.8898 240 59.4498 234.37C62.8831 226.963 66.3565 219.57 69.8698 212.19C72.9298 205.78 74.7898 198.66 78.1898 192.46C78.8098 191.33 77.0898 190.32 76.4698 191.46C73.3298 197.17 71.7798 203.61 68.9598 209.46C65.6998 216.26 62.4831 223.083 59.3098 229.93C56.5798 235.82 54.0098 241.79 51.3098 247.71C47.8431 255.43 44.3365 263.13 40.7898 270.81C39.4098 273.81 38.0298 276.74 36.6098 279.69C36.1798 280.6 34.6098 283.97 34.5198 284.03C33.3398 284.54 34.3498 286.26 35.5198 285.76L35.5698 285.78Z" fill="#434040"/>
    <path d="M76.4507 192.6C79.2743 194.358 82.4299 195.516 85.7207 196C88.7207 196.37 90.5607 194.91 93.1507 193.91C94.3407 193.46 93.8307 191.52 92.6207 191.99C90.5607 192.78 89.0507 193.91 86.7507 194.04C83.4807 194.22 80.1907 192.47 77.4607 190.88C77.2351 190.778 76.9797 190.763 76.7439 190.839C76.5081 190.914 76.3087 191.075 76.1843 191.289C76.0599 191.503 76.0193 191.755 76.0703 191.997C76.1214 192.24 76.2605 192.454 76.4607 192.6H76.4507Z" fill="#434040"/>
    <path d="M92 192.82C95.44 210.08 104 225.82 108.42 242.82C110.63 251.36 113.34 259.76 115.72 268.25C116.84 272.25 117.77 276.35 118.72 280.43C119.26 282.89 120.5 286 120.34 288.52C120.25 289.8 122.25 289.8 122.34 288.52C122.45 286.81 121.74 284.93 121.34 283.28C120.43 279.28 119.6 275.28 118.6 271.28C116.33 262.15 113.34 253.21 110.85 244.14C108.429 235.277 105.532 226.551 102.17 218C98.86 209.59 95.65 201.17 93.88 192.28C93.63 191.02 91.7 191.55 91.95 192.81L92 192.82Z" fill="#434040"/>
    <path d="M35.0004 285.48C41.4304 296.75 58.0004 300.48 70.0004 300.89C79.2904 301.24 89.0004 299.89 98.0704 297.99C102.999 296.943 107.82 295.44 112.47 293.5C115.83 292.11 119.64 290.81 122.08 288.01C122.251 287.838 122.353 287.61 122.368 287.368C122.383 287.126 122.31 286.888 122.162 286.696C122.014 286.504 121.802 286.372 121.564 286.325C121.327 286.278 121.08 286.319 120.87 286.44L120.25 286.79C120.033 286.928 119.877 287.145 119.816 287.396C119.754 287.646 119.792 287.911 119.921 288.134C120.05 288.358 120.261 288.522 120.508 288.594C120.756 288.666 121.022 288.639 121.25 288.52L121.87 288.17L120.66 286.6C118.19 289.43 113.8 290.8 110.41 292.2C106.764 293.646 103.013 294.812 99.1904 295.69C90.4523 297.655 81.5355 298.717 72.5804 298.86C60.7804 299.27 43.0704 295.58 36.7404 284.47C36.602 284.252 36.3849 284.096 36.1344 284.035C35.8839 283.974 35.6193 284.012 35.396 284.141C35.1727 284.27 35.0079 284.48 34.9361 284.728C34.8642 284.975 34.8908 285.241 35.0104 285.47L35.0004 285.48Z" fill="#434040"/>
    <path d="M18.4801 284.08C27.3301 279.98 34.9301 273.82 42.4801 267.73C43.4801 266.92 42.0601 265.51 41.0601 266.31C33.6501 272.31 26.1801 278.31 17.4801 282.36C16.3101 282.9 17.3301 284.62 18.4801 284.08Z" fill="#434040"/>
    <path d="M16.8906 284.1C18.9606 287.86 23.6906 289.61 27.2406 291.61C33.1606 294.95 38.7506 299.05 44.7006 302.44C50.8123 306.122 57.1593 309.399 63.7006 312.25C71.2406 315.35 78.9506 317.93 86.2706 321.55C87.4206 322.12 88.4406 320.4 87.2706 319.83C74.5706 313.54 60.8106 309.94 48.6706 302.45C42.8906 298.89 36.8006 295.89 31.2506 291.95C27.4406 289.25 20.9306 287.28 18.6206 283.09C18.0006 281.96 16.2706 282.97 16.9006 284.09L16.8906 284.1Z" fill="#434040"/>
    <path d="M87.0804 320.87C90.7304 319.8 93.4804 317.17 96.4704 314.93C100.7 311.77 105.64 309.49 110.38 307.21C121.02 302.09 130.66 295.6 140.91 289.82L139.7 288.25L138.84 289.17C137.96 290.11 139.37 291.53 140.25 290.58L141.11 289.66C141.281 289.488 141.383 289.26 141.398 289.018C141.413 288.777 141.34 288.538 141.192 288.346C141.044 288.154 140.832 288.022 140.594 287.975C140.357 287.928 140.11 287.969 139.9 288.09C130.68 293.29 122.04 299.33 112.5 303.98C107.78 306.28 103.04 308.49 98.5004 311.2C94.5004 313.6 91.0804 317.6 86.5004 318.94C86.2444 319.01 86.0269 319.179 85.8956 319.41C85.7644 319.641 85.7301 319.914 85.8004 320.17C85.8707 320.426 86.0397 320.643 86.2704 320.775C86.5011 320.906 86.7744 320.94 87.0304 320.87H87.0804Z" fill="#434040"/>
    <path d="M116.66 267.47C126.08 272.29 131.66 281.63 139.82 288.08V286.67H139.71C138.42 286.67 138.42 288.67 139.71 288.67C139.995 288.689 140.281 288.642 140.544 288.533C140.808 288.424 141.043 288.255 141.23 288.04C141.417 287.852 141.521 287.599 141.521 287.335C141.521 287.071 141.417 286.817 141.23 286.63C132.97 280.07 127.23 270.63 117.67 265.71C116.53 265.12 115.52 266.85 116.67 267.43L116.66 267.47Z" fill="#434040"/>
    <path d="M85.7602 320.69C85.4502 324.5 85.0102 328.33 85.4802 332.14C85.4802 332.405 85.5855 332.659 85.7731 332.847C85.9606 333.035 86.215 333.14 86.4802 333.14C86.7454 333.14 86.9998 333.035 87.1873 332.847C87.3748 332.659 87.4802 332.405 87.4802 332.14L87.5402 331.36C87.6402 330.07 85.6402 330.08 85.5402 331.36L85.4802 332.14H87.4802C87.0102 328.33 87.4802 324.5 87.7602 320.69C87.8602 319.41 85.8602 319.42 85.7602 320.69Z" fill="#434040"/>
    <path d="M140 288.8C139.68 293.13 139.52 297.47 139.21 301.8C139.12 303.08 141.12 303.08 141.21 301.8C141.52 297.47 141.68 293.13 142 288.8C142.09 287.51 140.09 287.52 140 288.8Z" fill="#434040"/>
    <path d="M88.0002 333.08C96.6102 326.77 106.18 322.08 115.48 316.94C124.09 312.15 131.84 305.75 140.83 301.68C142 301.14 140.98 299.42 139.83 299.95C130.83 304.02 123.03 310.36 114.49 315.22C105.22 320.48 95.6302 325.03 87.0002 331.36C86.0002 332.11 87.0002 333.85 88.0002 333.08Z" fill="#434040"/>
    <path d="M15.4703 284.89C15.0802 288.506 15.0802 292.154 15.4703 295.77C15.5903 297.04 17.5903 297.05 17.4703 295.77C17.0802 292.154 17.0802 288.506 17.4703 284.89C17.6203 283.61 15.6203 283.62 15.4703 284.89Z" fill="#434040"/>
    <path d="M16.3102 296.86C27.9302 303.57 40.0302 309.38 51.9502 315.53C57.9502 318.6 63.7702 321.83 69.5002 325.29C72.5002 327.09 75.3302 329.17 78.4502 330.74C81.2102 332.13 84.0502 333.09 86.6302 334.84C86.8002 334.22 86.9702 333.6 87.1302 332.98L86.3402 332.92C85.0602 332.82 85.0702 334.82 86.3402 334.92L87.1302 334.98C88.2002 335.06 88.3902 333.63 87.6402 333.11C82.7802 329.81 77.1102 327.68 72.0902 324.53C66.4102 320.96 60.5002 317.76 54.5702 314.64C42.1502 308.12 29.4602 302.15 17.3102 295.13C17.0817 295.01 16.8158 294.984 16.5681 295.056C16.3204 295.128 16.11 295.292 15.9809 295.516C15.8518 295.739 15.814 296.004 15.8754 296.254C15.9368 296.505 16.0925 296.722 16.3102 296.86Z" fill="#434040"/>
    <path d="M47.2507 259.91C58.7307 262.91 69.9307 266.98 81.8607 267.64C87.6907 267.969 93.5258 267.09 99.0007 265.06C101.056 264.258 103.06 263.33 105.001 262.28C106.671 261.43 111.371 257.61 113.131 257.82L112.621 255.95H112.561C111.271 255.95 111.281 257.95 112.561 257.95C112.937 257.959 113.307 257.862 113.631 257.67C114.631 257.2 114.001 255.91 113.131 255.81C111.981 255.67 110.541 256.96 109.611 257.47C107.271 258.75 104.951 260.06 102.611 261.27C96.7387 264.226 90.2446 265.735 83.6707 265.67C71.4007 265.81 59.5207 261.01 47.8107 257.98C47.5651 257.936 47.3118 257.985 47.1005 258.117C46.8892 258.25 46.7353 258.457 46.6689 258.698C46.6025 258.938 46.6284 259.195 46.7416 259.418C46.8548 259.64 47.0471 259.812 47.2807 259.9L47.2507 259.91Z" fill="#434040"/>
    <path d="M56.4003 237.77C71.8903 244.77 93.3003 240.11 106.8 230.84C106.4 230.32 106 229.84 105.59 229.27L104.75 230C103.75 230.84 105.19 232.25 106.16 231.41L107.01 230.68C107.87 229.94 106.73 228.47 105.79 229.11C92.9603 237.93 72.2303 242.75 57.4103 236.05C56.2503 235.52 55.2303 237.24 56.4103 237.77H56.4003Z" fill="#434040"/>
    <path d="M60.7606 231.48C62.8606 231.65 64.9406 231.98 67.0406 232.15C68.3206 232.26 68.3106 230.26 67.0406 230.15C64.9406 229.98 62.8606 229.65 60.7606 229.48C59.4706 229.37 59.4806 231.37 60.7606 231.48Z" fill="#434040"/>
    <path d="M63.1205 225.51C65.1418 225.954 67.2148 226.115 69.2805 225.99C69.5457 225.99 69.8001 225.885 69.9876 225.697C70.1751 225.51 70.2805 225.255 70.2805 224.99C70.2805 224.725 70.1751 224.47 69.9876 224.283C69.8001 224.095 69.5457 223.99 69.2805 223.99C67.3939 224.119 65.4985 223.981 63.6505 223.58C63.5238 223.545 63.3914 223.536 63.261 223.552C63.1306 223.568 63.0047 223.61 62.8905 223.675C62.7763 223.74 62.676 223.827 62.5954 223.931C62.5147 224.035 62.4553 224.153 62.4205 224.28C62.3857 224.407 62.3762 224.539 62.3925 224.669C62.4089 224.8 62.4507 224.926 62.5158 225.04C62.5808 225.154 62.6676 225.254 62.7714 225.335C62.8751 225.416 62.9938 225.475 63.1205 225.51Z" fill="#434040"/>
    <path d="M65.4701 221.55L71.0001 222C72.2801 222.09 72.2701 220.09 71.0001 220L65.4901 219.58C64.2001 219.48 64.2101 221.48 65.4901 221.58L65.4701 221.55Z" fill="#434040"/>
    <path d="M67.9999 217L73.5099 217.42C74.7999 217.52 74.7899 215.51 73.5099 215.42L67.9999 215C66.7099 214.9 66.7199 216.9 67.9999 217Z" fill="#434040"/>
    <path d="M70.7805 211.46C72.5252 211.677 74.2944 211.593 76.0105 211.21C76.2664 211.14 76.4839 210.971 76.6152 210.74C76.7465 210.509 76.7808 210.236 76.7105 209.98C76.6402 209.724 76.4711 209.506 76.2404 209.375C76.0098 209.244 75.7364 209.21 75.4805 209.28C73.9352 209.604 72.3461 209.665 70.7805 209.46C69.5005 209.37 69.5105 211.37 70.7805 211.46Z" fill="#434040"/>
    <path d="M72.4199 207.22C73.9357 207.64 75.5209 207.749 77.0799 207.54C78.3499 207.31 77.8099 205.38 76.5499 205.61C75.3405 205.738 74.1176 205.63 72.9499 205.29C71.6899 205.02 71.1599 206.95 72.4199 207.22Z" fill="#434040"/>
    <path d="M75.0702 201.9C76.3161 202.025 77.5697 202.055 78.8202 201.99C80.1002 201.89 80.1102 199.89 78.8202 199.99C77.5697 200.055 76.3161 200.025 75.0702 199.9C73.7802 199.8 73.7902 201.8 75.0702 201.9Z" fill="#434040"/>
    <path d="M78.5898 192.5C80.9398 187.67 89.3799 191.06 92.8499 192.86C93.9899 193.46 94.9999 191.73 93.8499 191.14C89.3899 188.82 79.8499 185.37 76.8499 191.5C76.2899 192.65 78.0099 193.66 78.5799 192.5H78.5898Z" fill="#434040"/>
    <path d="M46.33 278.26C48.02 278.44 49.56 279.26 51.33 278.78C51.586 278.71 51.8035 278.541 51.9348 278.31C52.066 278.079 52.1003 277.806 52.03 277.55C51.9597 277.294 51.7907 277.076 51.56 276.945C51.3293 276.814 51.056 276.78 50.8 276.85C49.38 277.25 47.8 276.41 46.36 276.26C44.92 276.11 45.09 278.13 46.36 278.26H46.33Z" fill="#434040"/>
    <path d="M47.7299 271.82C49.1143 272.386 50.6059 272.642 52.0999 272.57C53.3799 272.48 53.3899 270.48 52.0999 270.57C50.7897 270.628 49.4825 270.4 48.2699 269.9C47.0699 269.42 46.5499 271.35 47.7299 271.82Z" fill="#434040"/>
    <path d="M49.85 264.86C51.13 265.363 52.4785 265.669 53.85 265.77C55.14 265.88 55.13 263.88 53.85 263.77C52.6736 263.667 51.5201 263.384 50.43 262.93C50.3032 262.895 50.1709 262.885 50.0404 262.902C49.91 262.918 49.7841 262.96 49.6698 263.025C49.5556 263.09 49.4553 263.177 49.3747 263.281C49.294 263.384 49.2347 263.503 49.2 263.63C49.1651 263.757 49.1555 263.889 49.1718 264.019C49.1881 264.15 49.2299 264.276 49.295 264.39C49.36 264.504 49.4469 264.605 49.5507 264.685C49.6545 264.766 49.7732 264.825 49.9 264.86H49.85Z" fill="#434040"/>
    <path d="M37.8102 282.07C43.6902 285.33 49.5202 288.64 55.8702 290.91C61.9902 293.1 68.6502 293.06 75.0402 293.5C76.3302 293.59 76.3202 291.58 75.0402 291.5C68.7302 291.06 62.5002 290.89 56.4102 288.99C50.3202 287.09 44.4702 283.48 38.8202 280.34C37.6902 279.71 36.6802 281.44 37.8202 282.07H37.8102Z" fill="#434040"/>
    <path d="M80.2698 293.25C81.1398 293.1 82.0098 292.99 82.8798 292.85C83.134 292.778 83.3493 292.608 83.4785 292.377C83.6078 292.147 83.6407 291.875 83.5698 291.62C83.5351 291.493 83.4757 291.374 83.3951 291.271C83.3145 291.167 83.2142 291.08 83.0999 291.015C82.9857 290.95 82.8598 290.908 82.7293 290.892C82.5989 290.875 82.4665 290.885 82.3398 290.92C81.4798 291.07 80.6098 291.17 79.7398 291.32C79.613 291.355 79.4943 291.414 79.3905 291.495C79.2867 291.575 79.1998 291.676 79.1348 291.79C79.0698 291.904 79.0279 292.03 79.0116 292.16C78.9953 292.291 79.0049 292.423 79.0398 292.55C79.0745 292.677 79.1339 292.795 79.2145 292.899C79.2951 293.003 79.3954 293.09 79.5097 293.155C79.6239 293.22 79.7498 293.262 79.8803 293.278C80.0107 293.294 80.1431 293.285 80.2698 293.25Z" fill="#434040"/>
    <path d="M86.8507 292.56C87.7407 292.39 88.5807 292.09 89.4707 291.96C89.7245 291.89 89.9404 291.722 90.0714 291.494C90.2025 291.265 90.2382 290.994 90.1707 290.74C90.136 290.613 90.0766 290.494 89.996 290.391C89.9153 290.287 89.815 290.2 89.7008 290.135C89.5866 290.07 89.4606 290.028 89.3302 290.012C89.1998 289.995 89.0674 290.005 88.9407 290.04C88.0507 290.16 87.2007 290.47 86.3207 290.63C86.194 290.665 86.0753 290.724 85.9716 290.805C85.8678 290.885 85.7809 290.986 85.7159 291.1C85.6509 291.214 85.6091 291.34 85.5927 291.47C85.5764 291.601 85.5859 291.733 85.6207 291.86C85.6555 291.986 85.7149 292.105 85.7956 292.209C85.8762 292.313 85.9765 292.4 86.0907 292.465C86.2049 292.53 86.3308 292.571 86.4612 292.588C86.5916 292.604 86.724 292.595 86.8507 292.56Z" fill="#434040"/>
    <path d="M110.75 285.27C111.51 285.13 112.23 284.84 112.97 284.65C113.226 284.58 113.444 284.41 113.575 284.18C113.706 283.949 113.741 283.676 113.67 283.42C113.6 283.164 113.431 282.946 113.2 282.815C112.97 282.684 112.696 282.65 112.44 282.72C111.7 282.92 110.98 283.2 110.22 283.34C110.093 283.375 109.975 283.434 109.871 283.515C109.767 283.595 109.68 283.695 109.615 283.81C109.55 283.924 109.508 284.05 109.492 284.18C109.476 284.311 109.485 284.443 109.52 284.57C109.555 284.697 109.614 284.815 109.695 284.919C109.776 285.023 109.876 285.11 109.99 285.175C110.104 285.24 110.23 285.282 110.361 285.298C110.491 285.314 110.624 285.305 110.75 285.27Z" fill="#434040"/>
    <path d="M116.891 282.57C118.247 282.054 119.467 281.237 120.461 280.18C121.461 279.33 120.021 277.92 119.051 278.76C118.307 279.581 117.387 280.223 116.361 280.64C116.105 280.71 115.887 280.879 115.756 281.11C115.625 281.341 115.59 281.614 115.661 281.87C115.731 282.126 115.9 282.343 116.131 282.475C116.361 282.606 116.635 282.64 116.891 282.57Z" fill="#434040"/>
    <path d="M91.3898 208C93.3198 213.16 95.2898 218.31 96.7298 223.63C96.8001 223.886 96.9691 224.103 97.1998 224.235C97.4305 224.366 97.7039 224.4 97.9598 224.33C98.2157 224.26 98.4333 224.091 98.5645 223.86C98.6958 223.629 98.7301 223.356 98.6598 223.1C97.2098 217.78 95.2498 212.63 93.3198 207.47C92.8698 206.27 90.9398 206.79 91.3898 208Z" fill="#434040"/>
    <path d="M52.83 256.1C56.83 259.1 62.18 259.87 67.11 259.86C67.3752 259.86 67.6296 259.755 67.8171 259.567C68.0046 259.38 68.11 259.125 68.11 258.86C68.11 258.595 68.0046 258.34 67.8171 258.153C67.6296 257.965 67.3752 257.86 67.11 257.86C62.5 257.86 57.63 257.19 53.84 254.38C52.84 253.6 51.84 255.38 52.84 256.1H52.83Z" fill="#434040"/>
    <path d="M72.0707 261.4C73.4592 261.656 74.8782 261.703 76.2807 261.54C77.5607 261.43 77.5707 259.43 76.2807 259.54C75.0574 259.694 73.8183 259.674 72.6007 259.48C71.3407 259.22 70.8007 261.15 72.0707 261.4Z" fill="#434040"/>
    <path d="M210.8 178.82L207.86 299.22L194.36 292.42L195.29 197.95L199.45 180H211" fill="#3B2814"/>
    <path d="M143.261 307.34C144.011 306.68 161.011 252.63 164.551 236.34C168.091 220.05 177.051 173.76 177.051 173.76L194.351 176.76C194.351 176.76 170.001 274 169.751 280.78C169.501 287.56 162.401 315.17 162.401 315.17L143.401 308.57" fill="#995B25"/>
    <path d="M200.291 176.89C200.291 176.89 196.071 193.05 194.561 199.49C193.051 205.93 179.141 271 177.771 277.37C176.401 283.74 168.771 313.48 168.771 313.48L162.381 315.17C162.381 315.17 169.151 282.17 170.911 274.17C172.671 266.17 179.911 233.63 181.321 229.56C182.731 225.49 191.231 179.81 194.541 176.21L200.291 176.89Z" fill="#4D2E13"/>
    <path d="M312.931 199.24L309.861 319.97L296.311 313.34L297.201 217.91L301.331 199H313.001" fill="#3B2814"/>
    <path d="M245.141 328.26C245.891 327.6 262.901 272.49 266.431 255.83C269.961 239.17 278.931 192.03 278.931 192.03L296.231 195.03C296.231 195.03 271.921 294.21 271.641 301.15C271.361 308.09 264.281 336.21 264.281 336.21L245.281 329.48" fill="#995B25"/>
    <path d="M302.171 198C302.171 198 297.951 214.16 296.441 220.6C294.931 227.04 281.001 292.06 279.651 298.45C278.301 304.84 270.651 334.55 270.651 334.55L264.251 336.25C264.251 336.25 271.021 303.25 272.781 295.25C274.541 287.25 281.781 254.71 283.191 250.64C284.601 246.57 293.101 200.89 296.411 197.29L302.171 198Z" fill="#4D2E13"/>
    <path d="M162.4 127.6L173.31 123.6C173.31 123.6 209.9 131.2 230.5 134.26C251.1 137.32 321.43 147.92 326.27 153.07L317.88 159.29C317.88 159.29 262.63 145.29 235.01 141.7C207.39 138.11 167.77 133.37 162.4 127.6Z" fill="#5C5E5C"/>
    <path d="M160.801 170.36L161.461 129.77C161.461 129.77 208.521 140.77 221.371 139.68C234.221 138.59 319.651 159.27 319.651 159.27L320.951 197.86L160.801 170.36Z" fill="#F6BA4E"/>
    <mask id="mask0_7899_65141" style="mask-type:luminance" maskUnits="userSpaceOnUse" x="160" y="129" width="161" height="69">
        <path d="M160.801 170.36L161.461 129.77C161.461 129.77 208.521 140.77 221.371 139.68C234.221 138.59 319.651 159.27 319.651 159.27L320.951 197.86L160.801 170.36Z" fill="white"/>
    </mask>
    <g mask="url(#mask0_7899_65141)">
        <path d="M195.78 119.11C176.09 131 157.21 144.2 138.43 157.5C129.27 163.99 138.03 179.23 147.3 172.67C166.07 159.36 184.95 146.2 204.64 134.28C214.32 128.42 205.5 113.23 195.78 119.11Z" fill="#333333"/>
        <path d="M252.18 123.14C221.88 137.88 195.49 158.98 168.29 178.59C164.42 181.39 162.55 186.18 165.14 190.59C167.38 194.42 173.26 196.59 177.14 193.74C204.33 174.13 230.72 153.02 261.03 138.29C271.23 133.35 262.32 118.21 252.18 123.14Z" fill="#333333"/>
        <path d="M319.42 133.4C316.8 128.94 311.77 128.3 307.42 130.25C277.42 143.62 250.04 161.81 223.29 180.73C214.12 187.21 222.88 202.45 232.15 195.89C258.91 176.98 286.27 158.79 316.28 145.42C320.64 143.47 321.63 137.18 319.42 133.4Z" fill="#333333"/>
        <path d="M356.93 135.7C323.06 153.65 290.98 174.64 259.77 196.84C250.62 203.35 259.38 218.59 268.63 212.01C299.85 189.81 331.92 168.82 365.79 150.87C375.81 145.56 366.93 130.4 356.93 135.7Z" fill="#333333"/>
    </g>
    <path d="M319.931 200.47L329.931 196.92C329.931 196.92 330.031 166.31 329.931 162.04C329.831 157.77 329.621 154.43 329.621 154.43L318.521 159.27C318.521 159.27 323.431 196.39 319.931 200.47Z" fill="#5C5E5C"/>
    <path d="M176.141 174.6C197.881 177.28 219.671 179.72 241.191 183.84C252.611 186.03 263.701 189.45 275.021 192.05C289.401 195.36 303.921 198.05 318.251 201.57C318.507 201.64 318.78 201.606 319.011 201.475C319.242 201.343 319.411 201.126 319.481 200.87C319.551 200.614 319.517 200.341 319.386 200.11C319.255 199.879 319.037 199.71 318.781 199.64C304.451 196.1 289.941 193.38 275.551 190.12C263.771 187.46 252.241 183.92 240.361 181.65C219.131 177.58 197.591 175.24 176.141 172.65C174.871 172.5 174.881 174.5 176.141 174.65V174.6Z" fill="#434040"/>
    <path d="M160.391 171.5C165.521 172.7 170.681 173.7 175.881 174.57C177.141 174.78 177.681 172.85 176.411 172.64C171.211 171.77 166.051 170.77 160.921 169.58C159.661 169.28 159.131 171.21 160.391 171.5Z" fill="#434040"/>
    <path d="M319.47 202C323.47 197.93 322.17 189.12 321.94 184.09C321.55 175.72 320.23 167.38 320.14 159C320.14 158.735 320.035 158.48 319.847 158.293C319.66 158.105 319.406 158 319.14 158C318.875 158 318.621 158.105 318.433 158.293C318.246 158.48 318.14 158.735 318.14 159C318.22 166.15 319.21 173.29 319.71 180.42C320.08 185.5 322.05 196.48 318.06 200.59C317.16 201.51 318.57 202.93 319.47 202Z" fill="#434040"/>
    <path d="M161 168.66C160.5 155.06 162.17 141.53 162.26 127.94C162.26 127.675 162.155 127.42 161.968 127.233C161.78 127.045 161.526 126.94 161.26 126.94C160.995 126.94 160.741 127.045 160.553 127.233C160.366 127.42 160.26 127.675 160.26 127.94C160.17 141.53 158.5 155.06 159 168.66C159 169.95 161 169.95 161 168.66Z" fill="#434040"/>
    <path d="M161.641 129.54C187.351 139 215.071 138.72 241.711 143.83C254.061 146.2 266.151 149.11 278.631 150.95C291.771 152.9 305.071 154.95 317.381 160.13C318.551 160.63 319.571 158.9 318.381 158.4C306.951 153.55 294.761 151.4 282.551 149.53C269.551 147.53 256.871 144.99 244.011 142.26C216.831 136.48 188.501 137.31 162.161 127.61C160.951 127.16 160.431 129.09 161.631 129.54H161.641Z" fill="#434040"/>
    <path d="M330.3 196.77C332.54 191.23 331.64 184.02 331.44 178.21C331.16 170.28 330.39 162.37 330.34 154.43C330.34 154.165 330.235 153.91 330.048 153.723C329.86 153.535 329.606 153.43 329.34 153.43C329.075 153.43 328.821 153.535 328.633 153.723C328.446 153.91 328.34 154.165 328.34 154.43C328.34 161.51 329 168.59 329.34 175.66C329.63 181.99 330.82 190.2 328.34 196.24C327.86 197.44 329.8 197.96 330.27 196.77H330.3Z" fill="#434040"/>
    <path d="M172.23 124.24C197.94 133.7 225.66 133.42 252.3 138.53C264.66 140.9 276.75 143.81 289.22 145.66C302.36 147.6 315.67 149.61 327.97 154.83C329.14 155.33 330.17 153.61 328.97 153.1C317.54 148.26 305.36 146.1 293.14 144.24C280.14 142.24 267.46 139.7 254.61 136.96C227.43 131.18 199.09 132.01 172.75 122.31C171.54 121.86 171.02 123.8 172.22 124.24H172.23Z" fill="#434040"/>
    <path d="M161.32 129.19C164.93 127.51 168.63 126.05 172.32 124.54C173.49 124.06 172.98 122.12 171.78 122.61C167.95 124.19 164.09 125.71 160.32 127.46C159.16 128 160.17 129.73 161.32 129.19Z" fill="#434040"/>
    <path d="M318.821 159.93C322.091 158.93 324.771 155.63 328.261 155.43C329.541 155.36 329.551 153.36 328.261 153.43C324.401 153.65 321.831 156.9 318.261 158C317.031 158.38 317.551 160.31 318.791 159.93H318.821Z" fill="#434040"/>
    <path d="M319.27 202.12C322.69 200.32 326.32 198.96 329.84 197.37C331.02 196.84 330 195.12 328.84 195.65C325.32 197.23 321.69 198.59 318.27 200.39C317.13 200.99 318.14 202.72 319.27 202.12Z" fill="#434040"/>
    <path d="M144.231 309C148.661 298.73 151.231 287.86 153.981 277.06C156.981 265.39 161.161 254.06 164.111 242.39C167.111 230.53 169.881 218.39 171.811 206.31C173.551 195.44 173.741 184.44 177.111 173.87C177.501 172.64 175.571 172.11 175.181 173.34C172.001 183.34 171.531 193.67 170.181 203.98C168.551 216.08 165.511 228.22 162.651 240.08C159.951 251.28 156.031 262.08 152.981 273.13C149.761 284.85 147.371 296.79 142.531 307.99C142.021 309.16 143.751 310.18 144.261 308.99L144.231 309Z" fill="#434040"/>
    <path d="M193.59 175.94C186.76 196.87 183.71 218.94 178.29 240.25C174.85 253.81 172.77 267.68 169.81 281.35C168.64 286.73 167.3 292.04 166.28 297.46C165.19 303.23 164.19 309.22 161.53 314.52C160.96 315.67 162.68 316.68 163.26 315.52C167.82 306.41 168.55 295.52 170.88 285.65C174.26 271.39 176.39 256.87 179.77 242.65C184.98 220.65 188.51 197.98 195.52 176.5C195.92 175.27 193.99 174.74 193.59 175.97V175.94Z" fill="#434040"/>
    <path d="M199.321 176.63C196.401 184.92 194.821 194.03 192.791 202.58C189.731 215.49 187.411 228.58 184.151 241.42C181.021 253.73 179.041 266.31 176.471 278.73C175.321 284.33 173.811 289.85 172.741 295.46C171.591 301.46 170.671 307.46 167.931 312.97C167.361 314.12 169.081 315.13 169.661 313.97C174.311 304.64 175.341 293.15 177.591 283.04C180.501 270.04 182.591 256.78 185.591 243.78C188.591 230.78 191.321 217.89 194.261 204.95C195.471 199.61 197.261 194.34 198.261 188.95C198.926 184.938 199.909 180.986 201.201 177.13C201.631 175.91 199.701 175.39 199.271 176.6L199.321 176.63Z" fill="#434040"/>
    <path d="M142.071 310.64C148.571 313.16 155.631 313.47 162.131 315.99C163.331 316.46 163.851 314.52 162.661 314.06C156.161 311.54 149.101 311.23 142.601 308.71C141.401 308.25 140.881 310.18 142.071 310.64Z" fill="#434040"/>
    <path d="M194.77 293.85C195.02 277.09 194.71 260.33 194.77 243.56C194.86 227.74 196.32 211.98 196.37 196.18C196.37 195.915 196.265 195.66 196.077 195.473C195.89 195.285 195.636 195.18 195.37 195.18C195.105 195.18 194.851 195.285 194.663 195.473C194.476 195.66 194.37 195.915 194.37 196.18C194.32 211.37 192.94 226.53 192.79 241.74C192.62 259.11 193.01 276.48 192.79 293.85C192.79 294.115 192.896 294.37 193.083 294.557C193.271 294.745 193.525 294.85 193.79 294.85C194.056 294.85 194.31 294.745 194.497 294.557C194.685 294.37 194.79 294.115 194.79 293.85H194.77Z" fill="#434040"/>
    <path d="M208.83 298.54C209.13 278.2 208.65 257.85 208.93 237.54C209.07 227.69 209.45 217.85 210.17 208.02C210.86 198.54 210.26 189.02 210.81 179.52C210.89 178.23 208.89 178.23 208.81 179.52C208.29 188.36 208.63 197.2 208.32 206.05C207.96 216.56 207.1 227.05 206.93 237.54C206.59 257.88 207.13 278.23 206.83 298.54C206.83 298.805 206.936 299.06 207.123 299.247C207.311 299.435 207.565 299.54 207.83 299.54C208.096 299.54 208.35 299.435 208.538 299.247C208.725 299.06 208.83 298.805 208.83 298.54Z" fill="#434040"/>
    <path d="M194.641 295.1C199.321 295.35 202.8 299.5 207.52 299.78C208.81 299.85 208.8 297.85 207.52 297.78C202.88 297.51 199.381 293.35 194.641 293.1C193.351 293.03 193.361 295.03 194.641 295.1Z" fill="#434040"/>
    <path d="M162.41 316.43C165.03 315.72 167.41 314.13 170.02 313.5C171.27 313.21 170.74 311.28 169.49 311.58C166.85 312.2 164.49 313.79 161.88 314.5C161.754 314.535 161.635 314.594 161.531 314.675C161.427 314.755 161.341 314.856 161.276 314.97C161.144 315.201 161.11 315.474 161.18 315.73C161.251 315.986 161.42 316.203 161.65 316.335C161.881 316.466 162.154 316.5 162.41 316.43Z" fill="#434040"/>
    <path d="M246.111 330.08C250.541 319.8 253.111 308.94 255.861 298.14C258.861 286.47 263.041 275.14 265.991 263.47C268.991 251.6 271.761 239.47 273.701 227.37C275.591 215.59 276.181 203.6 279.821 192.16C280.211 190.92 278.281 190.4 277.891 191.63C274.451 202.45 273.641 213.8 272.051 224.99C270.331 237.12 267.371 249.26 264.501 261.16C261.801 272.35 257.881 283.16 254.831 294.16C251.621 305.88 249.221 317.82 244.381 329.02C243.871 330.19 245.601 331.21 246.111 330.02V330.08Z" fill="#434040"/>
    <path d="M295.891 195.2C292.891 202.2 292.061 209.59 290.161 216.95C286.531 231.04 284.161 245.4 280.631 259.52C277.101 273.64 274.781 288.14 271.691 302.42C270.521 307.81 269.181 313.12 268.161 318.54C267.081 324.31 266.071 330.3 263.411 335.6C262.841 336.75 264.561 337.76 265.141 336.6C269.491 327.91 269.811 317.88 272.311 308.6C276.131 294.46 277.951 279.78 281.221 265.5C284.491 251.22 287.471 237.13 290.741 222.98C291.951 217.75 293.991 212.48 294.661 207.14C295.102 203.343 296.114 199.635 297.661 196.14C298.161 194.96 296.441 193.94 295.931 195.14L295.891 195.2Z" fill="#434040"/>
    <path d="M301.21 197.71C298.28 206 296.7 215.11 294.67 223.65C291.61 236.56 289.3 249.65 286.03 262.5C282.9 274.81 280.92 287.38 278.35 299.81C277.2 305.41 275.69 310.93 274.62 316.54C273.47 322.54 272.55 328.54 269.81 334.05C269.24 335.2 270.96 336.21 271.54 335.05C276.19 325.72 277.22 314.22 279.47 304.12C282.38 291.12 284.47 277.86 287.47 264.86C290.47 251.86 293.2 238.96 296.13 226.03C297.34 220.69 299.13 215.42 300.13 210.03C300.796 206.018 301.779 202.066 303.07 198.21C303.51 196.99 301.57 196.47 301.15 197.68L301.21 197.71Z" fill="#434040"/>
    <path d="M244 331.72C250.49 334.24 257.55 334.55 264.05 337.07C265.26 337.53 265.77 335.6 264.58 335.14C258.08 332.62 251.03 332.31 244.53 329.79C243.32 329.33 242.81 331.26 244 331.72Z" fill="#434040"/>
    <path d="M296.66 314.93C296.91 298.17 296.59 281.41 296.66 264.64C296.74 248.82 298.19 233.06 298.25 217.26C298.25 216.995 298.145 216.74 297.957 216.553C297.77 216.365 297.516 216.26 297.25 216.26C296.985 216.26 296.731 216.365 296.543 216.553C296.356 216.74 296.25 216.995 296.25 217.26C296.25 232.46 294.82 247.61 294.67 262.82C294.5 280.19 294.9 297.56 294.67 314.93C294.67 315.195 294.776 315.45 294.963 315.637C295.151 315.825 295.405 315.93 295.67 315.93C295.936 315.93 296.19 315.825 296.377 315.637C296.565 315.45 296.67 315.195 296.67 314.93H296.66Z" fill="#434040"/>
    <path d="M310.71 319.61C311.01 299.27 310.53 278.93 310.81 258.61C310.95 248.76 311.33 238.91 312.05 229.09C312.74 219.61 312.14 210.09 312.69 200.59C312.77 199.3 310.77 199.31 310.69 200.59C310.18 209.43 310.51 218.27 310.2 227.12C309.84 237.62 308.98 248.12 308.81 258.61C308.47 278.95 309.01 299.29 308.71 319.61C308.71 319.875 308.816 320.13 309.003 320.317C309.191 320.505 309.445 320.61 309.71 320.61C309.976 320.61 310.23 320.505 310.417 320.317C310.605 320.13 310.71 319.875 310.71 319.61Z" fill="#434040"/>
    <path d="M296.52 316.17C301.2 316.43 304.69 320.58 309.4 320.86C310.69 320.93 310.68 318.93 309.4 318.86C304.76 318.58 301.26 314.43 296.52 314.17C295.23 314.1 295.24 316.1 296.52 316.17Z" fill="#434040"/>
    <path d="M264.291 337.51C266.921 336.8 269.291 335.2 271.901 334.58C273.161 334.29 272.621 332.36 271.371 332.66C268.731 333.28 266.371 334.87 263.761 335.58C263.505 335.65 263.288 335.819 263.156 336.05C263.025 336.281 262.991 336.554 263.061 336.81C263.131 337.066 263.3 337.283 263.531 337.415C263.762 337.546 264.035 337.58 264.291 337.51Z" fill="#434040"/>
    <path d="M200.001 103.81C200.001 103.81 190.541 104.7 188.921 110.94C187.301 117.18 182.541 134.33 196.571 138.39C210.601 142.45 211.441 125.39 211.441 125.39C211.441 125.39 212.351 105.79 200.001 103.81Z" fill="#F6FEFF"/>
    <path d="M215.851 119.32C215.818 119.138 215.735 118.969 215.611 118.831C215.488 118.693 215.328 118.592 215.151 118.54C215.151 118.26 215.041 117.97 214.991 117.69C214.986 117.66 214.986 117.63 214.991 117.6C214.878 116.98 214.758 116.38 214.631 115.8C214.916 115.652 215.131 115.399 215.23 115.094C215.33 114.789 215.305 114.457 215.161 114.17C214.228 112.553 213.085 111.066 211.761 109.75C210.761 108.44 209.761 107.13 208.671 105.91C208.531 105.755 208.35 105.644 208.149 105.589C207.949 105.534 207.736 105.538 207.537 105.6C207.338 105.662 207.161 105.78 207.027 105.939C206.893 106.099 206.808 106.293 206.781 106.5C206.661 106.6 206.565 106.726 206.499 106.867C206.433 107.009 206.398 107.164 206.398 107.32C206.398 107.476 206.433 107.631 206.499 107.772C206.565 107.914 206.661 108.039 206.781 108.14C209.281 110.54 210.681 113.5 212.041 116.57C212.414 118.723 212.595 120.905 212.581 123.09C212.322 123.893 211.948 124.654 211.471 125.35C211.353 125.49 211.276 125.66 211.248 125.841C211.22 126.022 211.242 126.207 211.313 126.377C211.383 126.546 211.498 126.692 211.646 126.801C211.794 126.909 211.969 126.974 212.151 126.99C211.954 127.901 211.673 128.791 211.311 129.65C210.201 131.37 208.921 132.93 207.641 134.56C207.421 134.779 207.297 135.076 207.296 135.386C207.295 135.697 207.417 135.995 207.636 136.215C207.855 136.435 208.152 136.559 208.462 136.56C208.773 136.561 209.071 136.439 209.291 136.22C210.66 135.109 211.81 133.753 212.681 132.22C212.77 132.153 212.848 132.072 212.911 131.98C213.111 131.68 213.281 131.39 213.451 131.09C213.68 131.155 213.924 131.136 214.141 131.037C214.357 130.938 214.531 130.766 214.631 130.55C216.611 126.88 216.661 123.35 215.851 119.32Z" fill="#F6BA4E"/>
    <path d="M188.761 109.19C183.901 117.62 182.761 129.19 190.301 136.56C196.301 142.43 205.021 138.75 209.401 133.09C214.991 125.87 213.401 115.46 208.531 108.39C206.371 105.25 203.131 102.59 199.291 102.15C195.051 101.66 191.291 106.22 188.921 108.99C188.091 109.99 189.501 111.39 190.331 110.41C192.381 107.98 194.481 105.56 197.531 104.41C201.651 102.83 205.641 107.73 207.601 110.59C209.571 113.544 210.704 116.976 210.88 120.522C211.056 124.068 210.268 127.596 208.601 130.73C205.021 137.4 196.521 139.86 190.861 134.32C184.411 128 186.581 117.02 190.501 110.22C190.621 109.991 190.647 109.726 190.575 109.478C190.504 109.23 190.339 109.02 190.115 108.891C189.892 108.762 189.628 108.724 189.377 108.785C189.127 108.847 188.909 109.002 188.771 109.22L188.761 109.19Z" fill="#434040"/>
    <path d="M197.521 140C208.521 140.39 217.421 134.71 218.721 123.39C219.951 112.61 211.341 101.07 199.831 102.13C198.561 102.25 198.551 104.25 199.831 104.13C210.771 103.13 217.151 113.68 216.721 123.39C216.251 133.68 206.721 138.33 197.521 138C196.231 137.95 196.231 139.95 197.521 140Z" fill="#434040"/>
    <path d="M192.891 122.34C194.201 124.34 195.691 126.21 196.891 128.27C197.037 128.47 197.252 128.609 197.494 128.66C197.736 128.711 197.989 128.671 198.203 128.546C198.417 128.422 198.577 128.222 198.652 127.987C198.728 127.751 198.713 127.496 198.611 127.27C197.411 125.21 195.911 123.34 194.611 121.35C193.911 120.27 192.181 121.27 192.881 122.35L192.891 122.34Z" fill="#434040"/>
    <path d="M194.831 114.84C196.961 117.53 198.191 120.93 200.911 123.14C201.911 123.95 203.321 122.54 202.321 121.73C199.631 119.54 198.321 116.1 196.241 113.43C195.441 112.43 194.041 113.84 194.831 114.84Z" fill="#434040"/>
    <path d="M199.271 114.39C200.071 115.31 200.931 116.18 201.641 117.16C201.707 117.274 201.795 117.373 201.9 117.453C202.005 117.533 202.124 117.591 202.251 117.624C202.379 117.658 202.511 117.666 202.642 117.648C202.772 117.63 202.897 117.587 203.011 117.52C203.239 117.385 203.404 117.164 203.47 116.907C203.535 116.651 203.496 116.378 203.361 116.15C202.551 115.03 201.591 114.03 200.691 112.98C199.791 111.93 198.441 113.42 199.271 114.39Z" fill="#434040"/>
    <path d="M290.151 120.2C290.151 120.2 280.691 121.1 279.081 127.34C277.471 133.58 272.701 150.72 286.721 154.78C300.741 158.84 301.591 141.78 301.591 141.78C301.591 141.78 302.521 122.18 290.151 120.2Z" fill="#F6FEFF"/>
    <path d="M306.401 136.23C306.371 136.03 306.272 135.846 306.121 135.71C305.571 134.08 304.991 132.48 304.371 130.89C304.11 128.034 302.899 125.347 300.931 123.26C300.748 123.077 300.509 122.96 300.252 122.928C299.995 122.895 299.735 122.949 299.511 123.08L299.241 123.26C299.128 123.394 298.975 123.489 298.806 123.534C298.636 123.579 298.456 123.57 298.291 123.51C298.031 123.2 297.781 122.88 297.501 122.58C296.591 121.58 295.031 122.86 295.671 124C296.733 125.89 297.944 127.692 299.291 129.39C299.42 129.568 299.608 129.696 299.821 129.75L300.721 131.26C301.444 133.187 301.886 135.208 302.031 137.26C301.563 140.35 300.834 143.394 299.851 146.36C299.801 146.53 299.792 146.709 299.824 146.883C299.855 147.058 299.928 147.222 300.035 147.363C300.142 147.504 300.281 147.618 300.44 147.696C300.599 147.774 300.774 147.813 300.951 147.81C300.231 148.7 299.541 149.59 298.901 150.54C298.831 150.59 298.781 150.66 298.711 150.71C298.512 150.872 298.383 151.105 298.351 151.36C298.321 151.417 298.284 151.471 298.241 151.52C298.127 151.722 298.076 151.953 298.093 152.185C298.109 152.416 298.194 152.638 298.336 152.821C298.478 153.005 298.671 153.142 298.891 153.217C299.11 153.291 299.347 153.299 299.571 153.24C303.161 151.94 304.961 148.87 305.811 145.37C307.211 142.42 306.931 139.37 306.401 136.23ZM303.111 146.37C302.911 146.269 302.683 146.234 302.461 146.27C302.741 145.74 302.991 145.2 303.211 144.66V145.42C303.221 145.543 303.248 145.664 303.291 145.78C303.261 146 303.181 146.17 303.111 146.37Z" fill="#F6BA4E"/>
    <path d="M278.931 126.76C274.071 135.19 272.931 146.76 280.471 154.13C286.471 160 295.191 156.32 299.571 150.66C305.161 143.43 303.571 133.03 298.701 125.96C296.541 122.81 293.301 120.15 289.461 119.71C285.221 119.23 281.461 123.78 279.091 126.56C278.261 127.56 279.671 128.96 280.501 127.97C282.551 125.54 284.651 123.13 287.701 121.97C291.821 120.39 295.811 125.29 297.781 128.15C299.748 131.105 300.879 134.537 301.055 138.082C301.231 141.628 300.445 145.155 298.781 148.29C295.201 154.95 286.701 157.42 281.041 151.87C274.591 145.55 276.761 134.57 280.681 127.78C280.801 127.551 280.827 127.285 280.755 127.038C280.683 126.79 280.519 126.58 280.295 126.451C280.072 126.322 279.808 126.284 279.557 126.345C279.307 126.406 279.089 126.562 278.951 126.78L278.931 126.76Z" fill="#434040"/>
    <path d="M287.691 157.57C298.691 157.97 307.591 152.29 308.891 140.97C310.121 130.18 301.511 118.65 290.001 119.71C288.731 119.83 288.721 121.83 290.001 121.71C300.941 120.71 307.321 131.25 306.891 140.97C306.431 151.25 296.891 155.9 287.691 155.57C286.401 155.57 286.411 157.57 287.691 157.57Z" fill="#434040"/>
    <path d="M281.681 143.89C282.761 145.13 283.631 146.53 284.681 147.84C285.451 148.84 287.191 147.84 286.401 146.84C285.301 145.4 284.331 143.84 283.131 142.48C282.291 141.48 280.881 142.93 281.721 143.9L281.681 143.89Z" fill="#434040"/>
    <path d="M282.861 133.9C285.621 137.54 288.351 141.21 290.861 145.02C291.571 146.09 293.301 145.09 292.591 144.02C290.071 140.21 287.351 136.54 284.591 132.91C283.831 131.91 282.091 132.91 282.871 133.91L282.861 133.9Z" fill="#434040"/>
    <path d="M292.201 134.55C292.911 135.41 293.621 136.26 294.271 137.17C294.406 137.398 294.626 137.563 294.883 137.629C295.14 137.694 295.413 137.655 295.641 137.52C295.868 137.386 296.033 137.169 296.1 136.914C296.168 136.659 296.132 136.388 296.001 136.16C295.251 135.16 294.441 134.16 293.621 133.16C293.528 133.067 293.418 132.993 293.297 132.942C293.176 132.891 293.046 132.865 292.914 132.865C292.783 132.864 292.653 132.889 292.531 132.939C292.41 132.989 292.299 133.062 292.206 133.155C292.112 133.248 292.038 133.358 291.988 133.479C291.937 133.6 291.911 133.73 291.91 133.862C291.91 133.993 291.935 134.123 291.985 134.245C292.035 134.366 292.108 134.477 292.201 134.57V134.55Z" fill="#434040"/>
    <path d="M8.28031 2.6499V37.6499C8.28031 50.8899 14.1503 56.4999 22.0403 56.4999C30.8103 56.4999 36.4203 50.7099 36.4203 37.6499V2.6499H44.1303V37.0999C44.1303 55.2399 34.5703 62.6899 21.7803 62.6899C9.68031 62.6899 0.570312 55.7599 0.570312 37.4499V2.6499H8.28031Z" fill="#333333"/>
    <path d="M57.3604 61.7199V2.6499H65.6904L84.6203 32.5399C88.5714 38.6985 92.1156 45.1089 95.2303 51.7299L95.4003 51.6399C94.7003 43.7599 94.5303 36.5699 94.5303 27.3699V2.6499H101.71V61.7199H94.0004L75.2404 31.7199C71.1794 25.3744 67.5061 18.789 64.2404 11.9999L63.9803 12.0899C64.4203 19.5399 64.5903 26.6399 64.5903 36.4499V61.6899L57.3604 61.7199Z" fill="#333333"/>
    <path d="M115 3.43996C120.365 2.62778 125.784 2.21664 131.21 2.20996C142.21 2.20996 149.97 4.74997 155.14 9.56997C160.31 14.39 163.46 21.23 163.46 30.79C163.46 40.35 160.46 48.31 154.96 53.79C149.46 59.27 140.33 62.29 128.84 62.29C124.217 62.318 119.596 62.0843 115 61.59V3.43996ZM122.62 55.68C125.174 56.0287 127.753 56.1725 130.33 56.11C146.64 56.11 155.49 47 155.49 31.05C155.58 17.11 147.69 8.25996 131.56 8.25996C128.561 8.21255 125.565 8.47732 122.62 9.04996V55.68Z" fill="#333333"/>
    <path d="M204 33.9999H181V55.2999H206.6V61.6899H173.41V2.6499H205.31V9.0499H181V27.7199H204V33.9999Z" fill="#333333"/>
    <path d="M216.53 3.43992C221.362 2.57807 226.263 2.1663 231.17 2.20992C239.32 2.20992 244.58 3.69992 248.26 7.02992C249.788 8.46214 250.992 10.2039 251.792 12.1389C252.592 14.0738 252.97 16.1572 252.9 18.2499C252.9 26.0499 248 31.2499 241.77 33.3299V33.5899C246.33 35.1699 249.05 39.3699 250.45 45.5099C252.38 53.7499 253.78 59.4499 255.01 61.7199H247.12C246.12 60.0599 244.84 54.9799 243.18 47.6099C241.42 39.4599 238.27 36.3899 231.34 36.1299H224.16V61.7199H216.53V3.43992ZM224.16 30.3499H232C240.15 30.3499 245.32 25.8799 245.32 19.1299C245.32 11.4999 239.8 8.12993 231.73 8.12993C229.201 8.05976 226.672 8.29818 224.2 8.83992L224.16 30.3499Z" fill="#333333"/>
</svg>
